STARTFONT 2.1
COMMENT from SHARP X680x0 ROMFONT
FONT -PEKE-Fixed-Medium-R-Normal--16-150-75-75-C-160-JISX0208.1983-0
SIZE 16 75 75
FONTBOUNDINGBOX 16 16 0 -2
STARTPROPERTIES 19
FONT_ASCENT 14
FONT_DESCENT 2
DEFAULT_CHAR 8481
COPYRIGHT "from SHARP X680x0 ROMFONT"
FONTNAME_REGISTRY ""
FOUNDRY "PEKE"
FAMILY_NAME "Fixed"
WEIGHT_NAME "Medium"
SLANT "R"
SETWIDTH_NAME "Normal"
ADD_STYLE_NAME ""
PIXEL_SIZE 16
POINT_SIZE 150
RESOLUTION_X 75
RESOLUTION_Y 75
SPACING "C"
AVERAGE_WIDTH 160
CHARSET_REGISTRY "ISO10646"
CHARSET_ENCODING "0"
ENDPROPERTIES
CHARS 7198
STARTCHAR (for_rename)
ENCODING 1
SWIDTH 512 0
DWIDTH 8 0
BBX 8 16 0 -2
BITMAP
10
10
38
38
7c
7c
fe
fe
7c
7c
38
38
10
10
00
00
ENDCHAR
STARTCHAR (for_rename)
ENCODING 2
SWIDTH 512 0
DWIDTH 8 0
BBX 8 16 0 -2
BITMAP
55
aa
55
aa
55
aa
55
aa
55
aa
55
aa
55
aa
00
00
ENDCHAR
STARTCHAR (for_rename)
ENCODING 3
SWIDTH 512 0
DWIDTH 8 0
BBX 8 16 0 -2
BITMAP
00
88
88
88
f8
88
88
88
00
3e
08
08
08
08
08
08
ENDCHAR
STARTCHAR (for_rename)
ENCODING 4
SWIDTH 512 0
DWIDTH 8 0
BBX 8 16 0 -2
BITMAP
00
f8
80
80
f0
80
80
80
3e
20
20
3c
20
20
20
00
ENDCHAR
STARTCHAR (for_rename)
ENCODING 5
SWIDTH 512 0
DWIDTH 8 0
BBX 8 16 0 -2
BITMAP
00
70
88
80
80
80
88
70
00
3c
22
22
3c
28
24
22
ENDCHAR
STARTCHAR (for_rename)
ENCODING 6
SWIDTH 512 0
DWIDTH 8 0
BBX 8 16 0 -2
BITMAP
00
80
80
80
80
80
80
f8
00
3e
20
20
3c
20
20
20
ENDCHAR
STARTCHAR (for_rename)
ENCODING 7
SWIDTH 512 0
DWIDTH 8 0
BBX 8 16 0 -2
BITMAP
00
00
38
44
44
44
38
00
00
00
00
00
00
00
00
00
ENDCHAR
STARTCHAR (for_rename)
ENCODING 8
SWIDTH 512 0
DWIDTH 8 0
BBX 8 16 0 -2
BITMAP
00
00
10
10
10
10
fe
10
10
10
10
00
fe
00
00
00
ENDCHAR
STARTCHAR (for_rename)
ENCODING 9
SWIDTH 512 0
DWIDTH 8 0
BBX 8 16 0 -2
BITMAP
00
84
c4
a4
a4
94
94
8c
84
20
20
20
20
20
20
3e
ENDCHAR
STARTCHAR (for_rename)
ENCODING 10
SWIDTH 512 0
DWIDTH 8 0
BBX 8 16 0 -2
BITMAP
00
00
88
88
88
50
50
20
00
3e
08
08
08
08
08
00
ENDCHAR
STARTCHAR (for_rename)
ENCODING 11
SWIDTH 512 0
DWIDTH 8 0
BBX 8 16 0 -2
BITMAP
10
10
10
10
10
10
10
10
f0
00
00
00
00
00
00
00
ENDCHAR
STARTCHAR (for_rename)
ENCODING 12
SWIDTH 512 0
DWIDTH 8 0
BBX 8 16 0 -2
BITMAP
00
00
00
00
00
00
00
00
f0
10
10
10
10
10
10
10
ENDCHAR
STARTCHAR (for_rename)
ENCODING 13
SWIDTH 512 0
DWIDTH 8 0
BBX 8 16 0 -2
BITMAP
00
00
00
00
00
00
00
00
1f
10
10
10
10
10
10
10
ENDCHAR
STARTCHAR (for_rename)
ENCODING 14
SWIDTH 512 0
DWIDTH 8 0
BBX 8 16 0 -2
BITMAP
10
10
10
10
10
10
10
10
1f
00
00
00
00
00
00
00
ENDCHAR
STARTCHAR (for_rename)
ENCODING 15
SWIDTH 512 0
DWIDTH 8 0
BBX 8 16 0 -2
BITMAP
10
10
10
10
10
10
10
10
ff
10
10
10
10
10
10
10
ENDCHAR
STARTCHAR (for_rename)
ENCODING 16
SWIDTH 512 0
DWIDTH 8 0
BBX 8 16 0 -2
BITMAP
00
00
ff
00
00
00
00
00
00
00
00
00
00
00
00
00
ENDCHAR
STARTCHAR (for_rename)
ENCODING 17
SWIDTH 512 0
DWIDTH 8 0
BBX 8 16 0 -2
BITMAP
00
00
00
00
00
ff
00
00
00
00
00
00
00
00
00
00
ENDCHAR
STARTCHAR (for_rename)
ENCODING 18
SWIDTH 512 0
DWIDTH 8 0
BBX 8 16 0 -2
BITMAP
00
00
00
00
00
00
00
00
ff
00
00
00
00
00
00
00
ENDCHAR
STARTCHAR (for_rename)
ENCODING 19
SWIDTH 512 0
DWIDTH 8 0
BBX 8 16 0 -2
BITMAP
00
00
00
00
00
00
00
00
00
00
00
ff
00
00
00
00
ENDCHAR
STARTCHAR (for_rename)
ENCODING 20
SWIDTH 512 0
DWIDTH 8 0
BBX 8 16 0 -2
BITMAP
00
00
00
00
00
00
00
00
00
00
00
00
00
00
ff
00
ENDCHAR
STARTCHAR (for_rename)
ENCODING 21
SWIDTH 512 0
DWIDTH 8 0
BBX 8 16 0 -2
BITMAP
10
10
10
10
10
10
10
10
1f
10
10
10
10
10
10
10
ENDCHAR
STARTCHAR (for_rename)
ENCODING 22
SWIDTH 512 0
DWIDTH 8 0
BBX 8 16 0 -2
BITMAP
10
10
10
10
10
10
10
10
f0
10
10
10
10
10
10
10
ENDCHAR
STARTCHAR (for_rename)
ENCODING 23
SWIDTH 512 0
DWIDTH 8 0
BBX 8 16 0 -2
BITMAP
10
10
10
10
10
10
10
10
ff
00
00
00
00
00
00
00
ENDCHAR
STARTCHAR (for_rename)
ENCODING 24
SWIDTH 512 0
DWIDTH 8 0
BBX 8 16 0 -2
BITMAP
00
00
00
00
00
00
00
00
ff
10
10
10
10
10
10
10
ENDCHAR
STARTCHAR (for_rename)
ENCODING 25
SWIDTH 512 0
DWIDTH 8 0
BBX 8 16 0 -2
BITMAP
10
10
10
10
10
10
10
10
10
10
10
10
10
10
10
10
ENDCHAR
STARTCHAR (for_rename)
ENCODING 26
SWIDTH 512 0
DWIDTH 8 0
BBX 8 16 0 -2
BITMAP
00
00
02
0c
30
c0
30
0c
02
00
fe
00
fe
00
00
00
ENDCHAR
STARTCHAR (for_rename)
ENCODING 27
SWIDTH 512 0
DWIDTH 8 0
BBX 8 16 0 -2
BITMAP
00
00
00
80
60
18
06
18
60
80
fe
00
fe
00
00
00
ENDCHAR
STARTCHAR (for_rename)
ENCODING 28
SWIDTH 512 0
DWIDTH 8 0
BBX 8 16 0 -2
BITMAP
00
00
00
00
00
00
00
fe
24
24
24
24
44
84
00
00
ENDCHAR
STARTCHAR (for_rename)
ENCODING 29
SWIDTH 512 0
DWIDTH 8 0
BBX 8 16 0 -2
BITMAP
00
00
00
00
02
04
08
fe
10
fe
20
40
80
00
00
00
ENDCHAR
STARTCHAR (for_rename)
ENCODING 30
SWIDTH 512 0
DWIDTH 8 0
BBX 8 16 0 -2
BITMAP
00
00
00
00
0c
12
10
10
10
7c
10
10
3c
52
20
00
ENDCHAR
STARTCHAR (for_rename)
ENCODING 31
SWIDTH 512 0
DWIDTH 8 0
BBX 8 16 0 -2
BITMAP
00
00
00
00
00
00
00
00
10
00
00
00
00
00
00
00
ENDCHAR
STARTCHAR (for_rename)
ENCODING 32
SWIDTH 512 0
DWIDTH 8 0
BBX 8 16 0 -2
BITMAP
00
00
00
00
00
00
00
00
00
00
00
00
00
00
00
00
ENDCHAR
STARTCHAR (for_rename)
ENCODING 33
SWIDTH 512 0
DWIDTH 8 0
BBX 8 16 0 -2
BITMAP
00
10
10
10
10
10
10
10
10
10
00
00
10
10
00
00
ENDCHAR
STARTCHAR (for_rename)
ENCODING 34
SWIDTH 512 0
DWIDTH 8 0
BBX 8 16 0 -2
BITMAP
00
6c
6c
24
48
00
00
00
00
00
00
00
00
00
00
00
ENDCHAR
STARTCHAR (for_rename)
ENCODING 35
SWIDTH 512 0
DWIDTH 8 0
BBX 8 16 0 -2
BITMAP
00
44
44
fe
44
44
44
44
44
44
fe
44
44
44
00
00
ENDCHAR
STARTCHAR (for_rename)
ENCODING 36
SWIDTH 512 0
DWIDTH 8 0
BBX 8 16 0 -2
BITMAP
00
10
10
7c
92
90
90
7c
12
12
92
7c
10
10
00
00
ENDCHAR
STARTCHAR (for_rename)
ENCODING 37
SWIDTH 512 0
DWIDTH 8 0
BBX 8 16 0 -2
BITMAP
00
00
60
90
92
64
08
10
20
4c
92
12
0c
00
00
00
ENDCHAR
STARTCHAR (for_rename)
ENCODING 38
SWIDTH 512 0
DWIDTH 8 0
BBX 8 16 0 -2
BITMAP
00
00
70
88
88
88
50
20
50
8a
84
8c
72
00
00
00
ENDCHAR
STARTCHAR (for_rename)
ENCODING 39
SWIDTH 512 0
DWIDTH 8 0
BBX 8 16 0 -2
BITMAP
00
30
30
10
20
00
00
00
00
00
00
00
00
00
00
00
ENDCHAR
STARTCHAR (for_rename)
ENCODING 40
SWIDTH 512 0
DWIDTH 8 0
BBX 8 16 0 -2
BITMAP
00
04
08
10
10
20
20
20
20
20
10
10
08
04
00
00
ENDCHAR
STARTCHAR (for_rename)
ENCODING 41
SWIDTH 512 0
DWIDTH 8 0
BBX 8 16 0 -2
BITMAP
00
40
20
10
10
08
08
08
08
08
10
10
20
40
00
00
ENDCHAR
STARTCHAR (for_rename)
ENCODING 42
SWIDTH 512 0
DWIDTH 8 0
BBX 8 16 0 -2
BITMAP
00
00
00
00
10
54
38
10
38
54
10
00
00
00
00
00
ENDCHAR
STARTCHAR (for_rename)
ENCODING 43
SWIDTH 512 0
DWIDTH 8 0
BBX 8 16 0 -2
BITMAP
00
00
00
10
10
10
10
fe
10
10
10
10
00
00
00
00
ENDCHAR
STARTCHAR (for_rename)
ENCODING 44
SWIDTH 512 0
DWIDTH 8 0
BBX 8 16 0 -2
BITMAP
00
00
00
00
00
00
00
00
00
00
30
30
10
10
20
00
ENDCHAR
STARTCHAR (for_rename)
ENCODING 45
SWIDTH 512 0
DWIDTH 8 0
BBX 8 16 0 -2
BITMAP
00
00
00
00
00
00
00
fe
00
00
00
00
00
00
00
00
ENDCHAR
STARTCHAR (for_rename)
ENCODING 46
SWIDTH 512 0
DWIDTH 8 0
BBX 8 16 0 -2
BITMAP
00
00
00
00
00
00
00
00
00
00
00
00
30
30
00
00
ENDCHAR
STARTCHAR (for_rename)
ENCODING 47
SWIDTH 512 0
DWIDTH 8 0
BBX 8 16 0 -2
BITMAP
00
00
00
04
04
08
08
10
10
20
20
40
40
00
00
00
ENDCHAR
STARTCHAR (for_rename)
ENCODING 48
SWIDTH 512 0
DWIDTH 8 0
BBX 8 16 0 -2
BITMAP
00
3c
42
42
46
46
4a
4a
52
52
62
42
42
3c
00
00
ENDCHAR
STARTCHAR (for_rename)
ENCODING 49
SWIDTH 512 0
DWIDTH 8 0
BBX 8 16 0 -2
BITMAP
00
10
30
50
10
10
10
10
10
10
10
10
10
7c
00
00
ENDCHAR
STARTCHAR (for_rename)
ENCODING 50
SWIDTH 512 0
DWIDTH 8 0
BBX 8 16 0 -2
BITMAP
00
38
44
82
82
82
04
08
10
20
40
80
80
fe
00
00
ENDCHAR
STARTCHAR (for_rename)
ENCODING 51
SWIDTH 512 0
DWIDTH 8 0
BBX 8 16 0 -2
BITMAP
00
7c
04
08
10
20
78
04
02
02
02
82
44
38
00
00
ENDCHAR
STARTCHAR (for_rename)
ENCODING 52
SWIDTH 512 0
DWIDTH 8 0
BBX 8 16 0 -2
BITMAP
00
08
08
18
18
28
28
48
48
88
fe
08
08
08
00
00
ENDCHAR
STARTCHAR (for_rename)
ENCODING 53
SWIDTH 512 0
DWIDTH 8 0
BBX 8 16 0 -2
BITMAP
00
fe
80
80
80
b8
c4
02
02
02
02
82
44
38
00
00
ENDCHAR
STARTCHAR (for_rename)
ENCODING 54
SWIDTH 512 0
DWIDTH 8 0
BBX 8 16 0 -2
BITMAP
00
38
44
82
80
80
b8
c4
82
82
82
82
44
38
00
00
ENDCHAR
STARTCHAR (for_rename)
ENCODING 55
SWIDTH 512 0
DWIDTH 8 0
BBX 8 16 0 -2
BITMAP
00
fe
82
82
02
04
08
08
10
10
10
10
10
10
00
00
ENDCHAR
STARTCHAR (for_rename)
ENCODING 56
SWIDTH 512 0
DWIDTH 8 0
BBX 8 16 0 -2
BITMAP
00
38
44
82
82
82
44
38
44
82
82
82
44
38
00
00
ENDCHAR
STARTCHAR (for_rename)
ENCODING 57
SWIDTH 512 0
DWIDTH 8 0
BBX 8 16 0 -2
BITMAP
00
38
44
82
82
82
82
46
3a
02
02
82
44
38
00
00
ENDCHAR
STARTCHAR (for_rename)
ENCODING 58
SWIDTH 512 0
DWIDTH 8 0
BBX 8 16 0 -2
BITMAP
00
00
00
00
30
30
00
00
00
00
30
30
00
00
00
00
ENDCHAR
STARTCHAR (for_rename)
ENCODING 59
SWIDTH 512 0
DWIDTH 8 0
BBX 8 16 0 -2
BITMAP
00
00
00
00
30
30
00
00
00
00
30
30
10
10
20
00
ENDCHAR
STARTCHAR (for_rename)
ENCODING 60
SWIDTH 512 0
DWIDTH 8 0
BBX 8 16 0 -2
BITMAP
00
00
02
04
08
10
20
40
20
10
08
04
02
00
00
00
ENDCHAR
STARTCHAR (for_rename)
ENCODING 61
SWIDTH 512 0
DWIDTH 8 0
BBX 8 16 0 -2
BITMAP
00
00
00
00
00
00
fe
00
00
fe
00
00
00
00
00
00
ENDCHAR
STARTCHAR (for_rename)
ENCODING 62
SWIDTH 512 0
DWIDTH 8 0
BBX 8 16 0 -2
BITMAP
00
00
40
20
10
08
04
02
04
08
10
20
40
00
00
00
ENDCHAR
STARTCHAR (for_rename)
ENCODING 63
SWIDTH 512 0
DWIDTH 8 0
BBX 8 16 0 -2
BITMAP
00
38
44
82
82
02
04
08
10
10
00
00
10
10
00
00
ENDCHAR
STARTCHAR (for_rename)
ENCODING 64
SWIDTH 512 0
DWIDTH 8 0
BBX 8 16 0 -2
BITMAP
00
38
44
82
92
aa
aa
aa
aa
aa
94
80
40
3c
00
00
ENDCHAR
STARTCHAR (for_rename)
ENCODING 65
SWIDTH 512 0
DWIDTH 8 0
BBX 8 16 0 -2
BITMAP
00
10
28
44
82
82
82
82
fe
82
82
82
82
82
00
00
ENDCHAR
STARTCHAR (for_rename)
ENCODING 66
SWIDTH 512 0
DWIDTH 8 0
BBX 8 16 0 -2
BITMAP
00
f8
44
42
42
42
44
78
44
42
42
42
44
f8
00
00
ENDCHAR
STARTCHAR (for_rename)
ENCODING 67
SWIDTH 512 0
DWIDTH 8 0
BBX 8 16 0 -2
BITMAP
00
38
44
82
80
80
80
80
80
80
80
82
44
38
00
00
ENDCHAR
STARTCHAR (for_rename)
ENCODING 68
SWIDTH 512 0
DWIDTH 8 0
BBX 8 16 0 -2
BITMAP
00
f8
44
42
42
42
42
42
42
42
42
42
44
f8
00
00
ENDCHAR
STARTCHAR (for_rename)
ENCODING 69
SWIDTH 512 0
DWIDTH 8 0
BBX 8 16 0 -2
BITMAP
00
7e
40
40
40
40
40
7c
40
40
40
40
40
7e
00
00
ENDCHAR
STARTCHAR (for_rename)
ENCODING 70
SWIDTH 512 0
DWIDTH 8 0
BBX 8 16 0 -2
BITMAP
00
7e
40
40
40
40
40
7c
40
40
40
40
40
40
00
00
ENDCHAR
STARTCHAR (for_rename)
ENCODING 71
SWIDTH 512 0
DWIDTH 8 0
BBX 8 16 0 -2
BITMAP
00
38
44
82
80
80
80
80
8e
82
82
82
46
3a
00
00
ENDCHAR
STARTCHAR (for_rename)
ENCODING 72
SWIDTH 512 0
DWIDTH 8 0
BBX 8 16 0 -2
BITMAP
00
82
82
82
82
82
82
fe
82
82
82
82
82
82
00
00
ENDCHAR
STARTCHAR (for_rename)
ENCODING 73
SWIDTH 512 0
DWIDTH 8 0
BBX 8 16 0 -2
BITMAP
00
38
10
10
10
10
10
10
10
10
10
10
10
38
00
00
ENDCHAR
STARTCHAR (for_rename)
ENCODING 74
SWIDTH 512 0
DWIDTH 8 0
BBX 8 16 0 -2
BITMAP
00
1c
08
08
08
08
08
08
08
08
08
88
88
70
00
00
ENDCHAR
STARTCHAR (for_rename)
ENCODING 75
SWIDTH 512 0
DWIDTH 8 0
BBX 8 16 0 -2
BITMAP
00
42
42
44
44
48
48
70
48
48
44
44
42
42
00
00
ENDCHAR
STARTCHAR (for_rename)
ENCODING 76
SWIDTH 512 0
DWIDTH 8 0
BBX 8 16 0 -2
BITMAP
00
80
80
80
80
80
80
80
80
80
80
80
80
fe
00
00
ENDCHAR
STARTCHAR (for_rename)
ENCODING 77
SWIDTH 512 0
DWIDTH 8 0
BBX 8 16 0 -2
BITMAP
00
82
c6
c6
aa
aa
92
92
92
82
82
82
82
82
00
00
ENDCHAR
STARTCHAR (for_rename)
ENCODING 78
SWIDTH 512 0
DWIDTH 8 0
BBX 8 16 0 -2
BITMAP
00
82
82
c2
a2
a2
92
92
8a
8a
86
86
82
82
00
00
ENDCHAR
STARTCHAR (for_rename)
ENCODING 79
SWIDTH 512 0
DWIDTH 8 0
BBX 8 16 0 -2
BITMAP
00
38
44
82
82
82
82
82
82
82
82
82
44
38
00
00
ENDCHAR
STARTCHAR (for_rename)
ENCODING 80
SWIDTH 512 0
DWIDTH 8 0
BBX 8 16 0 -2
BITMAP
00
f8
84
82
82
82
84
f8
80
80
80
80
80
80
00
00
ENDCHAR
STARTCHAR (for_rename)
ENCODING 81
SWIDTH 512 0
DWIDTH 8 0
BBX 8 16 0 -2
BITMAP
00
38
44
82
82
82
82
82
82
82
ba
c6
44
3a
00
00
ENDCHAR
STARTCHAR (for_rename)
ENCODING 82
SWIDTH 512 0
DWIDTH 8 0
BBX 8 16 0 -2
BITMAP
00
f8
84
82
82
82
84
f8
88
88
84
84
82
82
00
00
ENDCHAR
STARTCHAR (for_rename)
ENCODING 83
SWIDTH 512 0
DWIDTH 8 0
BBX 8 16 0 -2
BITMAP
00
38
44
82
80
80
40
38
04
02
02
82
44
38
00
00
ENDCHAR
STARTCHAR (for_rename)
ENCODING 84
SWIDTH 512 0
DWIDTH 8 0
BBX 8 16 0 -2
BITMAP
00
fe
10
10
10
10
10
10
10
10
10
10
10
10
00
00
ENDCHAR
STARTCHAR (for_rename)
ENCODING 85
SWIDTH 512 0
DWIDTH 8 0
BBX 8 16 0 -2
BITMAP
00
82
82
82
82
82
82
82
82
82
82
82
82
7c
00
00
ENDCHAR
STARTCHAR (for_rename)
ENCODING 86
SWIDTH 512 0
DWIDTH 8 0
BBX 8 16 0 -2
BITMAP
00
82
82
82
82
82
82
82
44
44
28
28
10
10
00
00
ENDCHAR
STARTCHAR (for_rename)
ENCODING 87
SWIDTH 512 0
DWIDTH 8 0
BBX 8 16 0 -2
BITMAP
00
82
82
82
82
82
82
92
92
92
aa
aa
44
44
00
00
ENDCHAR
STARTCHAR (for_rename)
ENCODING 88
SWIDTH 512 0
DWIDTH 8 0
BBX 8 16 0 -2
BITMAP
00
82
82
44
44
28
28
10
28
28
44
44
82
82
00
00
ENDCHAR
STARTCHAR (for_rename)
ENCODING 89
SWIDTH 512 0
DWIDTH 8 0
BBX 8 16 0 -2
BITMAP
00
82
82
82
82
44
28
10
10
10
10
10
10
10
00
00
ENDCHAR
STARTCHAR (for_rename)
ENCODING 90
SWIDTH 512 0
DWIDTH 8 0
BBX 8 16 0 -2
BITMAP
00
fe
02
04
04
08
08
10
20
20
40
40
80
fe
00
00
ENDCHAR
STARTCHAR (for_rename)
ENCODING 91
SWIDTH 512 0
DWIDTH 8 0
BBX 8 16 0 -2
BITMAP
00
3c
20
20
20
20
20
20
20
20
20
20
20
3c
00
00
ENDCHAR
STARTCHAR (for_rename)
ENCODING 92
SWIDTH 512 0
DWIDTH 8 0
BBX 8 16 0 -2
BITMAP
00
80
80
40
40
20
20
10
10
08
08
04
04
02
02
00
ENDCHAR
STARTCHAR (for_rename)
ENCODING 93
SWIDTH 512 0
DWIDTH 8 0
BBX 8 16 0 -2
BITMAP
00
78
08
08
08
08
08
08
08
08
08
08
08
78
00
00
ENDCHAR
STARTCHAR (for_rename)
ENCODING 94
SWIDTH 512 0
DWIDTH 8 0
BBX 8 16 0 -2
BITMAP
00
10
28
44
82
00
00
00
00
00
00
00
00
00
00
00
ENDCHAR
STARTCHAR (for_rename)
ENCODING 95
SWIDTH 512 0
DWIDTH 8 0
BBX 8 16 0 -2
BITMAP
00
00
00
00
00
00
00
00
00
00
00
00
00
fe
00
00
ENDCHAR
STARTCHAR (for_rename)
ENCODING 96
SWIDTH 512 0
DWIDTH 8 0
BBX 8 16 0 -2
BITMAP
00
40
20
10
00
00
00
00
00
00
00
00
00
00
00
00
ENDCHAR
STARTCHAR (for_rename)
ENCODING 97
SWIDTH 512 0
DWIDTH 8 0
BBX 8 16 0 -2
BITMAP
00
00
00
00
00
00
78
84
04
74
8c
84
8c
72
00
00
ENDCHAR
STARTCHAR (for_rename)
ENCODING 98
SWIDTH 512 0
DWIDTH 8 0
BBX 8 16 0 -2
BITMAP
00
40
40
40
40
40
58
64
42
42
42
42
64
58
00
00
ENDCHAR
STARTCHAR (for_rename)
ENCODING 99
SWIDTH 512 0
DWIDTH 8 0
BBX 8 16 0 -2
BITMAP
00
00
00
00
00
00
1c
22
40
40
40
40
22
1c
00
00
ENDCHAR
STARTCHAR (for_rename)
ENCODING 100
SWIDTH 512 0
DWIDTH 8 0
BBX 8 16 0 -2
BITMAP
00
04
04
04
04
04
34
4c
84
84
84
84
4c
34
00
00
ENDCHAR
STARTCHAR (for_rename)
ENCODING 101
SWIDTH 512 0
DWIDTH 8 0
BBX 8 16 0 -2
BITMAP
00
00
00
00
00
00
38
44
82
fe
80
80
42
3c
00
00
ENDCHAR
STARTCHAR (for_rename)
ENCODING 102
SWIDTH 512 0
DWIDTH 8 0
BBX 8 16 0 -2
BITMAP
00
0c
12
10
10
10
7c
10
10
10
10
10
10
10
00
00
ENDCHAR
STARTCHAR (for_rename)
ENCODING 103
SWIDTH 512 0
DWIDTH 8 0
BBX 8 16 0 -2
BITMAP
00
00
00
00
00
00
3a
46
82
82
82
46
3a
02
44
38
ENDCHAR
STARTCHAR (for_rename)
ENCODING 104
SWIDTH 512 0
DWIDTH 8 0
BBX 8 16 0 -2
BITMAP
00
40
40
40
40
40
58
64
42
42
42
42
42
42
00
00
ENDCHAR
STARTCHAR (for_rename)
ENCODING 105
SWIDTH 512 0
DWIDTH 8 0
BBX 8 16 0 -2
BITMAP
00
00
10
10
00
00
30
10
10
10
10
10
10
38
00
00
ENDCHAR
STARTCHAR (for_rename)
ENCODING 106
SWIDTH 512 0
DWIDTH 8 0
BBX 8 16 0 -2
BITMAP
00
00
08
08
00
00
18
08
08
08
08
08
08
48
48
30
ENDCHAR
STARTCHAR (for_rename)
ENCODING 107
SWIDTH 512 0
DWIDTH 8 0
BBX 8 16 0 -2
BITMAP
00
40
40
40
40
40
42
44
48
50
70
48
44
42
00
00
ENDCHAR
STARTCHAR (for_rename)
ENCODING 108
SWIDTH 512 0
DWIDTH 8 0
BBX 8 16 0 -2
BITMAP
00
30
10
10
10
10
10
10
10
10
10
10
10
10
00
00
ENDCHAR
STARTCHAR (for_rename)
ENCODING 109
SWIDTH 512 0
DWIDTH 8 0
BBX 8 16 0 -2
BITMAP
00
00
00
00
00
00
ec
92
92
92
92
92
92
92
00
00
ENDCHAR
STARTCHAR (for_rename)
ENCODING 110
SWIDTH 512 0
DWIDTH 8 0
BBX 8 16 0 -2
BITMAP
00
00
00
00
00
00
5c
62
42
42
42
42
42
42
00
00
ENDCHAR
STARTCHAR (for_rename)
ENCODING 111
SWIDTH 512 0
DWIDTH 8 0
BBX 8 16 0 -2
BITMAP
00
00
00
00
00
00
38
44
82
82
82
82
44
38
00
00
ENDCHAR
STARTCHAR (for_rename)
ENCODING 112
SWIDTH 512 0
DWIDTH 8 0
BBX 8 16 0 -2
BITMAP
00
00
00
00
00
00
58
64
42
42
42
64
58
40
40
40
ENDCHAR
STARTCHAR (for_rename)
ENCODING 113
SWIDTH 512 0
DWIDTH 8 0
BBX 8 16 0 -2
BITMAP
00
00
00
00
00
00
34
4c
84
84
84
4c
34
04
04
04
ENDCHAR
STARTCHAR (for_rename)
ENCODING 114
SWIDTH 512 0
DWIDTH 8 0
BBX 8 16 0 -2
BITMAP
00
00
00
00
00
00
2c
32
20
20
20
20
20
20
00
00
ENDCHAR
STARTCHAR (for_rename)
ENCODING 115
SWIDTH 512 0
DWIDTH 8 0
BBX 8 16 0 -2
BITMAP
00
00
00
00
00
00
3c
42
40
30
0c
02
42
3c
00
00
ENDCHAR
STARTCHAR (for_rename)
ENCODING 116
SWIDTH 512 0
DWIDTH 8 0
BBX 8 16 0 -2
BITMAP
00
20
20
20
20
20
70
20
20
20
20
20
24
18
00
00
ENDCHAR
STARTCHAR (for_rename)
ENCODING 117
SWIDTH 512 0
DWIDTH 8 0
BBX 8 16 0 -2
BITMAP
00
00
00
00
00
00
84
84
84
84
84
84
8c
74
00
00
ENDCHAR
STARTCHAR (for_rename)
ENCODING 118
SWIDTH 512 0
DWIDTH 8 0
BBX 8 16 0 -2
BITMAP
00
00
00
00
00
00
82
82
82
82
82
44
28
10
00
00
ENDCHAR
STARTCHAR (for_rename)
ENCODING 119
SWIDTH 512 0
DWIDTH 8 0
BBX 8 16 0 -2
BITMAP
00
00
00
00
00
00
82
82
82
92
92
aa
44
44
00
00
ENDCHAR
STARTCHAR (for_rename)
ENCODING 120
SWIDTH 512 0
DWIDTH 8 0
BBX 8 16 0 -2
BITMAP
00
00
00
00
00
00
82
44
28
10
10
28
44
82
00
00
ENDCHAR
STARTCHAR (for_rename)
ENCODING 121
SWIDTH 512 0
DWIDTH 8 0
BBX 8 16 0 -2
BITMAP
00
00
00
00
00
00
42
42
42
42
42
22
14
08
10
60
ENDCHAR
STARTCHAR (for_rename)
ENCODING 122
SWIDTH 512 0
DWIDTH 8 0
BBX 8 16 0 -2
BITMAP
00
00
00
00
00
00
7e
02
04
08
10
20
40
7e
00
00
ENDCHAR
STARTCHAR (for_rename)
ENCODING 123
SWIDTH 512 0
DWIDTH 8 0
BBX 8 16 0 -2
BITMAP
00
0c
10
10
10
10
10
20
10
10
10
10
10
0c
00
00
ENDCHAR
STARTCHAR (for_rename)
ENCODING 124
SWIDTH 512 0
DWIDTH 8 0
BBX 8 16 0 -2
BITMAP
00
00
18
18
18
18
18
18
18
18
18
18
18
18
00
00
ENDCHAR
STARTCHAR (for_rename)
ENCODING 125
SWIDTH 512 0
DWIDTH 8 0
BBX 8 16 0 -2
BITMAP
00
30
08
08
08
08
08
04
08
08
08
08
08
30
00
00
ENDCHAR
STARTCHAR (for_rename)
ENCODING 126
SWIDTH 512 0
DWIDTH 8 0
BBX 8 16 0 -2
BITMAP
00
fe
00
00
00
00
00
00
00
00
00
00
00
00
00
00
ENDCHAR
STARTCHAR (for_rename)
ENCODING 127
SWIDTH 512 0
DWIDTH 8 0
BBX 8 16 0 -2
BITMAP
00
00
00
00
00
00
00
00
00
00
00
00
00
00
00
00
ENDCHAR
STARTCHAR (for_rename)
ENCODING 161
SWIDTH 512 0
DWIDTH 8 0
BBX 8 16 0 -2
BITMAP
00
10
10
00
00
10
10
10
10
10
10
10
30
30
30
30
ENDCHAR
STARTCHAR (for_rename)
ENCODING 162
SWIDTH 1024 0
DWIDTH 16 0
BBX 16 16 0 -2
BITMAP
0000
0000
0040
0040
0040
03c0
04a0
0880
0880
0880
0900
0900
0520
03c0
0200
0200
ENDCHAR
STARTCHAR (for_rename)
ENCODING 163
SWIDTH 1024 0
DWIDTH 16 0
BBX 16 16 0 -2
BITMAP
0000
0380
0440
0820
0840
0400
0400
3fe0
0400
0200
0208
1a08
2608
2590
1860
0000
ENDCHAR
STARTCHAR (for_rename)
ENCODING 164
SWIDTH 512 0
DWIDTH 8 0
BBX 8 16 0 -2
BITMAP
00
00
00
00
00
42
3c
24
24
3c
42
00
00
00
00
00
ENDCHAR
STARTCHAR (for_rename)
ENCODING 165
SWIDTH 512 0
DWIDTH 8 0
BBX 8 16 0 -2
BITMAP
00
82
44
28
10
fe
10
10
10
fe
10
10
10
10
00
00
ENDCHAR
STARTCHAR (for_rename)
ENCODING 166
SWIDTH 512 0
DWIDTH 8 0
BBX 8 16 0 -2
BITMAP
00
10
10
10
10
10
00
00
00
10
10
10
10
10
00
00
ENDCHAR
STARTCHAR (for_rename)
ENCODING 167
SWIDTH 1024 0
DWIDTH 16 0
BBX 16 16 0 -2
BITMAP
0380
0440
0820
0840
0400
0300
04c0
0820
0640
0180
0040
0420
0820
0440
0380
0000
ENDCHAR
STARTCHAR (for_rename)
ENCODING 168
SWIDTH 1024 0
DWIDTH 16 0
BBX 16 16 0 -2
BITMAP
0cc0
0cc0
0000
0000
0000
0000
0000
0000
0000
0000
0000
0000
0000
0000
0000
0000
ENDCHAR
STARTCHAR (for_rename)
ENCODING 169
SWIDTH 512 0
DWIDTH 8 0
BBX 8 16 0 -2
BITMAP
00
00
3c
42
99
a5
a1
a1
a1
a5
a5
9b
42
3c
00
00
ENDCHAR
STARTCHAR (for_rename)
ENCODING 170
SWIDTH 512 0
DWIDTH 8 0
BBX 8 16 0 -2
BITMAP
00
1c
22
1e
22
26
1a
00
3e
00
00
00
00
00
00
00
ENDCHAR
STARTCHAR (for_rename)
ENCODING 171
SWIDTH 512 0
DWIDTH 8 0
BBX 8 16 0 -2
BITMAP
00
00
00
09
12
24
48
90
90
48
24
12
09
00
00
00
ENDCHAR
STARTCHAR (for_rename)
ENCODING 172
SWIDTH 512 0
DWIDTH 8 0
BBX 8 16 0 -2
BITMAP
00
00
00
00
00
00
00
fe
fe
06
06
00
00
00
00
00
ENDCHAR
STARTCHAR (for_rename)
ENCODING 173
SWIDTH 512 0
DWIDTH 8 0
BBX 8 16 0 -2
BITMAP
00
00
00
00
00
00
00
fe
fe
00
00
00
00
00
00
00
ENDCHAR
STARTCHAR (for_rename)
ENCODING 174
SWIDTH 512 0
DWIDTH 8 0
BBX 8 16 0 -2
BITMAP
00
00
3c
42
b9
a5
a5
b9
a9
a5
a5
a3
42
3c
00
00
ENDCHAR
STARTCHAR (for_rename)
ENCODING 175
SWIDTH 512 0
DWIDTH 8 0
BBX 8 16 0 -2
BITMAP
00
00
fe
00
00
00
00
00
00
00
00
00
00
00
00
00
ENDCHAR
STARTCHAR (for_rename)
ENCODING 176
SWIDTH 1024 0
DWIDTH 16 0
BBX 16 16 0 -2
BITMAP
7000
8800
8800
8800
7000
0000
0000
0000
0000
0000
0000
0000
0000
0000
0000
0000
ENDCHAR
STARTCHAR (for_rename)
ENCODING 177
SWIDTH 1024 0
DWIDTH 16 0
BBX 16 16 0 -2
BITMAP
0000
0100
0100
0100
0100
3ff8
0100
0100
0100
0100
0000
0000
3ff8
0000
0000
0000
ENDCHAR
STARTCHAR (for_rename)
ENCODING 178
SWIDTH 512 0
DWIDTH 8 0
BBX 8 16 0 -2
BITMAP
00
18
24
04
08
10
20
3c
00
00
00
00
00
00
00
00
ENDCHAR
STARTCHAR (for_rename)
ENCODING 179
SWIDTH 512 0
DWIDTH 8 0
BBX 8 16 0 -2
BITMAP
00
18
24
04
18
04
24
18
00
00
00
00
00
00
00
00
ENDCHAR
STARTCHAR (for_rename)
ENCODING 180
SWIDTH 1024 0
DWIDTH 16 0
BBX 16 16 0 -2
BITMAP
0080
0100
0200
0000
0000
0000
0000
0000
0000
0000
0000
0000
0000
0000
0000
0000
ENDCHAR
STARTCHAR (for_rename)
ENCODING 181
SWIDTH 512 0
DWIDTH 8 0
BBX 8 16 0 -2
BITMAP
00
00
00
00
00
00
00
22
22
22
44
44
6c
54
82
80
ENDCHAR
STARTCHAR (for_rename)
ENCODING 182
SWIDTH 1024 0
DWIDTH 16 0
BBX 16 16 0 -2
BITMAP
0000
07e0
0f20
1f20
1f20
0f20
0720
0120
0120
0120
0120
0120
0120
0120
0120
0120
ENDCHAR
STARTCHAR (for_rename)
ENCODING 183
SWIDTH 512 0
DWIDTH 8 0
BBX 8 16 0 -2
BITMAP
00
00
00
00
00
00
18
18
00
00
00
00
00
00
00
00
ENDCHAR
STARTCHAR (for_rename)
ENCODING 184
SWIDTH 512 0
DWIDTH 8 0
BBX 8 16 0 -2
BITMAP
00
00
00
00
00
00
00
00
00
00
00
00
00
0c
08
10
ENDCHAR
STARTCHAR (for_rename)
ENCODING 185
SWIDTH 512 0
DWIDTH 8 0
BBX 8 16 0 -2
BITMAP
00
08
18
28
08
08
08
08
00
00
00
00
00
00
00
00
ENDCHAR
STARTCHAR (for_rename)
ENCODING 186
SWIDTH 512 0
DWIDTH 8 0
BBX 8 16 0 -2
BITMAP
00
18
24
24
24
24
18
00
3c
00
00
00
00
00
00
00
ENDCHAR
STARTCHAR (for_rename)
ENCODING 187
SWIDTH 512 0
DWIDTH 8 0
BBX 8 16 0 -2
BITMAP
00
00
00
00
90
48
24
12
09
09
12
24
48
90
00
00
ENDCHAR
STARTCHAR (for_rename)
ENCODING 188
SWIDTH 512 0
DWIDTH 8 0
BBX 8 16 0 -2
BITMAP
00
40
c4
44
48
48
50
12
22
26
4a
5f
82
82
00
00
ENDCHAR
STARTCHAR (for_rename)
ENCODING 189
SWIDTH 512 0
DWIDTH 8 0
BBX 8 16 0 -2
BITMAP
00
40
c4
44
48
48
50
1c
32
22
44
48
88
9e
00
00
ENDCHAR
STARTCHAR (for_rename)
ENCODING 190
SWIDTH 512 0
DWIDTH 8 0
BBX 8 16 0 -2
BITMAP
00
60
92
12
64
14
98
6a
12
16
2a
3f
42
42
00
00
ENDCHAR
STARTCHAR (for_rename)
ENCODING 191
SWIDTH 512 0
DWIDTH 8 0
BBX 8 16 0 -2
BITMAP
08
08
00
00
08
08
08
10
20
20
41
41
41
22
1c
00
ENDCHAR
STARTCHAR (for_rename)
ENCODING 192
SWIDTH 512 0
DWIDTH 8 0
BBX 8 16 0 -2
BITMAP
30
10
08
10
10
28
28
44
44
7c
82
82
82
82
00
00
ENDCHAR
STARTCHAR (for_rename)
ENCODING 193
SWIDTH 512 0
DWIDTH 8 0
BBX 8 16 0 -2
BITMAP
18
10
20
10
10
28
28
44
44
7c
82
82
82
82
00
00
ENDCHAR
STARTCHAR (for_rename)
ENCODING 194
SWIDTH 512 0
DWIDTH 8 0
BBX 8 16 0 -2
BITMAP
10
38
44
10
10
28
28
44
44
7c
82
82
82
82
00
00
ENDCHAR
STARTCHAR (for_rename)
ENCODING 195
SWIDTH 512 0
DWIDTH 8 0
BBX 8 16 0 -2
BITMAP
34
58
00
10
10
28
28
44
44
7c
82
82
82
82
00
00
ENDCHAR
STARTCHAR (for_rename)
ENCODING 196
SWIDTH 512 0
DWIDTH 8 0
BBX 8 16 0 -2
BITMAP
44
44
00
10
10
28
28
44
44
7c
82
82
82
82
00
00
ENDCHAR
STARTCHAR (for_rename)
ENCODING 197
SWIDTH 512 0
DWIDTH 8 0
BBX 8 16 0 -2
BITMAP
10
28
10
10
10
28
28
44
44
7c
82
82
82
82
00
00
ENDCHAR
STARTCHAR (for_rename)
ENCODING 198
SWIDTH 512 0
DWIDTH 8 0
BBX 8 16 0 -2
BITMAP
00
00
1f
28
28
28
2e
48
48
78
88
88
88
8f
00
00
ENDCHAR
STARTCHAR (for_rename)
ENCODING 199
SWIDTH 512 0
DWIDTH 8 0
BBX 8 16 0 -2
BITMAP
00
38
44
42
80
80
80
80
80
80
42
44
38
08
08
10
ENDCHAR
STARTCHAR (for_rename)
ENCODING 200
SWIDTH 512 0
DWIDTH 8 0
BBX 8 16 0 -2
BITMAP
30
10
08
fe
80
80
80
fc
80
80
80
80
80
fe
00
00
ENDCHAR
STARTCHAR (for_rename)
ENCODING 201
SWIDTH 512 0
DWIDTH 8 0
BBX 8 16 0 -2
BITMAP
18
10
20
fe
80
80
80
fc
80
80
80
80
80
fe
00
00
ENDCHAR
STARTCHAR (for_rename)
ENCODING 202
SWIDTH 512 0
DWIDTH 8 0
BBX 8 16 0 -2
BITMAP
10
38
44
fe
80
80
80
fc
80
80
80
80
80
fe
00
00
ENDCHAR
STARTCHAR (for_rename)
ENCODING 203
SWIDTH 512 0
DWIDTH 8 0
BBX 8 16 0 -2
BITMAP
44
44
00
fe
80
80
80
fc
80
80
80
80
80
fe
00
00
ENDCHAR
STARTCHAR (for_rename)
ENCODING 204
SWIDTH 512 0
DWIDTH 8 0
BBX 8 16 0 -2
BITMAP
30
10
08
38
10
10
10
10
10
10
10
10
10
38
00
00
ENDCHAR
STARTCHAR (for_rename)
ENCODING 205
SWIDTH 512 0
DWIDTH 8 0
BBX 8 16 0 -2
BITMAP
18
10
20
38
10
10
10
10
10
10
10
10
10
38
00
00
ENDCHAR
STARTCHAR (for_rename)
ENCODING 206
SWIDTH 512 0
DWIDTH 8 0
BBX 8 16 0 -2
BITMAP
10
38
44
38
10
10
10
10
10
10
10
10
10
38
00
00
ENDCHAR
STARTCHAR (for_rename)
ENCODING 207
SWIDTH 512 0
DWIDTH 8 0
BBX 8 16 0 -2
BITMAP
44
44
00
38
10
10
10
10
10
10
10
10
10
38
00
00
ENDCHAR
STARTCHAR (for_rename)
ENCODING 208
SWIDTH 512 0
DWIDTH 8 0
BBX 8 16 0 -2
BITMAP
00
70
48
44
44
42
42
f2
42
42
44
44
48
70
00
00
ENDCHAR
STARTCHAR (for_rename)
ENCODING 209
SWIDTH 512 0
DWIDTH 8 0
BBX 8 16 0 -2
BITMAP
34
58
82
82
c2
c2
a2
a2
92
8a
8a
86
86
82
00
00
ENDCHAR
STARTCHAR (for_rename)
ENCODING 210
SWIDTH 512 0
DWIDTH 8 0
BBX 8 16 0 -2
BITMAP
30
10
08
38
44
82
82
82
82
82
82
82
44
38
00
00
ENDCHAR
STARTCHAR (for_rename)
ENCODING 211
SWIDTH 512 0
DWIDTH 8 0
BBX 8 16 0 -2
BITMAP
18
10
20
38
44
82
82
82
82
82
82
82
44
38
00
00
ENDCHAR
STARTCHAR (for_rename)
ENCODING 212
SWIDTH 512 0
DWIDTH 8 0
BBX 8 16 0 -2
BITMAP
10
38
44
38
44
82
82
82
82
82
82
82
44
38
00
00
ENDCHAR
STARTCHAR (for_rename)
ENCODING 213
SWIDTH 512 0
DWIDTH 8 0
BBX 8 16 0 -2
BITMAP
34
58
00
38
44
82
82
82
82
82
82
82
44
38
00
00
ENDCHAR
STARTCHAR (for_rename)
ENCODING 214
SWIDTH 512 0
DWIDTH 8 0
BBX 8 16 0 -2
BITMAP
44
44
00
38
44
82
82
82
82
82
82
82
44
38
00
00
ENDCHAR
STARTCHAR (for_rename)
ENCODING 215
SWIDTH 1024 0
DWIDTH 16 0
BBX 16 16 0 -2
BITMAP
0000
0000
0000
1010
0820
0440
0280
0100
0100
0280
0440
0820
1010
0000
0000
0000
ENDCHAR
STARTCHAR (for_rename)
ENCODING 216
SWIDTH 512 0
DWIDTH 8 0
BBX 8 16 0 -2
BITMAP
02
02
3c
44
86
8a
8a
92
92
a2
a2
c2
44
78
80
80
ENDCHAR
STARTCHAR (for_rename)
ENCODING 217
SWIDTH 512 0
DWIDTH 8 0
BBX 8 16 0 -2
BITMAP
30
10
08
82
82
82
82
82
82
82
82
82
44
38
00
00
ENDCHAR
STARTCHAR (for_rename)
ENCODING 218
SWIDTH 512 0
DWIDTH 8 0
BBX 8 16 0 -2
BITMAP
18
10
20
82
82
82
82
82
82
82
82
82
44
38
00
00
ENDCHAR
STARTCHAR (for_rename)
ENCODING 219
SWIDTH 512 0
DWIDTH 8 0
BBX 8 16 0 -2
BITMAP
10
38
44
00
82
82
82
82
82
82
82
82
44
38
00
00
ENDCHAR
STARTCHAR (for_rename)
ENCODING 220
SWIDTH 512 0
DWIDTH 8 0
BBX 8 16 0 -2
BITMAP
44
44
00
82
82
82
82
82
82
82
82
82
44
38
00
00
ENDCHAR
STARTCHAR (for_rename)
ENCODING 221
SWIDTH 512 0
DWIDTH 8 0
BBX 8 16 0 -2
BITMAP
18
10
a2
82
44
44
28
28
10
10
10
10
10
10
00
00
ENDCHAR
STARTCHAR (for_rename)
ENCODING 222
SWIDTH 512 0
DWIDTH 8 0
BBX 8 16 0 -2
BITMAP
80
80
f8
84
82
82
84
f8
80
80
80
80
80
80
00
00
ENDCHAR
STARTCHAR (for_rename)
ENCODING 223
SWIDTH 512 0
DWIDTH 8 0
BBX 8 16 0 -2
BITMAP
00
78
84
82
82
84
b8
84
82
82
82
82
84
b8
00
00
ENDCHAR
STARTCHAR (for_rename)
ENCODING 224
SWIDTH 512 0
DWIDTH 8 0
BBX 8 16 0 -2
BITMAP
00
30
10
08
00
3c
42
02
3e
42
82
82
86
7a
00
00
ENDCHAR
STARTCHAR (for_rename)
ENCODING 225
SWIDTH 512 0
DWIDTH 8 0
BBX 8 16 0 -2
BITMAP
00
18
10
20
00
3c
42
02
3e
42
82
82
86
7a
00
00
ENDCHAR
STARTCHAR (for_rename)
ENCODING 226
SWIDTH 512 0
DWIDTH 8 0
BBX 8 16 0 -2
BITMAP
00
10
38
44
00
3c
42
02
3e
42
82
82
86
7a
00
00
ENDCHAR
STARTCHAR (for_rename)
ENCODING 227
SWIDTH 512 0
DWIDTH 8 0
BBX 8 16 0 -2
BITMAP
00
34
58
00
00
3c
42
02
3e
42
82
82
86
7a
00
00
ENDCHAR
STARTCHAR (for_rename)
ENCODING 228
SWIDTH 512 0
DWIDTH 8 0
BBX 8 16 0 -2
BITMAP
00
00
24
24
00
3c
42
02
3e
42
82
82
86
7a
00
00
ENDCHAR
STARTCHAR (for_rename)
ENCODING 229
SWIDTH 512 0
DWIDTH 8 0
BBX 8 16 0 -2
BITMAP
00
10
28
10
00
3c
42
02
3e
42
82
82
86
7a
00
00
ENDCHAR
STARTCHAR (for_rename)
ENCODING 230
SWIDTH 512 0
DWIDTH 8 0
BBX 8 16 0 -2
BITMAP
00
00
00
00
00
6c
92
12
3e
50
90
92
92
6c
00
00
ENDCHAR
STARTCHAR (for_rename)
ENCODING 231
SWIDTH 512 0
DWIDTH 8 0
BBX 8 16 0 -2
BITMAP
00
00
00
00
38
44
82
80
80
80
82
44
38
10
10
20
ENDCHAR
STARTCHAR (for_rename)
ENCODING 232
SWIDTH 512 0
DWIDTH 8 0
BBX 8 16 0 -2
BITMAP
00
30
10
08
00
38
44
82
82
fe
80
82
44
38
00
00
ENDCHAR
STARTCHAR (for_rename)
ENCODING 233
SWIDTH 512 0
DWIDTH 8 0
BBX 8 16 0 -2
BITMAP
00
18
10
20
00
38
44
82
82
fe
80
82
44
38
00
00
ENDCHAR
STARTCHAR (for_rename)
ENCODING 234
SWIDTH 512 0
DWIDTH 8 0
BBX 8 16 0 -2
BITMAP
00
10
38
44
00
38
44
82
82
fe
80
82
44
38
00
00
ENDCHAR
STARTCHAR (for_rename)
ENCODING 235
SWIDTH 512 0
DWIDTH 8 0
BBX 8 16 0 -2
BITMAP
00
44
44
00
00
38
44
82
82
fe
80
82
44
38
00
00
ENDCHAR
STARTCHAR (for_rename)
ENCODING 236
SWIDTH 512 0
DWIDTH 8 0
BBX 8 16 0 -2
BITMAP
00
30
10
08
00
30
10
10
10
10
10
10
10
10
00
00
ENDCHAR
STARTCHAR (for_rename)
ENCODING 237
SWIDTH 512 0
DWIDTH 8 0
BBX 8 16 0 -2
BITMAP
00
18
10
20
00
30
10
10
10
10
10
10
10
10
00
00
ENDCHAR
STARTCHAR (for_rename)
ENCODING 238
SWIDTH 512 0
DWIDTH 8 0
BBX 8 16 0 -2
BITMAP
00
10
38
44
00
30
10
10
10
10
10
10
10
10
00
00
ENDCHAR
STARTCHAR (for_rename)
ENCODING 239
SWIDTH 512 0
DWIDTH 8 0
BBX 8 16 0 -2
BITMAP
00
44
44
00
00
30
10
10
10
10
10
10
10
10
00
00
ENDCHAR
STARTCHAR (for_rename)
ENCODING 240
SWIDTH 512 0
DWIDTH 8 0
BBX 8 16 0 -2
BITMAP
00
64
18
30
48
38
44
82
82
82
82
82
44
38
00
00
ENDCHAR
STARTCHAR (for_rename)
ENCODING 241
SWIDTH 512 0
DWIDTH 8 0
BBX 8 16 0 -2
BITMAP
00
34
58
00
00
5c
62
42
42
42
42
42
42
42
00
00
ENDCHAR
STARTCHAR (for_rename)
ENCODING 242
SWIDTH 512 0
DWIDTH 8 0
BBX 8 16 0 -2
BITMAP
00
30
10
08
00
38
44
82
82
82
82
82
44
38
00
00
ENDCHAR
STARTCHAR (for_rename)
ENCODING 243
SWIDTH 512 0
DWIDTH 8 0
BBX 8 16 0 -2
BITMAP
00
18
10
20
00
38
44
82
82
82
82
82
44
38
00
00
ENDCHAR
STARTCHAR (for_rename)
ENCODING 244
SWIDTH 512 0
DWIDTH 8 0
BBX 8 16 0 -2
BITMAP
00
10
38
44
00
38
44
82
82
82
82
82
44
38
00
00
ENDCHAR
STARTCHAR (for_rename)
ENCODING 245
SWIDTH 512 0
DWIDTH 8 0
BBX 8 16 0 -2
BITMAP
00
34
58
00
00
38
44
82
82
82
82
82
44
38
00
00
ENDCHAR
STARTCHAR (for_rename)
ENCODING 246
SWIDTH 512 0
DWIDTH 8 0
BBX 8 16 0 -2
BITMAP
00
44
44
00
00
38
44
82
82
82
82
82
44
38
00
00
ENDCHAR
STARTCHAR (for_rename)
ENCODING 247
SWIDTH 1024 0
DWIDTH 16 0
BBX 16 16 0 -2
BITMAP
0000
0000
0100
0380
0100
0000
0000
3ff8
0000
0000
0100
0380
0100
0000
0000
0000
ENDCHAR
STARTCHAR (for_rename)
ENCODING 248
SWIDTH 512 0
DWIDTH 8 0
BBX 8 16 0 -2
BITMAP
00
00
00
00
00
3a
44
8a
8a
92
a2
a2
44
b8
00
00
ENDCHAR
STARTCHAR (for_rename)
ENCODING 249
SWIDTH 512 0
DWIDTH 8 0
BBX 8 16 0 -2
BITMAP
00
30
10
08
00
42
42
42
42
42
42
42
46
3a
00
00
ENDCHAR
STARTCHAR (for_rename)
ENCODING 250
SWIDTH 512 0
DWIDTH 8 0
BBX 8 16 0 -2
BITMAP
00
18
10
20
00
42
42
42
42
42
42
42
46
3a
00
00
ENDCHAR
STARTCHAR (for_rename)
ENCODING 251
SWIDTH 512 0
DWIDTH 8 0
BBX 8 16 0 -2
BITMAP
00
10
38
44
00
42
42
42
42
42
42
42
46
3a
00
00
ENDCHAR
STARTCHAR (for_rename)
ENCODING 252
SWIDTH 512 0
DWIDTH 8 0
BBX 8 16 0 -2
BITMAP
00
24
24
00
00
42
42
42
42
42
42
42
46
3a
00
00
ENDCHAR
STARTCHAR (for_rename)
ENCODING 253
SWIDTH 512 0
DWIDTH 8 0
BBX 8 16 0 -2
BITMAP
00
0c
08
10
00
42
42
22
24
14
08
08
10
10
20
40
ENDCHAR
STARTCHAR (for_rename)
ENCODING 254
SWIDTH 512 0
DWIDTH 8 0
BBX 8 16 0 -2
BITMAP
00
00
40
40
40
78
44
42
42
42
44
78
40
40
40
40
ENDCHAR
STARTCHAR (for_rename)
ENCODING 255
SWIDTH 512 0
DWIDTH 8 0
BBX 8 16 0 -2
BITMAP
00
24
24
00
00
42
42
22
24
14
08
08
10
10
20
40
ENDCHAR
STARTCHAR (for_rename)
ENCODING 913
SWIDTH 1024 0
DWIDTH 16 0
BBX 16 16 0 -2
BITMAP
0000
0100
0100
0280
0280
0440
0440
0440
0820
0fe0
0820
1010
1010
783c
0000
0000
ENDCHAR
STARTCHAR (for_rename)
ENCODING 914
SWIDTH 1024 0
DWIDTH 16 0
BBX 16 16 0 -2
BITMAP
0000
3fc0
0820
0810
0810
0810
0820
0fc0
0820
0810
0810
0810
0820
3fc0
0000
0000
ENDCHAR
STARTCHAR (for_rename)
ENCODING 915
SWIDTH 1024 0
DWIDTH 16 0
BBX 16 16 0 -2
BITMAP
0000
3ff0
0810
0810
0800
0800
0800
0800
0800
0800
0800
0800
0800
3f00
0000
0000
ENDCHAR
STARTCHAR (for_rename)
ENCODING 916
SWIDTH 1024 0
DWIDTH 16 0
BBX 16 16 0 -2
BITMAP
0000
0100
0100
0280
0280
0440
0440
0820
0820
1010
1010
2008
2008
7ffc
0000
0000
ENDCHAR
STARTCHAR (for_rename)
ENCODING 917
SWIDTH 1024 0
DWIDTH 16 0
BBX 16 16 0 -2
BITMAP
0000
3ff8
0808
0808
0800
0840
0840
0fc0
0840
0840
0800
0808
0808
3ff8
0000
0000
ENDCHAR
STARTCHAR (for_rename)
ENCODING 918
SWIDTH 1024 0
DWIDTH 16 0
BBX 16 16 0 -2
BITMAP
0000
1ff8
1010
1020
0040
0040
0080
0100
0100
0200
0400
0408
0808
1ff8
0000
0000
ENDCHAR
STARTCHAR (for_rename)
ENCODING 919
SWIDTH 1024 0
DWIDTH 16 0
BBX 16 16 0 -2
BITMAP
0000
3e7c
0810
0810
0810
0810
0810
0ff0
0810
0810
0810
0810
0810
3e7c
0000
0000
ENDCHAR
STARTCHAR (for_rename)
ENCODING 920
SWIDTH 1024 0
DWIDTH 16 0
BBX 16 16 0 -2
BITMAP
0000
07c0
0820
1010
1010
2008
2448
27c8
2448
2008
1010
1010
0820
07c0
0000
0000
ENDCHAR
STARTCHAR (for_rename)
ENCODING 921
SWIDTH 1024 0
DWIDTH 16 0
BBX 16 16 0 -2
BITMAP
0000
07c0
0100
0100
0100
0100
0100
0100
0100
0100
0100
0100
0100
07c0
0000
0000
ENDCHAR
STARTCHAR (for_rename)
ENCODING 922
SWIDTH 1024 0
DWIDTH 16 0
BBX 16 16 0 -2
BITMAP
0000
7c78
1020
1040
1080
1100
1200
1500
1900
1080
1040
1040
1020
7c78
0000
0000
ENDCHAR
STARTCHAR (for_rename)
ENCODING 923
SWIDTH 1024 0
DWIDTH 16 0
BBX 16 16 0 -2
BITMAP
0000
0100
0100
0280
0280
0440
0440
0440
0820
0820
0820
1010
1010
7c7c
0000
0000
ENDCHAR
STARTCHAR (for_rename)
ENCODING 924
SWIDTH 1024 0
DWIDTH 16 0
BBX 16 16 0 -2
BITMAP
0000
701c
3018
2828
2828
2828
2448
2448
2288
2288
2288
2108
2108
f83e
0000
0000
ENDCHAR
STARTCHAR (for_rename)
ENCODING 925
SWIDTH 1024 0
DWIDTH 16 0
BBX 16 16 0 -2
BITMAP
0000
787c
1810
1410
1410
1210
1210
1110
1090
1090
1050
1050
1030
7c10
0000
0000
ENDCHAR
STARTCHAR (for_rename)
ENCODING 926
SWIDTH 1024 0
DWIDTH 16 0
BBX 16 16 0 -2
BITMAP
0000
3ff8
2008
0000
0000
0000
1010
1ff0
1010
0000
0000
0000
2008
3ff8
0000
0000
ENDCHAR
STARTCHAR (for_rename)
ENCODING 927
SWIDTH 1024 0
DWIDTH 16 0
BBX 16 16 0 -2
BITMAP
0000
07c0
0820
1010
1010
2008
2008
2008
2008
2008
1010
1010
0820
07c0
0000
0000
ENDCHAR
STARTCHAR (for_rename)
ENCODING 928
SWIDTH 1024 0
DWIDTH 16 0
BBX 16 16 0 -2
BITMAP
0000
3ff8
0820
0820
0820
0820
0820
0820
0820
0820
0820
0820
0820
3c78
0000
0000
ENDCHAR
STARTCHAR (for_rename)
ENCODING 929
SWIDTH 1024 0
DWIDTH 16 0
BBX 16 16 0 -2
BITMAP
0000
3fe0
0810
0808
0808
0808
0810
0fe0
0800
0800
0800
0800
0800
3f00
0000
0000
ENDCHAR
STARTCHAR (for_rename)
ENCODING 931
SWIDTH 1024 0
DWIDTH 16 0
BBX 16 16 0 -2
BITMAP
0000
3ff8
2008
1008
0800
0400
0200
0100
0200
0400
0800
1008
2008
3ff8
0000
0000
ENDCHAR
STARTCHAR (for_rename)
ENCODING 932
SWIDTH 1024 0
DWIDTH 16 0
BBX 16 16 0 -2
BITMAP
0000
3ff8
2108
2108
2108
0100
0100
0100
0100
0100
0100
0100
0100
07c0
0000
0000
ENDCHAR
STARTCHAR (for_rename)
ENCODING 933
SWIDTH 1024 0
DWIDTH 16 0
BBX 16 16 0 -2
BITMAP
0000
1c70
2288
2108
0100
0100
0100
0100
0100
0100
0100
0100
0100
07c0
0000
0000
ENDCHAR
STARTCHAR (for_rename)
ENCODING 934
SWIDTH 1024 0
DWIDTH 16 0
BBX 16 16 0 -2
BITMAP
0000
07c0
0100
07c0
1930
2108
2108
2108
2108
2108
1930
07c0
0100
07c0
0000
0000
ENDCHAR
STARTCHAR (for_rename)
ENCODING 935
SWIDTH 1024 0
DWIDTH 16 0
BBX 16 16 0 -2
BITMAP
0000
7c7c
1010
0820
0440
0280
0100
0100
0280
0440
0440
0820
1010
7c7c
0000
0000
ENDCHAR
STARTCHAR (for_rename)
ENCODING 936
SWIDTH 1024 0
DWIDTH 16 0
BBX 16 16 0 -2
BITMAP
0000
07c0
0100
2108
5114
1110
1110
1110
0920
07c0
0100
0100
0100
07c0
0000
0000
ENDCHAR
STARTCHAR (for_rename)
ENCODING 937
SWIDTH 1024 0
DWIDTH 16 0
BBX 16 16 0 -2
BITMAP
0000
07c0
0820
1010
1010
2008
2008
2008
1010
1010
0820
0440
2448
3c78
0000
0000
ENDCHAR
STARTCHAR (for_rename)
ENCODING 945
SWIDTH 1024 0
DWIDTH 16 0
BBX 16 16 0 -2
BITMAP
0000
0000
0000
0000
0000
0388
0448
0850
1060
1040
2040
20c0
2340
1c30
0000
0000
ENDCHAR
STARTCHAR (for_rename)
ENCODING 946
SWIDTH 1024 0
DWIDTH 16 0
BBX 16 16 0 -2
BITMAP
0000
01e0
0210
0210
0410
0420
0bc0
0840
0820
0820
0820
1440
1380
1000
1000
1000
ENDCHAR
STARTCHAR (for_rename)
ENCODING 947
SWIDTH 1024 0
DWIDTH 16 0
BBX 16 16 0 -2
BITMAP
0000
0000
0000
0000
0000
0c38
1240
0280
0100
0100
0200
0200
0200
0400
0400
0400
ENDCHAR
STARTCHAR (for_rename)
ENCODING 948
SWIDTH 1024 0
DWIDTH 16 0
BBX 16 16 0 -2
BITMAP
0000
01e0
0210
0108
0088
0180
0240
0420
0420
0820
0820
0840
0880
0700
0000
0000
ENDCHAR
STARTCHAR (for_rename)
ENCODING 949
SWIDTH 1024 0
DWIDTH 16 0
BBX 16 16 0 -2
BITMAP
0000
0000
0000
0000
0000
03e0
0410
0400
0200
03c0
0400
0800
0820
07c0
0000
0000
ENDCHAR
STARTCHAR (for_rename)
ENCODING 950
SWIDTH 1024 0
DWIDTH 16 0
BBX 16 16 0 -2
BITMAP
0000
0100
0200
0470
03c0
0100
0200
0400
0800
0800
1000
1000
0f00
0080
0040
0380
ENDCHAR
STARTCHAR (for_rename)
ENCODING 951
SWIDTH 1024 0
DWIDTH 16 0
BBX 16 16 0 -2
BITMAP
0000
0000
0000
0000
0000
08e0
1510
0210
0220
0420
0440
0840
0840
0080
0080
0080
ENDCHAR
STARTCHAR (for_rename)
ENCODING 952
SWIDTH 1024 0
DWIDTH 16 0
BBX 16 16 0 -2
BITMAP
0000
01c0
0220
0420
0420
0820
0fe0
0840
1040
1040
1080
1080
1100
0e00
0000
0000
ENDCHAR
STARTCHAR (for_rename)
ENCODING 953
SWIDTH 1024 0
DWIDTH 16 0
BBX 16 16 0 -2
BITMAP
0000
0000
0000
0000
0000
0080
0100
0100
0200
0200
0400
0400
0440
0380
0000
0000
ENDCHAR
STARTCHAR (for_rename)
ENCODING 954
SWIDTH 1024 0
DWIDTH 16 0
BBX 16 16 0 -2
BITMAP
0000
0000
0000
0000
0000
0470
0480
0500
0600
0900
0900
0900
1120
10c0
0000
0000
ENDCHAR
STARTCHAR (for_rename)
ENCODING 955
SWIDTH 1024 0
DWIDTH 16 0
BBX 16 16 0 -2
BITMAP
0000
0300
0080
0040
0040
0040
00c0
00c0
0140
0140
0240
0440
0840
1030
0000
0000
ENDCHAR
STARTCHAR (for_rename)
ENCODING 956
SWIDTH 1024 0
DWIDTH 16 0
BBX 16 16 0 -2
BITMAP
0000
0000
0000
0000
0000
0420
0420
0420
0840
0840
0840
08c0
1730
1000
2000
2000
ENDCHAR
STARTCHAR (for_rename)
ENCODING 957
SWIDTH 1024 0
DWIDTH 16 0
BBX 16 16 0 -2
BITMAP
0000
0000
0000
0000
0000
0810
0410
0420
0420
0440
0480
0900
0e00
0800
0000
0000
ENDCHAR
STARTCHAR (for_rename)
ENCODING 958
SWIDTH 1024 0
DWIDTH 16 0
BBX 16 16 0 -2
BITMAP
0000
01c0
0200
01f0
0200
0400
0400
0200
07e0
0800
1000
1000
0f00
0080
0040
0380
ENDCHAR
STARTCHAR (for_rename)
ENCODING 959
SWIDTH 1024 0
DWIDTH 16 0
BBX 16 16 0 -2
BITMAP
0000
0000
0000
0000
0000
01c0
0220
0420
0420
0820
0840
0840
0880
0700
0000
0000
ENDCHAR
STARTCHAR (for_rename)
ENCODING 960
SWIDTH 1024 0
DWIDTH 16 0
BBX 16 16 0 -2
BITMAP
0000
0000
0000
0000
0008
0ff0
1240
0240
0480
0480
0880
0900
1120
10c0
0000
0000
ENDCHAR
STARTCHAR (for_rename)
ENCODING 961
SWIDTH 1024 0
DWIDTH 16 0
BBX 16 16 0 -2
BITMAP
0000
0000
0000
0000
0000
01c0
0220
0420
0420
0820
0820
0c40
1380
1000
1000
1000
ENDCHAR
STARTCHAR (for_rename)
ENCODING 963
SWIDTH 1024 0
DWIDTH 16 0
BBX 16 16 0 -2
BITMAP
0000
0000
0000
0000
0008
03f0
0480
0840
0840
1040
1080
1080
1100
0e00
0000
0000
ENDCHAR
STARTCHAR (for_rename)
ENCODING 964
SWIDTH 1024 0
DWIDTH 16 0
BBX 16 16 0 -2
BITMAP
0000
0000
0000
0000
0010
1fe0
2080
0100
0200
0200
0400
0400
0440
0380
0000
0000
ENDCHAR
STARTCHAR (for_rename)
ENCODING 965
SWIDTH 1024 0
DWIDTH 16 0
BBX 16 16 0 -2
BITMAP
0000
0000
0000
0000
0000
0840
0820
0820
0820
0820
1040
1040
1080
0f00
0000
0000
ENDCHAR
STARTCHAR (for_rename)
ENCODING 966
SWIDTH 1024 0
DWIDTH 16 0
BBX 16 16 0 -2
BITMAP
0000
0040
0040
0080
0080
07c0
08a0
1110
1110
1110
1210
0a20
07c0
0200
0400
0400
ENDCHAR
STARTCHAR (for_rename)
ENCODING 967
SWIDTH 1024 0
DWIDTH 16 0
BBX 16 16 0 -2
BITMAP
0000
0000
0000
0000
0000
0c10
1220
0120
0140
0180
0100
0300
0500
0880
0890
1060
ENDCHAR
STARTCHAR (for_rename)
ENCODING 968
SWIDTH 1024 0
DWIDTH 16 0
BBX 16 16 0 -2
BITMAP
0000
0040
0040
0080
0080
10a0
0910
0910
0910
1110
1220
0a40
0780
0200
0400
0400
ENDCHAR
STARTCHAR (for_rename)
ENCODING 969
SWIDTH 1024 0
DWIDTH 16 0
BBX 16 16 0 -2
BITMAP
0000
0000
0000
0000
0000
0420
0810
1008
1008
2108
2308
2210
2620
19c0
0000
0000
ENDCHAR
STARTCHAR (for_rename)
ENCODING 1025
SWIDTH 1024 0
DWIDTH 16 0
BBX 16 16 0 -2
BITMAP
0440
0000
1ff0
0808
0800
0820
0820
0fe0
0820
0820
0800
0808
0810
1ff0
0000
0000
ENDCHAR
STARTCHAR (for_rename)
ENCODING 1040
SWIDTH 1024 0
DWIDTH 16 0
BBX 16 16 0 -2
BITMAP
0000
0100
0100
0280
0280
0440
0440
0440
0820
0fe0
0820
1010
1010
3838
0000
0000
ENDCHAR
STARTCHAR (for_rename)
ENCODING 1041
SWIDTH 1024 0
DWIDTH 16 0
BBX 16 16 0 -2
BITMAP
0000
1fe0
0820
0810
0800
0800
0800
0fc0
0820
0810
0810
0810
0820
1fc0
0000
0000
ENDCHAR
STARTCHAR (for_rename)
ENCODING 1042
SWIDTH 1024 0
DWIDTH 16 0
BBX 16 16 0 -2
BITMAP
0000
1fc0
0820
0810
0810
0810
0820
0fc0
0820
0810
0810
0810
0820
1fc0
0000
0000
ENDCHAR
STARTCHAR (for_rename)
ENCODING 1043
SWIDTH 1024 0
DWIDTH 16 0
BBX 16 16 0 -2
BITMAP
0000
1fe0
0820
0810
0800
0800
0800
0800
0800
0800
0800
0800
0800
1f00
0000
0000
ENDCHAR
STARTCHAR (for_rename)
ENCODING 1044
SWIDTH 1024 0
DWIDTH 16 0
BBX 16 16 0 -2
BITMAP
0000
0ff0
0420
0420
0420
0420
0420
0420
0420
0420
0420
0820
0820
3ff8
2008
2008
ENDCHAR
STARTCHAR (for_rename)
ENCODING 1045
SWIDTH 1024 0
DWIDTH 16 0
BBX 16 16 0 -2
BITMAP
0000
1ff0
0808
0800
0820
0820
0fe0
0820
0820
0800
0800
0808
0810
1ff0
0000
0000
ENDCHAR
STARTCHAR (for_rename)
ENCODING 1046
SWIDTH 1024 0
DWIDTH 16 0
BBX 16 16 0 -2
BITMAP
0000
2388
5114
1110
1110
1110
0920
07c0
0920
0920
1110
2108
2108
739c
0000
0000
ENDCHAR
STARTCHAR (for_rename)
ENCODING 1047
SWIDTH 1024 0
DWIDTH 16 0
BBX 16 16 0 -2
BITMAP
0000
07c0
0820
1010
0010
0010
0020
03c0
0020
0010
1010
1010
0820
0fc0
0000
0000
ENDCHAR
STARTCHAR (for_rename)
ENCODING 1048
SWIDTH 1024 0
DWIDTH 16 0
BBX 16 16 0 -2
BITMAP
0000
3838
1010
1030
1050
1090
1090
1110
1210
1210
1410
1810
1010
3838
0000
0000
ENDCHAR
STARTCHAR (for_rename)
ENCODING 1049
SWIDTH 1024 0
DWIDTH 16 0
BBX 16 16 0 -2
BITMAP
0440
0380
3838
1010
1030
1050
1090
1110
1110
1210
1410
1810
1010
3838
0000
0000
ENDCHAR
STARTCHAR (for_rename)
ENCODING 1050
SWIDTH 1024 0
DWIDTH 16 0
BBX 16 16 0 -2
BITMAP
0000
3830
1048
1040
1080
1100
1e00
1100
1080
1040
1040
1020
1010
3838
0000
0000
ENDCHAR
STARTCHAR (for_rename)
ENCODING 1051
SWIDTH 1024 0
DWIDTH 16 0
BBX 16 16 0 -2
BITMAP
0000
07f0
0220
0220
0220
0220
0220
0220
0220
0220
0420
0420
4820
3070
0000
0000
ENDCHAR
STARTCHAR (for_rename)
ENCODING 1052
SWIDTH 1024 0
DWIDTH 16 0
BBX 16 16 0 -2
BITMAP
0000
3838
1450
1450
1450
1290
1290
1290
2108
2108
2108
2008
2008
701c
0000
0000
ENDCHAR
STARTCHAR (for_rename)
ENCODING 1053
SWIDTH 1024 0
DWIDTH 16 0
BBX 16 16 0 -2
BITMAP
0000
3838
1010
1010
1010
1010
1ff0
1010
1010
1010
1010
1010
1010
3838
0000
0000
ENDCHAR
STARTCHAR (for_rename)
ENCODING 1054
SWIDTH 1024 0
DWIDTH 16 0
BBX 16 16 0 -2
BITMAP
0000
07c0
0820
1010
1010
2008
2008
2008
2008
2008
1010
1010
0820
07c0
0000
0000
ENDCHAR
STARTCHAR (for_rename)
ENCODING 1055
SWIDTH 1024 0
DWIDTH 16 0
BBX 16 16 0 -2
BITMAP
0000
3ff8
1010
1010
1010
1010
1010
1010
1010
1010
1010
1010
1010
3838
0000
0000
ENDCHAR
STARTCHAR (for_rename)
ENCODING 1056
SWIDTH 1024 0
DWIDTH 16 0
BBX 16 16 0 -2
BITMAP
0000
1fc0
0820
0810
0810
0810
0810
0820
0fc0
0800
0800
0800
0800
1f00
0000
0000
ENDCHAR
STARTCHAR (for_rename)
ENCODING 1057
SWIDTH 1024 0
DWIDTH 16 0
BBX 16 16 0 -2
BITMAP
0000
07d0
0830
1010
1000
2000
2000
2000
2000
2000
1010
1010
0830
07c0
0000
0000
ENDCHAR
STARTCHAR (for_rename)
ENCODING 1058
SWIDTH 1024 0
DWIDTH 16 0
BBX 16 16 0 -2
BITMAP
0000
1ff0
1110
2108
2108
0100
0100
0100
0100
0100
0100
0100
0100
07c0
0000
0000
ENDCHAR
STARTCHAR (for_rename)
ENCODING 1059
SWIDTH 1024 0
DWIDTH 16 0
BBX 16 16 0 -2
BITMAP
0000
3838
1010
1010
0820
0820
0440
0440
0280
0280
0100
0100
1200
0c00
0000
0000
ENDCHAR
STARTCHAR (for_rename)
ENCODING 1060
SWIDTH 1024 0
DWIDTH 16 0
BBX 16 16 0 -2
BITMAP
0000
0380
0100
07c0
1930
2108
2108
2108
2108
2108
1930
07c0
0100
0380
0000
0000
ENDCHAR
STARTCHAR (for_rename)
ENCODING 1061
SWIDTH 1024 0
DWIDTH 16 0
BBX 16 16 0 -2
BITMAP
0000
3838
1010
0820
0440
0280
0100
0100
0280
0440
0440
0820
1010
3838
0000
0000
ENDCHAR
STARTCHAR (for_rename)
ENCODING 1062
SWIDTH 1024 0
DWIDTH 16 0
BBX 16 16 0 -2
BITMAP
0000
3870
1020
1020
1020
1020
1020
1020
1020
1020
1020
1020
1020
3ff8
0008
0008
ENDCHAR
STARTCHAR (for_rename)
ENCODING 1063
SWIDTH 1024 0
DWIDTH 16 0
BBX 16 16 0 -2
BITMAP
0000
3870
1020
1020
1020
1020
1020
1020
0860
07a0
0020
0020
0020
01f0
0000
0000
ENDCHAR
STARTCHAR (for_rename)
ENCODING 1064
SWIDTH 1024 0
DWIDTH 16 0
BBX 16 16 0 -2
BITMAP
0000
739c
2108
2108
2108
2108
2108
2108
2108
2108
2108
2108
2108
7ffc
0000
0000
ENDCHAR
STARTCHAR (for_rename)
ENCODING 1065
SWIDTH 1024 0
DWIDTH 16 0
BBX 16 16 0 -2
BITMAP
0000
739c
2108
2108
2108
2108
2108
2108
2108
2108
2108
2108
2108
7ffe
0002
0002
ENDCHAR
STARTCHAR (for_rename)
ENCODING 1066
SWIDTH 1024 0
DWIDTH 16 0
BBX 16 16 0 -2
BITMAP
0000
3e00
2200
4200
0200
0200
03e0
0210
0208
0208
0208
0208
0210
07e0
0000
0000
ENDCHAR
STARTCHAR (for_rename)
ENCODING 1067
SWIDTH 1024 0
DWIDTH 16 0
BBX 16 16 0 -2
BITMAP
0000
701c
2008
2008
2008
2008
3e08
2108
2088
2088
2088
2088
2108
7e1c
0000
0000
ENDCHAR
STARTCHAR (for_rename)
ENCODING 1068
SWIDTH 1024 0
DWIDTH 16 0
BBX 16 16 0 -2
BITMAP
0000
1c00
0800
0800
0800
0800
0fc0
0820
0810
0810
0810
0810
0820
1fc0
0000
0000
ENDCHAR
STARTCHAR (for_rename)
ENCODING 1069
SWIDTH 1024 0
DWIDTH 16 0
BBX 16 16 0 -2
BITMAP
0000
17c0
1820
1010
0010
0008
0618
0928
00c8
0008
1010
1010
1820
07c0
0000
0000
ENDCHAR
STARTCHAR (for_rename)
ENCODING 1070
SWIDTH 1024 0
DWIDTH 16 0
BBX 16 16 0 -2
BITMAP
0000
71e0
2210
2408
2408
2408
3c08
2408
2408
2408
2408
2408
2210
71e0
0000
0000
ENDCHAR
STARTCHAR (for_rename)
ENCODING 1071
SWIDTH 1024 0
DWIDTH 16 0
BBX 16 16 0 -2
BITMAP
0000
07f0
0820
1020
1020
1020
0820
07e0
0420
0420
0820
0820
1020
2070
0000
0000
ENDCHAR
STARTCHAR (for_rename)
ENCODING 1072
SWIDTH 1024 0
DWIDTH 16 0
BBX 16 16 0 -2
BITMAP
0000
0000
0000
0000
0000
0780
0840
0040
03c0
0c40
1040
1040
10c0
0f20
0000
0000
ENDCHAR
STARTCHAR (for_rename)
ENCODING 1073
SWIDTH 1024 0
DWIDTH 16 0
BBX 16 16 0 -2
BITMAP
0000
0040
0780
0800
1000
1780
1840
1020
1020
1020
1020
1020
0840
0780
0000
0000
ENDCHAR
STARTCHAR (for_rename)
ENCODING 1074
SWIDTH 1024 0
DWIDTH 16 0
BBX 16 16 0 -2
BITMAP
0000
0000
0000
0000
0000
1fc0
0820
0820
0840
0fc0
0820
0820
0820
1fc0
0000
0000
ENDCHAR
STARTCHAR (for_rename)
ENCODING 1075
SWIDTH 1024 0
DWIDTH 16 0
BBX 16 16 0 -2
BITMAP
0000
0000
0000
0000
0000
1fe0
0820
0820
0800
0800
0800
0800
0800
1e00
0000
0000
ENDCHAR
STARTCHAR (for_rename)
ENCODING 1076
SWIDTH 1024 0
DWIDTH 16 0
BBX 16 16 0 -2
BITMAP
0000
0000
0000
0000
0000
07f0
0220
0220
0220
0220
0220
0420
0420
1ff0
1010
1010
ENDCHAR
STARTCHAR (for_rename)
ENCODING 1077
SWIDTH 1024 0
DWIDTH 16 0
BBX 16 16 0 -2
BITMAP
0000
0000
0000
0000
0000
0780
0840
1020
1020
1fe0
1000
1000
0820
07c0
0000
0000
ENDCHAR
STARTCHAR (for_rename)
ENCODING 1078
SWIDTH 1024 0
DWIDTH 16 0
BBX 16 16 0 -2
BITMAP
0000
0000
0000
0000
0000
1390
2928
0920
0920
07c0
0920
0920
1110
3bb8
0000
0000
ENDCHAR
STARTCHAR (for_rename)
ENCODING 1079
SWIDTH 1024 0
DWIDTH 16 0
BBX 16 16 0 -2
BITMAP
0000
0000
0000
0000
0000
0780
0840
1020
0040
0380
0040
1020
0820
07c0
0000
0000
ENDCHAR
STARTCHAR (for_rename)
ENCODING 1080
SWIDTH 1024 0
DWIDTH 16 0
BBX 16 16 0 -2
BITMAP
0000
0000
0000
0000
0000
1c70
0820
0860
08a0
0920
0a20
0c20
0820
1c70
0000
0000
ENDCHAR
STARTCHAR (for_rename)
ENCODING 1081
SWIDTH 1024 0
DWIDTH 16 0
BBX 16 16 0 -2
BITMAP
0000
0000
0440
0380
0000
1c70
0820
0860
08a0
0920
0a20
0c20
0820
1c70
0000
0000
ENDCHAR
STARTCHAR (for_rename)
ENCODING 1082
SWIDTH 1024 0
DWIDTH 16 0
BBX 16 16 0 -2
BITMAP
0000
0000
0000
0000
0000
1c20
0850
0880
0900
0f00
0880
0840
0820
1c70
0000
0000
ENDCHAR
STARTCHAR (for_rename)
ENCODING 1083
SWIDTH 1024 0
DWIDTH 16 0
BBX 16 16 0 -2
BITMAP
0000
0000
0000
0000
0000
07f0
0220
0220
0220
0220
0220
0220
2420
1870
0000
0000
ENDCHAR
STARTCHAR (for_rename)
ENCODING 1084
SWIDTH 1024 0
DWIDTH 16 0
BBX 16 16 0 -2
BITMAP
0000
0000
0000
0000
0000
3018
1830
1830
1450
1450
1290
1290
1110
3838
0000
0000
ENDCHAR
STARTCHAR (for_rename)
ENCODING 1085
SWIDTH 1024 0
DWIDTH 16 0
BBX 16 16 0 -2
BITMAP
0000
0000
0000
0000
0000
1c70
0820
0820
0fe0
0820
0820
0820
0820
1c70
0000
0000
ENDCHAR
STARTCHAR (for_rename)
ENCODING 1086
SWIDTH 1024 0
DWIDTH 16 0
BBX 16 16 0 -2
BITMAP
0000
0000
0000
0000
0000
0780
0840
1020
1020
1020
1020
1020
0840
0780
0000
0000
ENDCHAR
STARTCHAR (for_rename)
ENCODING 1087
SWIDTH 1024 0
DWIDTH 16 0
BBX 16 16 0 -2
BITMAP
0000
0000
0000
0000
0000
1ff0
0820
0820
0820
0820
0820
0820
0820
1c70
0000
0000
ENDCHAR
STARTCHAR (for_rename)
ENCODING 1088
SWIDTH 1024 0
DWIDTH 16 0
BBX 16 16 0 -2
BITMAP
0000
0000
0000
0000
0000
0380
1c40
0820
0820
0820
0820
0c40
0b80
0800
0800
1e00
ENDCHAR
STARTCHAR (for_rename)
ENCODING 1089
SWIDTH 1024 0
DWIDTH 16 0
BBX 16 16 0 -2
BITMAP
0000
0000
0000
0000
0000
0780
0860
1020
1000
1000
1000
1020
0840
07c0
0000
0000
ENDCHAR
STARTCHAR (for_rename)
ENCODING 1090
SWIDTH 1024 0
DWIDTH 16 0
BBX 16 16 0 -2
BITMAP
0000
0000
0000
0000
0000
1ff0
1110
1110
0100
0100
0100
0100
0100
0380
0000
0000
ENDCHAR
STARTCHAR (for_rename)
ENCODING 1091
SWIDTH 1024 0
DWIDTH 16 0
BBX 16 16 0 -2
BITMAP
0000
0000
0000
0000
0000
1c70
0820
0820
0440
0440
0280
0280
0100
0100
1200
0c00
ENDCHAR
STARTCHAR (for_rename)
ENCODING 1092
SWIDTH 1024 0
DWIDTH 16 0
BBX 16 16 0 -2
BITMAP
0000
0100
0300
0100
0100
0d60
1390
2108
2108
2108
2108
1390
0d60
0100
0100
0380
ENDCHAR
STARTCHAR (for_rename)
ENCODING 1093
SWIDTH 1024 0
DWIDTH 16 0
BBX 16 16 0 -2
BITMAP
0000
0000
0000
0000
0000
1c70
0820
0440
0280
0100
0280
0440
0820
1c70
0000
0000
ENDCHAR
STARTCHAR (for_rename)
ENCODING 1094
SWIDTH 1024 0
DWIDTH 16 0
BBX 16 16 0 -2
BITMAP
0000
0000
0000
0000
0000
1c70
0820
0820
0820
0820
0820
0820
0820
1ff8
0008
0008
ENDCHAR
STARTCHAR (for_rename)
ENCODING 1095
SWIDTH 1024 0
DWIDTH 16 0
BBX 16 16 0 -2
BITMAP
0000
0000
0000
0000
0000
1c70
0820
0820
0820
0860
07a0
0020
0020
00f0
0000
0000
ENDCHAR
STARTCHAR (for_rename)
ENCODING 1096
SWIDTH 1024 0
DWIDTH 16 0
BBX 16 16 0 -2
BITMAP
0000
0000
0000
0000
0000
3bb8
1110
1110
1110
1110
1110
1110
1110
3ff8
0000
0000
ENDCHAR
STARTCHAR (for_rename)
ENCODING 1097
SWIDTH 1024 0
DWIDTH 16 0
BBX 16 16 0 -2
BITMAP
0000
0000
0000
0000
0000
3bb8
1110
1110
1110
1110
1110
1110
1110
3ff8
0008
0008
ENDCHAR
STARTCHAR (for_rename)
ENCODING 1098
SWIDTH 1024 0
DWIDTH 16 0
BBX 16 16 0 -2
BITMAP
0000
0000
0000
0000
0000
3e00
2200
2200
03e0
0210
0210
0210
0210
07e0
0000
0000
ENDCHAR
STARTCHAR (for_rename)
ENCODING 1099
SWIDTH 1024 0
DWIDTH 16 0
BBX 16 16 0 -2
BITMAP
0000
0000
0000
0000
0000
3838
1010
1010
1f10
1090
1090
1090
1090
3f38
0000
0000
ENDCHAR
STARTCHAR (for_rename)
ENCODING 1100
SWIDTH 1024 0
DWIDTH 16 0
BBX 16 16 0 -2
BITMAP
0000
0000
0000
0000
0000
0e00
0400
0400
07c0
0420
0410
0410
0420
0fc0
0000
0000
ENDCHAR
STARTCHAR (for_rename)
ENCODING 1101
SWIDTH 1024 0
DWIDTH 16 0
BBX 16 16 0 -2
BITMAP
0000
0000
0000
0000
0000
0f80
1040
0020
0660
09a0
0020
0020
1040
0f80
0000
0000
ENDCHAR
STARTCHAR (for_rename)
ENCODING 1102
SWIDTH 1024 0
DWIDTH 16 0
BBX 16 16 0 -2
BITMAP
0000
0000
0000
0000
0000
39e0
1210
1210
1e10
1210
1210
1210
1210
39e0
0000
0000
ENDCHAR
STARTCHAR (for_rename)
ENCODING 1103
SWIDTH 1024 0
DWIDTH 16 0
BBX 16 16 0 -2
BITMAP
0000
0000
0000
0000
0000
07f0
0820
0820
0820
07e0
0220
0220
0420
1870
0000
0000
ENDCHAR
STARTCHAR (for_rename)
ENCODING 1105
SWIDTH 1024 0
DWIDTH 16 0
BBX 16 16 0 -2
BITMAP
0000
0000
0000
0840
0000
0780
0840
1020
1020
1fe0
1000
1000
0820
07c0
0000
0000
ENDCHAR
STARTCHAR (for_rename)
ENCODING 8208
SWIDTH 1024 0
DWIDTH 16 0
BBX 16 16 0 -2
BITMAP
0000
0000
0000
0000
0000
0000
0000
07c0
0000
0000
0000
0000
0000
0000
0000
0000
ENDCHAR
STARTCHAR (for_rename)
ENCODING 8212
SWIDTH 1024 0
DWIDTH 16 0
BBX 16 16 0 -2
BITMAP
0000
0000
0000
0000
0000
0000
0000
fffe
0000
0000
0000
0000
0000
0000
0000
0000
ENDCHAR
STARTCHAR (for_rename)
ENCODING 8213
SWIDTH 1024 0
DWIDTH 16 0
BBX 16 16 0 -2
BITMAP
0000
0000
0000
0000
0000
0000
0000
ffff
0000
0000
0000
0000
0000
0000
0000
0000
ENDCHAR
STARTCHAR (for_rename)
ENCODING 8214
SWIDTH 1024 0
DWIDTH 16 0
BBX 16 16 0 -2
BITMAP
0440
0440
0440
0440
0440
0440
0440
0440
0440
0440
0440
0440
0440
0440
0440
0440
ENDCHAR
STARTCHAR (for_rename)
ENCODING 8216
SWIDTH 1024 0
DWIDTH 16 0
BBX 16 16 0 -2
BITMAP
0004
0008
000c
000c
0000
0000
0000
0000
0000
0000
0000
0000
0000
0000
0000
0000
ENDCHAR
STARTCHAR (for_rename)
ENCODING 8217
SWIDTH 1024 0
DWIDTH 16 0
BBX 16 16 0 -2
BITMAP
6000
6000
2000
4000
0000
0000
0000
0000
0000
0000
0000
0000
0000
0000
0000
0000
ENDCHAR
STARTCHAR (for_rename)
ENCODING 8220
SWIDTH 1024 0
DWIDTH 16 0
BBX 16 16 0 -2
BITMAP
0024
0048
0048
006c
0000
0000
0000
0000
0000
0000
0000
0000
0000
0000
0000
0000
ENDCHAR
STARTCHAR (for_rename)
ENCODING 8221
SWIDTH 1024 0
DWIDTH 16 0
BBX 16 16 0 -2
BITMAP
6c00
2400
2400
4800
0000
0000
0000
0000
0000
0000
0000
0000
0000
0000
0000
0000
ENDCHAR
STARTCHAR (for_rename)
ENCODING 8224
SWIDTH 1024 0
DWIDTH 16 0
BBX 16 16 0 -2
BITMAP
0080
01c0
0490
0ff8
0490
0080
03e0
01c0
01c0
01c0
01c0
01c0
0080
0080
0080
0080
ENDCHAR
STARTCHAR (for_rename)
ENCODING 8225
SWIDTH 1024 0
DWIDTH 16 0
BBX 16 16 0 -2
BITMAP
0100
0380
0920
1ff0
0920
0380
0380
0100
0100
0380
0380
0920
1ff0
0920
0380
0100
ENDCHAR
STARTCHAR (for_rename)
ENCODING 8229
SWIDTH 1024 0
DWIDTH 16 0
BBX 16 16 0 -2
BITMAP
0000
0000
0000
0000
0000
0000
2008
701c
2008
0000
0000
0000
0000
0000
0000
0000
ENDCHAR
STARTCHAR (for_rename)
ENCODING 8230
SWIDTH 1024 0
DWIDTH 16 0
BBX 16 16 0 -2
BITMAP
0000
0000
0000
0000
0000
0000
4104
e38e
4104
0000
0000
0000
0000
0000
0000
0000
ENDCHAR
STARTCHAR (for_rename)
ENCODING 8240
SWIDTH 1024 0
DWIDTH 16 0
BBX 16 16 0 -2
BITMAP
0000
0008
1810
3420
2420
2440
2480
2d00
1a00
058c
075a
0a52
1252
22d6
418c
0000
ENDCHAR
STARTCHAR (for_rename)
ENCODING 8242
SWIDTH 1024 0
DWIDTH 16 0
BBX 16 16 0 -2
BITMAP
2000
6000
4000
4000
8000
0000
0000
0000
0000
0000
0000
0000
0000
0000
0000
0000
ENDCHAR
STARTCHAR (for_rename)
ENCODING 8243
SWIDTH 1024 0
DWIDTH 16 0
BBX 16 16 0 -2
BITMAP
2400
6c00
4800
4800
9000
0000
0000
0000
0000
0000
0000
0000
0000
0000
0000
0000
ENDCHAR
STARTCHAR (for_rename)
ENCODING 8251
SWIDTH 1024 0
DWIDTH 16 0
BBX 16 16 0 -2
BITMAP
0000
4384
2388
1390
0820
0440
729c
711c
729c
0440
0820
1390
2388
4384
0000
0000
ENDCHAR
STARTCHAR (for_rename)
ENCODING 8254
SWIDTH 512 0
DWIDTH 8 0
BBX 8 16 0 -2
BITMAP
ff
00
00
00
00
00
00
00
00
00
00
00
00
00
00
00
ENDCHAR
STARTCHAR (for_rename)
ENCODING 8451
SWIDTH 1024 0
DWIDTH 16 0
BBX 16 16 0 -2
BITMAP
0000
3000
49e0
4a10
3408
0408
0800
0800
0800
0800
0408
0408
0210
01e0
0000
0000
ENDCHAR
STARTCHAR (for_rename)
ENCODING 8491
SWIDTH 1024 0
DWIDTH 16 0
BBX 16 16 0 -2
BITMAP
00c0
0120
0120
00c0
0080
0080
0140
0140
0220
0220
03e0
0410
0410
0e38
0000
0000
ENDCHAR
STARTCHAR (for_rename)
ENCODING 8592
SWIDTH 1024 0
DWIDTH 16 0
BBX 16 16 0 -2
BITMAP
0000
0000
0000
0000
1000
2000
4000
fffe
4000
2000
1000
0000
0000
0000
0000
0000
ENDCHAR
STARTCHAR (for_rename)
ENCODING 8593
SWIDTH 1024 0
DWIDTH 16 0
BBX 16 16 0 -2
BITMAP
0100
0380
0540
0920
0100
0100
0100
0100
0100
0100
0100
0100
0100
0100
0100
0100
ENDCHAR
STARTCHAR (for_rename)
ENCODING 8594
SWIDTH 1024 0
DWIDTH 16 0
BBX 16 16 0 -2
BITMAP
0000
0000
0000
0000
0010
0008
0004
fffe
0004
0008
0010
0000
0000
0000
0000
0000
ENDCHAR
STARTCHAR (for_rename)
ENCODING 8595
SWIDTH 1024 0
DWIDTH 16 0
BBX 16 16 0 -2
BITMAP
0100
0100
0100
0100
0100
0100
0100
0100
0100
0100
0100
0100
0920
0540
0380
0100
ENDCHAR
STARTCHAR (for_rename)
ENCODING 8658
SWIDTH 1024 0
DWIDTH 16 0
BBX 16 16 0 -2
BITMAP
0000
0000
0000
0010
0008
fffc
0002
0001
0002
fffc
0008
0010
0000
0000
0000
0000
ENDCHAR
STARTCHAR (for_rename)
ENCODING 8660
SWIDTH 1024 0
DWIDTH 16 0
BBX 16 16 0 -2
BITMAP
0000
0000
0000
0810
1008
3ffc
4002
8001
4002
3ffc
1008
0810
0000
0000
0000
0000
ENDCHAR
STARTCHAR (for_rename)
ENCODING 8704
SWIDTH 1024 0
DWIDTH 16 0
BBX 16 16 0 -2
BITMAP
0000
2002
2002
1004
1004
0ff8
0808
0410
0410
0220
0220
0140
0140
0080
0080
0000
ENDCHAR
STARTCHAR (for_rename)
ENCODING 8706
SWIDTH 1024 0
DWIDTH 16 0
BBX 16 16 0 -2
BITMAP
0000
00c0
0320
0410
0010
0010
03b0
0460
0c60
0860
1840
18c0
0980
0600
0000
0000
ENDCHAR
STARTCHAR (for_rename)
ENCODING 8707
SWIDTH 1024 0
DWIDTH 16 0
BBX 16 16 0 -2
BITMAP
0000
0000
1ff0
0010
0010
0010
0010
1ff0
0010
0010
0010
0010
1ff0
0000
0000
0000
ENDCHAR
STARTCHAR (for_rename)
ENCODING 8711
SWIDTH 1024 0
DWIDTH 16 0
BBX 16 16 0 -2
BITMAP
0000
7ffe
2004
3004
1008
1808
0810
0c10
0420
0620
0240
0340
0180
0080
0000
0000
ENDCHAR
STARTCHAR (for_rename)
ENCODING 8712
SWIDTH 1024 0
DWIDTH 16 0
BBX 16 16 0 -2
BITMAP
0000
0000
0000
07f8
0800
1000
1000
1ff8
1000
1000
0800
07f8
0000
0000
0000
0000
ENDCHAR
STARTCHAR (for_rename)
ENCODING 8715
SWIDTH 1024 0
DWIDTH 16 0
BBX 16 16 0 -2
BITMAP
0000
0000
0000
1fe0
0010
0008
0008
1ff8
0008
0008
0010
1fe0
0000
0000
0000
0000
ENDCHAR
STARTCHAR (for_rename)
ENCODING 8722
SWIDTH 1024 0
DWIDTH 16 0
BBX 16 16 0 -2
BITMAP
0000
0000
0000
0000
0000
0000
0000
3ff8
0000
0000
0000
0000
0000
0000
0000
0000
ENDCHAR
STARTCHAR (for_rename)
ENCODING 8730
SWIDTH 1024 0
DWIDTH 16 0
BBX 16 16 0 -2
BITMAP
00ff
0080
0080
0100
0100
0100
0100
0200
0200
2200
2200
3400
5400
5c00
0800
0800
ENDCHAR
STARTCHAR (for_rename)
ENCODING 8733
SWIDTH 1024 0
DWIDTH 16 0
BBX 16 16 0 -2
BITMAP
0000
0000
0000
0000
1c38
2244
4180
4180
4180
4180
2244
1c38
0000
0000
0000
0000
ENDCHAR
STARTCHAR (for_rename)
ENCODING 8734
SWIDTH 1024 0
DWIDTH 16 0
BBX 16 16 0 -2
BITMAP
0000
0000
0000
0000
1830
2448
4284
4104
4284
2448
1830
0000
0000
0000
0000
0000
ENDCHAR
STARTCHAR (for_rename)
ENCODING 8736
SWIDTH 1024 0
DWIDTH 16 0
BBX 16 16 0 -2
BITMAP
0000
0000
0008
0010
0020
0040
0080
0100
0200
0400
0800
1000
3ffc
0000
0000
0000
ENDCHAR
STARTCHAR (for_rename)
ENCODING 8741
SWIDTH 1024 0
DWIDTH 16 0
BBX 16 16 0 -2
BITMAP
0440
0440
0440
0440
0440
0440
0440
0440
0440
0440
0440
0440
0440
0440
0440
0440
ENDCHAR
STARTCHAR (for_rename)
ENCODING 8743
SWIDTH 1024 0
DWIDTH 16 0
BBX 16 16 0 -2
BITMAP
0000
0000
0080
0080
0140
0140
0220
0220
0410
0410
0808
0808
1004
1004
0000
0000
ENDCHAR
STARTCHAR (for_rename)
ENCODING 8744
SWIDTH 1024 0
DWIDTH 16 0
BBX 16 16 0 -2
BITMAP
0000
0000
1004
1004
0808
0808
0410
0410
0220
0220
0140
0140
0080
0080
0000
0000
ENDCHAR
STARTCHAR (for_rename)
ENCODING 8745
SWIDTH 1024 0
DWIDTH 16 0
BBX 16 16 0 -2
BITMAP
0000
0000
03c0
0420
0810
0810
1008
1008
1008
1008
1008
1008
1008
1008
0000
0000
ENDCHAR
STARTCHAR (for_rename)
ENCODING 8746
SWIDTH 1024 0
DWIDTH 16 0
BBX 16 16 0 -2
BITMAP
0000
0000
1008
1008
1008
1008
1008
1008
1008
1008
0810
0810
0420
03c0
0000
0000
ENDCHAR
STARTCHAR (for_rename)
ENCODING 8747
SWIDTH 1024 0
DWIDTH 16 0
BBX 16 16 0 -2
BITMAP
01c0
0240
0200
0200
0300
0300
0100
0180
0180
0080
00c0
00c0
0040
0040
0240
0380
ENDCHAR
STARTCHAR (for_rename)
ENCODING 8748
SWIDTH 1024 0
DWIDTH 16 0
BBX 16 16 0 -2
BITMAP
0e38
1248
1040
1040
1860
1860
0820
0c30
0c30
0410
0618
0618
0208
0208
1248
1c70
ENDCHAR
STARTCHAR (for_rename)
ENCODING 8756
SWIDTH 1024 0
DWIDTH 16 0
BBX 16 16 0 -2
BITMAP
0000
0000
0000
0100
0380
0100
0000
0000
0000
0000
1010
3838
1010
0000
0000
0000
ENDCHAR
STARTCHAR (for_rename)
ENCODING 8757
SWIDTH 1024 0
DWIDTH 16 0
BBX 16 16 0 -2
BITMAP
0000
0000
0000
300c
300c
0000
0000
0000
0000
0000
0000
0180
0180
0000
0000
0000
ENDCHAR
STARTCHAR (for_rename)
ENCODING 8765
SWIDTH 1024 0
DWIDTH 16 0
BBX 16 16 0 -2
BITMAP
0000
0000
0000
0000
1c38
2044
4082
4082
4102
4102
2204
1c38
0000
0000
0000
0000
ENDCHAR
STARTCHAR (for_rename)
ENCODING 8786
SWIDTH 1024 0
DWIDTH 16 0
BBX 16 16 0 -2
BITMAP
0000
0000
1800
1800
0000
3ffc
0000
0000
0000
3ffc
0000
0018
0018
0000
0000
0000
ENDCHAR
STARTCHAR (for_rename)
ENCODING 8800
SWIDTH 1024 0
DWIDTH 16 0
BBX 16 16 0 -2
BITMAP
0000
0000
0020
0040
0040
0080
3ff8
0100
0100
3ff8
0200
0400
0400
0800
0000
0000
ENDCHAR
STARTCHAR (for_rename)
ENCODING 8801
SWIDTH 1024 0
DWIDTH 16 0
BBX 16 16 0 -2
BITMAP
0000
0000
0000
3ffc
0000
0000
0000
3ffc
0000
0000
0000
3ffc
0000
0000
0000
0000
ENDCHAR
STARTCHAR (for_rename)
ENCODING 8806
SWIDTH 1024 0
DWIDTH 16 0
BBX 16 16 0 -2
BITMAP
0000
0018
00e0
0300
0c00
3000
0c00
0300
00e0
0018
0000
3ff8
0000
3ff8
0000
0000
ENDCHAR
STARTCHAR (for_rename)
ENCODING 8807
SWIDTH 1024 0
DWIDTH 16 0
BBX 16 16 0 -2
BITMAP
0000
3000
0e00
0180
0060
0018
0060
0180
0e00
3000
0000
3ff8
0000
3ff8
0000
0000
ENDCHAR
STARTCHAR (for_rename)
ENCODING 8810
SWIDTH 1024 0
DWIDTH 16 0
BBX 16 16 0 -2
BITMAP
0000
0088
0110
0220
0440
0880
1100
2200
1100
0880
0440
0220
0110
0088
0044
0000
ENDCHAR
STARTCHAR (for_rename)
ENCODING 8811
SWIDTH 1024 0
DWIDTH 16 0
BBX 16 16 0 -2
BITMAP
0000
1100
0880
0440
0220
0110
0088
0044
0088
0110
0220
0440
0880
1100
2200
0000
ENDCHAR
STARTCHAR (for_rename)
ENCODING 8834
SWIDTH 1024 0
DWIDTH 16 0
BBX 16 16 0 -2
BITMAP
0000
0000
0000
03fc
0c00
1000
2000
2000
2000
2000
1000
0c00
03fc
0000
0000
0000
ENDCHAR
STARTCHAR (for_rename)
ENCODING 8835
SWIDTH 1024 0
DWIDTH 16 0
BBX 16 16 0 -2
BITMAP
0000
0000
0000
3fc0
0030
0008
0004
0004
0004
0004
0008
0030
3fc0
0000
0000
0000
ENDCHAR
STARTCHAR (for_rename)
ENCODING 8838
SWIDTH 1024 0
DWIDTH 16 0
BBX 16 16 0 -2
BITMAP
0000
0000
0ffc
1000
2000
2000
2000
2000
1000
0ffc
0000
0000
3ffc
0000
0000
0000
ENDCHAR
STARTCHAR (for_rename)
ENCODING 8839
SWIDTH 1024 0
DWIDTH 16 0
BBX 16 16 0 -2
BITMAP
0000
0000
3ff0
0008
0004
0004
0004
0004
0008
3ff0
0000
0000
3ffc
0000
0000
0000
ENDCHAR
STARTCHAR (for_rename)
ENCODING 8869
SWIDTH 1024 0
DWIDTH 16 0
BBX 16 16 0 -2
BITMAP
0000
0000
0100
0100
0100
0100
0100
0100
0100
0100
0100
0100
3ffc
0000
0000
0000
ENDCHAR
STARTCHAR (for_rename)
ENCODING 8978
SWIDTH 1024 0
DWIDTH 16 0
BBX 16 16 0 -2
BITMAP
07e0
381c
4002
0000
0000
0000
0000
0000
0000
0000
0000
0000
0000
0000
0000
0000
ENDCHAR
STARTCHAR (for_rename)
ENCODING 9472
SWIDTH 1024 0
DWIDTH 16 0
BBX 16 16 0 -2
BITMAP
0000
0000
0000
0000
0000
0000
0000
ffff
0000
0000
0000
0000
0000
0000
0000
0000
ENDCHAR
STARTCHAR (for_rename)
ENCODING 9473
SWIDTH 1024 0
DWIDTH 16 0
BBX 16 16 0 -2
BITMAP
0000
0000
0000
0000
0000
0000
0000
ffff
ffff
0000
0000
0000
0000
0000
0000
0000
ENDCHAR
STARTCHAR (for_rename)
ENCODING 9474
SWIDTH 1024 0
DWIDTH 16 0
BBX 16 16 0 -2
BITMAP
0100
0100
0100
0100
0100
0100
0100
0100
0100
0100
0100
0100
0100
0100
0100
0100
ENDCHAR
STARTCHAR (for_rename)
ENCODING 9475
SWIDTH 1024 0
DWIDTH 16 0
BBX 16 16 0 -2
BITMAP
0180
0180
0180
0180
0180
0180
0180
0180
0180
0180
0180
0180
0180
0180
0180
0180
ENDCHAR
STARTCHAR (for_rename)
ENCODING 9484
SWIDTH 1024 0
DWIDTH 16 0
BBX 16 16 0 -2
BITMAP
0000
0000
0000
0000
0000
0000
0000
01ff
0100
0100
0100
0100
0100
0100
0100
0100
ENDCHAR
STARTCHAR (for_rename)
ENCODING 9487
SWIDTH 1024 0
DWIDTH 16 0
BBX 16 16 0 -2
BITMAP
0000
0000
0000
0000
0000
0000
0000
01ff
01ff
0180
0180
0180
0180
0180
0180
0180
ENDCHAR
STARTCHAR (for_rename)
ENCODING 9488
SWIDTH 1024 0
DWIDTH 16 0
BBX 16 16 0 -2
BITMAP
0000
0000
0000
0000
0000
0000
0000
ff00
0100
0100
0100
0100
0100
0100
0100
0100
ENDCHAR
STARTCHAR (for_rename)
ENCODING 9491
SWIDTH 1024 0
DWIDTH 16 0
BBX 16 16 0 -2
BITMAP
0000
0000
0000
0000
0000
0000
0000
ff80
ff80
0180
0180
0180
0180
0180
0180
0180
ENDCHAR
STARTCHAR (for_rename)
ENCODING 9492
SWIDTH 1024 0
DWIDTH 16 0
BBX 16 16 0 -2
BITMAP
0100
0100
0100
0100
0100
0100
0100
01ff
0000
0000
0000
0000
0000
0000
0000
0000
ENDCHAR
STARTCHAR (for_rename)
ENCODING 9495
SWIDTH 1024 0
DWIDTH 16 0
BBX 16 16 0 -2
BITMAP
0180
0180
0180
0180
0180
0180
0180
01ff
01ff
0000
0000
0000
0000
0000
0000
0000
ENDCHAR
STARTCHAR (for_rename)
ENCODING 9496
SWIDTH 1024 0
DWIDTH 16 0
BBX 16 16 0 -2
BITMAP
0100
0100
0100
0100
0100
0100
0100
ff00
0000
0000
0000
0000
0000
0000
0000
0000
ENDCHAR
STARTCHAR (for_rename)
ENCODING 9499
SWIDTH 1024 0
DWIDTH 16 0
BBX 16 16 0 -2
BITMAP
0180
0180
0180
0180
0180
0180
0180
ff80
ff80
0000
0000
0000
0000
0000
0000
0000
ENDCHAR
STARTCHAR (for_rename)
ENCODING 9500
SWIDTH 1024 0
DWIDTH 16 0
BBX 16 16 0 -2
BITMAP
0100
0100
0100
0100
0100
0100
0100
01ff
0100
0100
0100
0100
0100
0100
0100
0100
ENDCHAR
STARTCHAR (for_rename)
ENCODING 9501
SWIDTH 1024 0
DWIDTH 16 0
BBX 16 16 0 -2
BITMAP
0100
0100
0100
0100
0100
0100
0100
01ff
01ff
0100
0100
0100
0100
0100
0100
0100
ENDCHAR
STARTCHAR (for_rename)
ENCODING 9504
SWIDTH 1024 0
DWIDTH 16 0
BBX 16 16 0 -2
BITMAP
0180
0180
0180
0180
0180
0180
0180
01ff
0180
0180
0180
0180
0180
0180
0180
0180
ENDCHAR
STARTCHAR (for_rename)
ENCODING 9507
SWIDTH 1024 0
DWIDTH 16 0
BBX 16 16 0 -2
BITMAP
0180
0180
0180
0180
0180
0180
0180
01ff
01ff
0180
0180
0180
0180
0180
0180
0180
ENDCHAR
STARTCHAR (for_rename)
ENCODING 9508
SWIDTH 1024 0
DWIDTH 16 0
BBX 16 16 0 -2
BITMAP
0100
0100
0100
0100
0100
0100
0100
ff00
0100
0100
0100
0100
0100
0100
0100
0100
ENDCHAR
STARTCHAR (for_rename)
ENCODING 9509
SWIDTH 1024 0
DWIDTH 16 0
BBX 16 16 0 -2
BITMAP
0100
0100
0100
0100
0100
0100
0100
ff00
ff00
0100
0100
0100
0100
0100
0100
0100
ENDCHAR
STARTCHAR (for_rename)
ENCODING 9512
SWIDTH 1024 0
DWIDTH 16 0
BBX 16 16 0 -2
BITMAP
0180
0180
0180
0180
0180
0180
0180
ff80
0180
0180
0180
0180
0180
0180
0180
0180
ENDCHAR
STARTCHAR (for_rename)
ENCODING 9515
SWIDTH 1024 0
DWIDTH 16 0
BBX 16 16 0 -2
BITMAP
0180
0180
0180
0180
0180
0180
0180
ff80
ff80
0180
0180
0180
0180
0180
0180
0180
ENDCHAR
STARTCHAR (for_rename)
ENCODING 9516
SWIDTH 1024 0
DWIDTH 16 0
BBX 16 16 0 -2
BITMAP
0000
0000
0000
0000
0000
0000
0000
ffff
0100
0100
0100
0100
0100
0100
0100
0100
ENDCHAR
STARTCHAR (for_rename)
ENCODING 9519
SWIDTH 1024 0
DWIDTH 16 0
BBX 16 16 0 -2
BITMAP
0000
0000
0000
0000
0000
0000
0000
ffff
ffff
0100
0100
0100
0100
0100
0100
0100
ENDCHAR
STARTCHAR (for_rename)
ENCODING 9520
SWIDTH 1024 0
DWIDTH 16 0
BBX 16 16 0 -2
BITMAP
0000
0000
0000
0000
0000
0000
0000
ffff
0180
0180
0180
0180
0180
0180
0180
0180
ENDCHAR
STARTCHAR (for_rename)
ENCODING 9523
SWIDTH 1024 0
DWIDTH 16 0
BBX 16 16 0 -2
BITMAP
0000
0000
0000
0000
0000
0000
0000
ffff
ffff
0180
0180
0180
0180
0180
0180
0180
ENDCHAR
STARTCHAR (for_rename)
ENCODING 9524
SWIDTH 1024 0
DWIDTH 16 0
BBX 16 16 0 -2
BITMAP
0100
0100
0100
0100
0100
0100
0100
ffff
0000
0000
0000
0000
0000
0000
0000
0000
ENDCHAR
STARTCHAR (for_rename)
ENCODING 9527
SWIDTH 1024 0
DWIDTH 16 0
BBX 16 16 0 -2
BITMAP
0100
0100
0100
0100
0100
0100
0100
ffff
ffff
0000
0000
0000
0000
0000
0000
0000
ENDCHAR
STARTCHAR (for_rename)
ENCODING 9528
SWIDTH 1024 0
DWIDTH 16 0
BBX 16 16 0 -2
BITMAP
0180
0180
0180
0180
0180
0180
0180
ffff
0000
0000
0000
0000
0000
0000
0000
0000
ENDCHAR
STARTCHAR (for_rename)
ENCODING 9531
SWIDTH 1024 0
DWIDTH 16 0
BBX 16 16 0 -2
BITMAP
0180
0180
0180
0180
0180
0180
0180
ffff
ffff
0000
0000
0000
0000
0000
0000
0000
ENDCHAR
STARTCHAR (for_rename)
ENCODING 9532
SWIDTH 1024 0
DWIDTH 16 0
BBX 16 16 0 -2
BITMAP
0100
0100
0100
0100
0100
0100
0100
ffff
0100
0100
0100
0100
0100
0100
0100
0100
ENDCHAR
STARTCHAR (for_rename)
ENCODING 9535
SWIDTH 1024 0
DWIDTH 16 0
BBX 16 16 0 -2
BITMAP
0100
0100
0100
0100
0100
0100
0100
ffff
ffff
0100
0100
0100
0100
0100
0100
0100
ENDCHAR
STARTCHAR (for_rename)
ENCODING 9538
SWIDTH 1024 0
DWIDTH 16 0
BBX 16 16 0 -2
BITMAP
0180
0180
0180
0180
0180
0180
0180
ffff
0180
0180
0180
0180
0180
0180
0180
0180
ENDCHAR
STARTCHAR (for_rename)
ENCODING 9547
SWIDTH 1024 0
DWIDTH 16 0
BBX 16 16 0 -2
BITMAP
0180
0180
0180
0180
0180
0180
0180
ffff
ffff
0180
0180
0180
0180
0180
0180
0180
ENDCHAR
STARTCHAR (for_rename)
ENCODING 9632
SWIDTH 1024 0
DWIDTH 16 0
BBX 16 16 0 -2
BITMAP
fffe
fffe
fffe
fffe
fffe
fffe
fffe
fffe
fffe
fffe
fffe
fffe
fffe
fffe
fffe
fffe
ENDCHAR
STARTCHAR (for_rename)
ENCODING 9633
SWIDTH 1024 0
DWIDTH 16 0
BBX 16 16 0 -2
BITMAP
fffe
8002
8002
8002
8002
8002
8002
8002
8002
8002
8002
8002
8002
8002
8002
fffe
ENDCHAR
STARTCHAR (for_rename)
ENCODING 9650
SWIDTH 1024 0
DWIDTH 16 0
BBX 16 16 0 -2
BITMAP
0100
0100
0380
0380
07c0
07c0
0fe0
0fe0
1ff0
1ff0
3ff8
3ff8
7ffc
7ffc
fffe
0000
ENDCHAR
STARTCHAR (for_rename)
ENCODING 9651
SWIDTH 1024 0
DWIDTH 16 0
BBX 16 16 0 -2
BITMAP
0100
0100
0280
0280
0440
0440
0820
0820
1010
1010
2008
2008
4004
4004
fffe
0000
ENDCHAR
STARTCHAR (for_rename)
ENCODING 9660
SWIDTH 1024 0
DWIDTH 16 0
BBX 16 16 0 -2
BITMAP
0000
fffe
7ffc
7ffc
3ff8
3ff8
1ff0
1ff0
0fe0
0fe0
07c0
07c0
0380
0380
0100
0100
ENDCHAR
STARTCHAR (for_rename)
ENCODING 9661
SWIDTH 1024 0
DWIDTH 16 0
BBX 16 16 0 -2
BITMAP
0000
fffe
4004
4004
2008
2008
1010
1010
0820
0820
0440
0440
0280
0280
0100
0100
ENDCHAR
STARTCHAR (for_rename)
ENCODING 9670
SWIDTH 1024 0
DWIDTH 16 0
BBX 16 16 0 -2
BITMAP
0100
0380
07c0
0fe0
1ff0
3ff8
7ffc
fffe
fffe
7ffc
3ff8
1ff0
0fe0
07c0
0380
0100
ENDCHAR
STARTCHAR (for_rename)
ENCODING 9671
SWIDTH 1024 0
DWIDTH 16 0
BBX 16 16 0 -2
BITMAP
0100
0280
0440
0820
1010
2008
4004
8002
4004
2008
1010
0820
0440
0280
0100
0000
ENDCHAR
STARTCHAR (for_rename)
ENCODING 9675
SWIDTH 1024 0
DWIDTH 16 0
BBX 16 16 0 -2
BITMAP
07c0
1830
2008
4004
4004
8002
8002
8002
8002
8002
8002
4004
4004
2008
1830
07c0
ENDCHAR
STARTCHAR (for_rename)
ENCODING 9678
SWIDTH 1024 0
DWIDTH 16 0
BBX 16 16 0 -2
BITMAP
07c0
1830
2008
4004
47c4
8822
9012
9012
9012
9012
8822
47c4
4004
2008
1830
07c0
ENDCHAR
STARTCHAR (for_rename)
ENCODING 9679
SWIDTH 1024 0
DWIDTH 16 0
BBX 16 16 0 -2
BITMAP
07c0
1ff0
3ff8
7ffc
7ffc
fffe
fffe
fffe
fffe
fffe
fffe
7ffc
7ffc
3ff8
1ff0
07c0
ENDCHAR
STARTCHAR (for_rename)
ENCODING 9711
SWIDTH 1024 0
DWIDTH 16 0
BBX 16 16 0 -2
BITMAP
03c0
0c30
1008
2004
4002
4002
8001
8001
8001
8001
4002
4002
2004
1008
0c30
03c0
ENDCHAR
STARTCHAR (for_rename)
ENCODING 9733
SWIDTH 1024 0
DWIDTH 16 0
BBX 16 16 0 -2
BITMAP
0100
0100
0100
0380
0380
07c0
fffe
7ffc
1ff0
07c0
0fe0
0fe0
1ef0
1c70
1830
2008
ENDCHAR
STARTCHAR (for_rename)
ENCODING 9734
SWIDTH 1024 0
DWIDTH 16 0
BBX 16 16 0 -2
BITMAP
0100
0100
0100
0280
0280
0440
f83e
600c
1830
0440
0820
0920
1290
1450
1830
2008
ENDCHAR
STARTCHAR (for_rename)
ENCODING 9792
SWIDTH 1024 0
DWIDTH 16 0
BBX 16 16 0 -2
BITMAP
0380
0440
0820
0820
0820
0440
0380
0100
0100
3ff8
0100
0100
0100
0100
0100
0000
ENDCHAR
STARTCHAR (for_rename)
ENCODING 9794
SWIDTH 1024 0
DWIDTH 16 0
BBX 16 16 0 -2
BITMAP
0000
00fc
000c
0014
0024
0044
0084
0100
3a00
4400
8200
8200
8200
4400
3800
0000
ENDCHAR
STARTCHAR (for_rename)
ENCODING 9834
SWIDTH 1024 0
DWIDTH 16 0
BBX 16 16 0 -2
BITMAP
0080
0080
00c0
00e0
00b0
0098
008c
0084
0084
0088
0090
0080
0f80
1f80
1f00
0e00
ENDCHAR
STARTCHAR (for_rename)
ENCODING 9837
SWIDTH 1024 0
DWIDTH 16 0
BBX 16 16 0 -2
BITMAP
0400
0400
0400
0400
0400
0400
0400
05e0
0630
0430
0430
0460
04c0
0500
0600
0400
ENDCHAR
STARTCHAR (for_rename)
ENCODING 9839
SWIDTH 1024 0
DWIDTH 16 0
BBX 16 16 0 -2
BITMAP
0020
0420
0420
043c
07fc
3fe0
3c20
0420
0420
043c
07fc
3fe0
3c20
0420
0420
0400
ENDCHAR
STARTCHAR (for_rename)
ENCODING 12288
SWIDTH 1024 0
DWIDTH 16 0
BBX 16 16 0 -2
BITMAP
0000
0000
0000
0000
0000
0000
0000
0000
0000
0000
0000
0000
0000
0000
0000
0000
ENDCHAR
STARTCHAR (for_rename)
ENCODING 12289
SWIDTH 1024 0
DWIDTH 16 0
BBX 16 16 0 -2
BITMAP
0000
0000
0000
0000
0000
0000
0000
0000
0000
0000
0000
8000
4000
6000
3000
3000
ENDCHAR
STARTCHAR (for_rename)
ENCODING 12290
SWIDTH 1024 0
DWIDTH 16 0
BBX 16 16 0 -2
BITMAP
0000
0000
0000
0000
0000
0000
0000
0000
0000
0000
0000
7000
8800
8800
8800
7000
ENDCHAR
STARTCHAR (for_rename)
ENCODING 12291
SWIDTH 1024 0
DWIDTH 16 0
BBX 16 16 0 -2
BITMAP
0000
0000
0000
0000
0220
0660
0440
0880
0880
1100
0000
0000
0000
0000
0000
0000
ENDCHAR
STARTCHAR (for_rename)
ENCODING 12293
SWIDTH 1024 0
DWIDTH 16 0
BBX 16 16 0 -2
BITMAP
0000
0200
0200
0200
07f8
0408
0808
0808
1010
2010
4020
8640
0180
0040
0020
0010
ENDCHAR
STARTCHAR (for_rename)
ENCODING 12294
SWIDTH 1024 0
DWIDTH 16 0
BBX 16 16 0 -2
BITMAP
0000
0010
0008
0010
0020
0440
0a80
1100
1280
2400
2800
4800
5000
6000
4000
0000
ENDCHAR
STARTCHAR (for_rename)
ENCODING 12295
SWIDTH 1024 0
DWIDTH 16 0
BBX 16 16 0 -2
BITMAP
0000
0000
07c0
1830
2008
4004
8002
8002
8002
8002
4004
2008
1830
07c0
0000
0000
ENDCHAR
STARTCHAR (for_rename)
ENCODING 12296
SWIDTH 1024 0
DWIDTH 16 0
BBX 16 16 0 -2
BITMAP
0004
0004
0008
0008
0010
0020
0020
0040
0040
0020
0020
0010
0008
0008
0004
0004
ENDCHAR
STARTCHAR (for_rename)
ENCODING 12297
SWIDTH 1024 0
DWIDTH 16 0
BBX 16 16 0 -2
BITMAP
4000
4000
2000
2000
1000
0800
0800
0400
0400
0800
0800
1000
2000
2000
4000
4000
ENDCHAR
STARTCHAR (for_rename)
ENCODING 12298
SWIDTH 1024 0
DWIDTH 16 0
BBX 16 16 0 -2
BITMAP
0024
0024
0048
0048
0090
0120
0120
0240
0240
0120
0120
0090
0048
0048
0024
0024
ENDCHAR
STARTCHAR (for_rename)
ENCODING 12299
SWIDTH 1024 0
DWIDTH 16 0
BBX 16 16 0 -2
BITMAP
4800
4800
2400
2400
1200
0900
0900
0480
0480
0900
0900
1200
2400
2400
4800
4800
ENDCHAR
STARTCHAR (for_rename)
ENCODING 12300
SWIDTH 1024 0
DWIDTH 16 0
BBX 16 16 0 -2
BITMAP
007c
0040
0040
0040
0040
0040
0040
0040
0040
0040
0040
0040
0000
0000
0000
0000
ENDCHAR
STARTCHAR (for_rename)
ENCODING 12301
SWIDTH 1024 0
DWIDTH 16 0
BBX 16 16 0 -2
BITMAP
0000
0000
0000
0000
0400
0400
0400
0400
0400
0400
0400
0400
0400
0400
0400
7c00
ENDCHAR
STARTCHAR (for_rename)
ENCODING 12302
SWIDTH 1024 0
DWIDTH 16 0
BBX 16 16 0 -2
BITMAP
00fc
0084
00bc
00a0
00a0
00a0
00a0
00a0
00a0
00a0
00a0
00e0
0000
0000
0000
0000
ENDCHAR
STARTCHAR (for_rename)
ENCODING 12303
SWIDTH 1024 0
DWIDTH 16 0
BBX 16 16 0 -2
BITMAP
0000
0000
0000
0000
0e00
0a00
0a00
0a00
0a00
0a00
0a00
0a00
0a00
7a00
4200
7e00
ENDCHAR
STARTCHAR (for_rename)
ENCODING 12304
SWIDTH 1024 0
DWIDTH 16 0
BBX 16 16 0 -2
BITMAP
003c
0038
0030
0030
0030
0030
0030
0030
0030
0030
0030
0030
0030
0030
0038
003c
ENDCHAR
STARTCHAR (for_rename)
ENCODING 12305
SWIDTH 1024 0
DWIDTH 16 0
BBX 16 16 0 -2
BITMAP
7800
3800
1800
1800
1800
1800
1800
1800
1800
1800
1800
1800
1800
1800
3800
7800
ENDCHAR
STARTCHAR (for_rename)
ENCODING 12306
SWIDTH 1024 0
DWIDTH 16 0
BBX 16 16 0 -2
BITMAP
0000
fffc
fffc
0000
0000
fffc
fffc
0300
0300
0300
0300
0300
0300
0300
0300
0300
ENDCHAR
STARTCHAR (for_rename)
ENCODING 12307
SWIDTH 1024 0
DWIDTH 16 0
BBX 16 16 0 -2
BITMAP
0000
0000
0000
0000
3ff8
3ff8
0000
0000
0000
3ff8
3ff8
0000
0000
0000
0000
0000
ENDCHAR
STARTCHAR (for_rename)
ENCODING 12308
SWIDTH 1024 0
DWIDTH 16 0
BBX 16 16 0 -2
BITMAP
0004
0018
0020
0020
0020
0020
0020
0020
0020
0020
0020
0020
0020
0020
0018
0004
ENDCHAR
STARTCHAR (for_rename)
ENCODING 12309
SWIDTH 1024 0
DWIDTH 16 0
BBX 16 16 0 -2
BITMAP
4000
3000
0800
0800
0800
0800
0800
0800
0800
0800
0800
0800
0800
0800
3000
4000
ENDCHAR
STARTCHAR (for_rename)
ENCODING 12316
SWIDTH 1024 0
DWIDTH 16 0
BBX 16 16 0 -2
BITMAP
0000
0000
0000
0000
0000
3800
4400
8202
0104
0088
0070
0000
0000
0000
0000
0000
ENDCHAR
STARTCHAR (for_rename)
ENCODING 12353
SWIDTH 1024 0
DWIDTH 16 0
BBX 16 16 0 -2
BITMAP
0000
0000
0000
0000
0000
0200
0200
0fc0
0200
03c0
06a0
0a90
1110
1290
0c20
00c0
ENDCHAR
STARTCHAR (for_rename)
ENCODING 12354
SWIDTH 1024 0
DWIDTH 16 0
BBX 16 16 0 -2
BITMAP
0400
0200
0230
22c0
1f00
0400
07c0
0cb0
1488
2308
4208
4608
4a08
3810
01e0
0000
ENDCHAR
STARTCHAR (for_rename)
ENCODING 12355
SWIDTH 1024 0
DWIDTH 16 0
BBX 16 16 0 -2
BITMAP
0000
0000
0000
0000
0000
0000
0000
1000
1020
1020
1010
1010
0810
0a00
0400
0000
ENDCHAR
STARTCHAR (for_rename)
ENCODING 12356
SWIDTH 1024 0
DWIDTH 16 0
BBX 16 16 0 -2
BITMAP
0000
0000
4000
2000
2030
2008
4008
4004
4404
4404
2800
2800
3000
1800
0000
0000
ENDCHAR
STARTCHAR (for_rename)
ENCODING 12357
SWIDTH 1024 0
DWIDTH 16 0
BBX 16 16 0 -2
BITMAP
0000
0000
0000
0000
0000
0200
0180
0000
03c0
0c20
0020
0020
0040
0040
0080
0300
ENDCHAR
STARTCHAR (for_rename)
ENCODING 12358
SWIDTH 1024 0
DWIDTH 16 0
BBX 16 16 0 -2
BITMAP
0400
03c0
0080
0100
0000
11c0
1e20
0810
0010
0010
0010
0020
0020
0040
0080
0300
ENDCHAR
STARTCHAR (for_rename)
ENCODING 12359
SWIDTH 1024 0
DWIDTH 16 0
BBX 16 16 0 -2
BITMAP
0000
0000
0000
0000
0000
0000
0380
0000
03c0
0c80
0100
0300
0480
0880
10f0
0000
ENDCHAR
STARTCHAR (for_rename)
ENCODING 12360
SWIDTH 1024 0
DWIDTH 16 0
BBX 16 16 0 -2
BITMAP
0400
03c0
0080
0000
0080
27c0
3880
0100
0200
0400
0f00
1080
6080
4080
007c
0000
ENDCHAR
STARTCHAR (for_rename)
ENCODING 12361
SWIDTH 1024 0
DWIDTH 16 0
BBX 16 16 0 -2
BITMAP
0000
0000
0000
0000
0000
0000
0200
0220
1f90
0200
07c0
0a20
1210
1a90
0660
0200
ENDCHAR
STARTCHAR (for_rename)
ENCODING 12362
SWIDTH 1024 0
DWIDTH 16 0
BBX 16 16 0 -2
BITMAP
0c00
0400
0400
0430
4708
3c04
0400
0460
0590
0608
0c08
3408
6510
0ce0
0400
0000
ENDCHAR
STARTCHAR (for_rename)
ENCODING 12363
SWIDTH 1024 0
DWIDTH 16 0
BBX 16 16 0 -2
BITMAP
0400
0200
0200
0400
0700
58b0
6888
0884
0884
1082
1082
2080
2500
4300
4200
0000
ENDCHAR
STARTCHAR (for_rename)
ENCODING 12364
SWIDTH 1024 0
DWIDTH 16 0
BBX 16 16 0 -2
BITMAP
0400
0204
0202
0408
0704
58b0
6888
0884
0884
1082
1082
2080
2500
4300
4200
0000
ENDCHAR
STARTCHAR (for_rename)
ENCODING 12365
SWIDTH 1024 0
DWIDTH 16 0
BBX 16 16 0 -2
BITMAP
0600
0200
0200
1160
0f80
0100
20b0
1fc0
0040
0020
0fe0
1030
1000
1800
0fe0
0000
ENDCHAR
STARTCHAR (for_rename)
ENCODING 12366
SWIDTH 1024 0
DWIDTH 16 0
BBX 16 16 0 -2
BITMAP
0604
0202
0208
1164
0f80
0100
20b0
1fc0
0040
0020
0fe0
1030
1000
1800
0fe0
0000
ENDCHAR
STARTCHAR (for_rename)
ENCODING 12367
SWIDTH 1024 0
DWIDTH 16 0
BBX 16 16 0 -2
BITMAP
0080
0040
0080
0100
0200
0400
0800
0800
0800
0400
0200
0100
0080
0080
0040
0040
ENDCHAR
STARTCHAR (for_rename)
ENCODING 12368
SWIDTH 1024 0
DWIDTH 16 0
BBX 16 16 0 -2
BITMAP
0080
0040
0090
0108
0248
0420
0820
0800
0800
0400
0200
0100
0080
0080
0040
0040
ENDCHAR
STARTCHAR (for_rename)
ENCODING 12369
SWIDTH 1024 0
DWIDTH 16 0
BBX 16 16 0 -2
BITMAP
0040
0020
4020
2020
2024
2038
43e0
4020
4020
5020
5020
6020
2020
2040
0080
0300
ENDCHAR
STARTCHAR (for_rename)
ENCODING 12370
SWIDTH 1024 0
DWIDTH 16 0
BBX 16 16 0 -2
BITMAP
0084
0052
4048
2040
2044
2078
47c0
4040
4040
5040
5040
6040
2040
2080
0100
0600
ENDCHAR
STARTCHAR (for_rename)
ENCODING 12371
SWIDTH 1024 0
DWIDTH 16 0
BBX 16 16 0 -2
BITMAP
0000
0000
0800
07e0
0080
0100
0000
0000
0000
2000
2000
2000
1010
0ff8
0000
0000
ENDCHAR
STARTCHAR (for_rename)
ENCODING 12372
SWIDTH 1024 0
DWIDTH 16 0
BBX 16 16 0 -2
BITMAP
0008
0024
1010
0fc0
0100
0200
0000
0000
0000
2000
2000
2000
1010
0ff8
0000
0000
ENDCHAR
STARTCHAR (for_rename)
ENCODING 12373
SWIDTH 1024 0
DWIDTH 16 0
BBX 16 16 0 -2
BITMAP
0000
0300
0100
0118
2160
1f80
0040
0040
0020
0ff0
1010
1000
1000
0800
07e0
0000
ENDCHAR
STARTCHAR (for_rename)
ENCODING 12374
SWIDTH 1024 0
DWIDTH 16 0
BBX 16 16 0 -2
BITMAP
0004
0612
0208
0220
42c0
3f00
0080
0080
0040
1fe0
2020
2000
2000
1000
0fc0
0000
ENDCHAR
STARTCHAR (for_rename)
ENCODING 12375
SWIDTH 1024 0
DWIDTH 16 0
BBX 16 16 0 -2
BITMAP
1000
0c00
0800
0800
0800
0800
0800
0800
0800
0804
0804
0808
0810
0460
0380
0000
ENDCHAR
STARTCHAR (for_rename)
ENCODING 12376
SWIDTH 1024 0
DWIDTH 16 0
BBX 16 16 0 -2
BITMAP
1000
0c00
0810
0848
0828
0820
0800
0800
0800
0804
0804
0808
0810
0460
0380
0000
ENDCHAR
STARTCHAR (for_rename)
ENCODING 12377
SWIDTH 1024 0
DWIDTH 16 0
BBX 16 16 0 -2
BITMAP
0180
0080
0080
83fe
7c80
0080
0780
0880
0880
0980
0680
0080
0100
0100
0200
0c00
ENDCHAR
STARTCHAR (for_rename)
ENCODING 12378
SWIDTH 1024 0
DWIDTH 16 0
BBX 16 16 0 -2
BITMAP
01a4
0092
0080
83fe
7c80
0080
0780
0880
0880
0980
0680
0080
0100
0100
0200
0c00
ENDCHAR
STARTCHAR (for_rename)
ENCODING 12379
SWIDTH 1024 0
DWIDTH 16 0
BBX 16 16 0 -2
BITMAP
0000
0040
1020
0820
0820
083e
8fc0
7840
0840
0840
08c0
0840
0800
0800
07f0
0000
ENDCHAR
STARTCHAR (for_rename)
ENCODING 12380
SWIDTH 1024 0
DWIDTH 16 0
BBX 16 16 0 -2
BITMAP
0004
0042
1028
0824
0820
083e
8fc0
7840
0840
0840
08c0
0840
0800
0800
07f0
0000
ENDCHAR
STARTCHAR (for_rename)
ENCODING 12381
SWIDTH 1024 0
DWIDTH 16 0
BBX 16 16 0 -2
BITMAP
0000
09c0
0660
0080
0100
0200
047c
0f80
7100
4200
0200
0200
0200
0180
0070
0000
ENDCHAR
STARTCHAR (for_rename)
ENCODING 12382
SWIDTH 1024 0
DWIDTH 16 0
BBX 16 16 0 -2
BITMAP
0004
09c2
0668
0084
0100
0200
047c
0f80
7100
4200
0200
0200
0200
0180
0070
0000
ENDCHAR
STARTCHAR (for_rename)
ENCODING 12383
SWIDTH 1024 0
DWIDTH 16 0
BBX 16 16 0 -2
BITMAP
0000
0c00
0400
0400
0700
7878
0890
0820
1000
1000
1100
2100
2100
40fc
4000
0000
ENDCHAR
STARTCHAR (for_rename)
ENCODING 12384
SWIDTH 1024 0
DWIDTH 16 0
BBX 16 16 0 -2
BITMAP
0004
0c12
0408
0408
0700
7878
0890
0820
1000
1000
1100
2100
2100
40fc
4000
0000
ENDCHAR
STARTCHAR (for_rename)
ENCODING 12385
SWIDTH 1024 0
DWIDTH 16 0
BBX 16 16 0 -2
BITMAP
0600
0200
0230
23c0
1c00
0400
0400
0470
0988
0e04
0804
0004
0008
0010
03e0
0000
ENDCHAR
STARTCHAR (for_rename)
ENCODING 12386
SWIDTH 1024 0
DWIDTH 16 0
BBX 16 16 0 -2
BITMAP
0600
0204
0262
2388
1c04
0400
0400
0470
0988
0e04
0804
0004
0008
0010
03e0
0000
ENDCHAR
STARTCHAR (for_rename)
ENCODING 12387
SWIDTH 1024 0
DWIDTH 16 0
BBX 16 16 0 -2
BITMAP
0000
0000
0000
0000
0000
0000
0000
0000
03e0
3c10
0010
0010
0020
0040
0180
0600
ENDCHAR
STARTCHAR (for_rename)
ENCODING 12388
SWIDTH 1024 0
DWIDTH 16 0
BBX 16 16 0 -2
BITMAP
0000
0000
0000
0000
01f0
8e08
7004
0004
0004
0004
0004
0008
0030
03c0
0000
0000
ENDCHAR
STARTCHAR (for_rename)
ENCODING 12389
SWIDTH 1024 0
DWIDTH 16 0
BBX 16 16 0 -2
BITMAP
0004
0012
0008
0000
01f0
8e08
7004
0004
0004
0004
0004
0008
0030
03c0
0000
0000
ENDCHAR
STARTCHAR (for_rename)
ENCODING 12390
SWIDTH 1024 0
DWIDTH 16 0
BBX 16 16 0 -2
BITMAP
0000
0000
01fc
8e60
7080
0100
0200
0200
0400
0400
0400
0400
0200
01f0
0000
0000
ENDCHAR
STARTCHAR (for_rename)
ENCODING 12391
SWIDTH 1024 0
DWIDTH 16 0
BBX 16 16 0 -2
BITMAP
0000
0000
01fc
8e60
7088
0104
0220
0210
0400
0400
0400
0400
0200
01f0
0000
0000
ENDCHAR
STARTCHAR (for_rename)
ENCODING 12392
SWIDTH 1024 0
DWIDTH 16 0
BBX 16 16 0 -2
BITMAP
0000
0600
0200
0200
0200
0200
0170
0380
0c00
1000
2000
2000
2000
1018
0fe0
0000
ENDCHAR
STARTCHAR (for_rename)
ENCODING 12393
SWIDTH 1024 0
DWIDTH 16 0
BBX 16 16 0 -2
BITMAP
0000
0608
0224
0210
0200
0200
0170
0380
0c00
1000
2000
2000
2000
1018
0fe0
0000
ENDCHAR
STARTCHAR (for_rename)
ENCODING 12394
SWIDTH 1024 0
DWIDTH 16 0
BBX 16 16 0 -2
BITMAP
0400
0400
0870
0e0c
7814
1040
1040
1040
1020
2020
2020
21f0
0228
0224
01c0
0000
ENDCHAR
STARTCHAR (for_rename)
ENCODING 12395
SWIDTH 1024 0
DWIDTH 16 0
BBX 16 16 0 -2
BITMAP
0000
0000
4000
2278
2180
2000
2000
4000
4000
4200
5200
5200
6100
20fc
2000
0000
ENDCHAR
STARTCHAR (for_rename)
ENCODING 12396
SWIDTH 1024 0
DWIDTH 16 0
BBX 16 16 0 -2
BITMAP
0000
0180
2080
2080
13f0
1508
1904
3204
4a04
4c04
4468
4a98
488c
3072
0000
0000
ENDCHAR
STARTCHAR (for_rename)
ENCODING 12397
SWIDTH 1024 0
DWIDTH 16 0
BBX 16 16 0 -2
BITMAP
0000
1800
0800
0870
0c88
7908
0a08
1c08
1808
2808
28e8
4918
4908
18f4
0800
0000
ENDCHAR
STARTCHAR (for_rename)
ENCODING 12398
SWIDTH 1024 0
DWIDTH 16 0
BBX 16 16 0 -2
BITMAP
0000
0000
07e0
0910
1108
2108
2204
4204
4204
4404
4408
4808
3030
01c0
0000
0000
ENDCHAR
STARTCHAR (for_rename)
ENCODING 12399
SWIDTH 1024 0
DWIDTH 16 0
BBX 16 16 0 -2
BITMAP
0000
0060
4020
2020
242c
23f0
2020
4020
4020
4020
5020
51e0
6238
2224
21c0
0000
ENDCHAR
STARTCHAR (for_rename)
ENCODING 12400
SWIDTH 1024 0
DWIDTH 16 0
BBX 16 16 0 -2
BITMAP
000a
006a
4020
2020
242c
23f0
2020
4020
4020
4020
5020
51e0
6238
2224
21c0
0000
ENDCHAR
STARTCHAR (for_rename)
ENCODING 12401
SWIDTH 1024 0
DWIDTH 16 0
BBX 16 16 0 -2
BITMAP
000e
006a
402e
2020
242c
23f0
2020
4020
4020
4020
5020
51e0
6238
2224
21c0
0000
ENDCHAR
STARTCHAR (for_rename)
ENCODING 12402
SWIDTH 1024 0
DWIDTH 16 0
BBX 16 16 0 -2
BITMAP
0000
0040
1e40
6440
0820
1030
1030
2028
2024
2020
2020
2020
2040
1080
0f00
0000
ENDCHAR
STARTCHAR (for_rename)
ENCODING 12403
SWIDTH 1024 0
DWIDTH 16 0
BBX 16 16 0 -2
BITMAP
0004
0052
1e48
6448
0820
1030
1030
2028
2024
2020
2020
2020
2040
1080
0f00
0000
ENDCHAR
STARTCHAR (for_rename)
ENCODING 12404
SWIDTH 1024 0
DWIDTH 16 0
BBX 16 16 0 -2
BITMAP
0000
004e
1e4a
644e
0820
1030
1030
2028
2024
2020
2020
2020
2040
1080
0f00
0000
ENDCHAR
STARTCHAR (for_rename)
ENCODING 12405
SWIDTH 1024 0
DWIDTH 16 0
BBX 16 16 0 -2
BITMAP
0000
0200
0100
00c0
0300
0400
0400
0400
0240
0130
0888
1084
a084
4700
0000
0000
ENDCHAR
STARTCHAR (for_rename)
ENCODING 12406
SWIDTH 1024 0
DWIDTH 16 0
BBX 16 16 0 -2
BITMAP
0000
0200
0100
00cc
0302
0418
0404
0400
0240
0130
0888
1084
a084
4700
0000
0000
ENDCHAR
STARTCHAR (for_rename)
ENCODING 12407
SWIDTH 1024 0
DWIDTH 16 0
BBX 16 16 0 -2
BITMAP
0000
0200
0100
00dc
0314
041c
0400
0400
0240
0130
0888
1084
a084
4700
0000
0000
ENDCHAR
STARTCHAR (for_rename)
ENCODING 12408
SWIDTH 1024 0
DWIDTH 16 0
BBX 16 16 0 -2
BITMAP
0000
0000
0000
0000
0600
0900
1080
a040
4020
0018
0006
0000
0000
0000
0000
0000
ENDCHAR
STARTCHAR (for_rename)
ENCODING 12409
SWIDTH 1024 0
DWIDTH 16 0
BBX 16 16 0 -2
BITMAP
0000
0000
0000
0018
0604
0910
1088
a040
4020
0018
0006
0000
0000
0000
0000
0000
ENDCHAR
STARTCHAR (for_rename)
ENCODING 12410
SWIDTH 1024 0
DWIDTH 16 0
BBX 16 16 0 -2
BITMAP
0000
0000
0000
001c
0614
091c
1080
a040
4020
0018
0006
0000
0000
0000
0000
0000
ENDCHAR
STARTCHAR (for_rename)
ENCODING 12411
SWIDTH 1024 0
DWIDTH 16 0
BBX 16 16 0 -2
BITMAP
0000
0018
41e0
2020
2020
2020
243c
43e0
4020
4020
5020
51e0
6230
2228
21c4
0000
ENDCHAR
STARTCHAR (for_rename)
ENCODING 12412
SWIDTH 1024 0
DWIDTH 16 0
BBX 16 16 0 -2
BITMAP
0004
0012
41e0
2024
2022
2020
2478
43a0
4020
4020
5020
51e0
6230
2228
21c4
0000
ENDCHAR
STARTCHAR (for_rename)
ENCODING 12413
SWIDTH 1024 0
DWIDTH 16 0
BBX 16 16 0 -2
BITMAP
000e
001a
41ee
2020
2020
2020
247c
43a0
4020
4020
5020
51e0
6230
2228
21c4
0000
ENDCHAR
STARTCHAR (for_rename)
ENCODING 12414
SWIDTH 1024 0
DWIDTH 16 0
BBX 16 16 0 -2
BITMAP
0300
0100
0100
4130
3fc0
0100
0900
1130
0fc0
0100
0100
0f00
11c0
1120
0e10
0000
ENDCHAR
STARTCHAR (for_rename)
ENCODING 12415
SWIDTH 1024 0
DWIDTH 16 0
BBX 16 16 0 -2
BITMAP
0000
0380
1c80
0100
0200
0230
0410
1f90
2470
4818
4824
3020
0040
0080
0300
0000
ENDCHAR
STARTCHAR (for_rename)
ENCODING 12416
SWIDTH 1024 0
DWIDTH 16 0
BBX 16 16 0 -2
BITMAP
0c00
0400
0400
0718
7804
0802
0802
3800
4800
4810
5010
3010
1010
1030
0fc0
0000
ENDCHAR
STARTCHAR (for_rename)
ENCODING 12417
SWIDTH 1024 0
DWIDTH 16 0
BBX 16 16 0 -2
BITMAP
0080
0040
6040
1080
13e0
1510
1908
2904
4a04
4604
4404
4a08
3010
00e0
0000
0000
ENDCHAR
STARTCHAR (for_rename)
ENCODING 12418
SWIDTH 1024 0
DWIDTH 16 0
BBX 16 16 0 -2
BITMAP
0600
0200
0200
0200
1f00
0400
0c00
0440
2420
2410
1f08
0408
0408
0408
03f0
0000
ENDCHAR
STARTCHAR (for_rename)
ENCODING 12419
SWIDTH 1024 0
DWIDTH 16 0
BBX 16 16 0 -2
BITMAP
0000
0000
0000
0000
0200
1100
11e0
0e90
1890
2810
0410
0520
04c0
0400
0400
0000
ENDCHAR
STARTCHAR (for_rename)
ENCODING 12420
SWIDTH 1024 0
DWIDTH 16 0
BBX 16 16 0 -2
BITMAP
0000
0300
0880
1070
1188
0a04
9c04
6804
0508
04f0
0200
0200
0100
0100
0100
0000
ENDCHAR
STARTCHAR (for_rename)
ENCODING 12421
SWIDTH 1024 0
DWIDTH 16 0
BBX 16 16 0 -2
BITMAP
0000
0000
0000
0000
0080
1080
11e0
1290
1488
1888
1088
1290
11e0
0080
0100
0200
ENDCHAR
STARTCHAR (for_rename)
ENCODING 12422
SWIDTH 1024 0
DWIDTH 16 0
BBX 16 16 0 -2
BITMAP
0000
0180
0040
4070
21c8
2244
2444
4844
4844
5244
5248
21f0
2040
0080
0700
0000
ENDCHAR
STARTCHAR (for_rename)
ENCODING 12423
SWIDTH 1024 0
DWIDTH 16 0
BBX 16 16 0 -2
BITMAP
0000
0000
0000
0000
0100
0100
0100
01e0
0100
0100
0100
0f00
11c0
1130
0e00
0000
ENDCHAR
STARTCHAR (for_rename)
ENCODING 12424
SWIDTH 1024 0
DWIDTH 16 0
BBX 16 16 0 -2
BITMAP
0000
0300
0100
0100
0110
01e0
0100
0100
0100
0100
0100
3f00
41c0
2130
1e08
0000
ENDCHAR
STARTCHAR (for_rename)
ENCODING 12425
SWIDTH 1024 0
DWIDTH 16 0
BBX 16 16 0 -2
BITMAP
0400
0380
00c0
0100
0000
0800
0800
10e0
1310
1408
1808
1008
0010
0060
0380
0000
ENDCHAR
STARTCHAR (for_rename)
ENCODING 12426
SWIDTH 1024 0
DWIDTH 16 0
BBX 16 16 0 -2
BITMAP
0000
1000
0800
09c0
0a20
1210
1210
1410
1410
1410
0810
0820
0020
0040
0180
0600
ENDCHAR
STARTCHAR (for_rename)
ENCODING 12427
SWIDTH 1024 0
DWIDTH 16 0
BBX 16 16 0 -2
BITMAP
0000
01c0
0e20
0040
0080
0100
0200
04e0
0f10
1808
3008
2308
0488
0410
03e0
0000
ENDCHAR
STARTCHAR (for_rename)
ENCODING 12428
SWIDTH 1024 0
DWIDTH 16 0
BBX 16 16 0 -2
BITMAP
1000
0800
0800
0ce0
1910
6a10
0c10
1810
1810
2820
2820
4822
4824
1818
0800
0000
ENDCHAR
STARTCHAR (for_rename)
ENCODING 12429
SWIDTH 1024 0
DWIDTH 16 0
BBX 16 16 0 -2
BITMAP
0000
01c0
0e40
0080
0100
0200
0400
09e0
0e10
1008
2008
2008
0008
0030
01c0
0000
ENDCHAR
STARTCHAR (for_rename)
ENCODING 12430
SWIDTH 1024 0
DWIDTH 16 0
BBX 16 16 0 -2
BITMAP
0000
0000
0000
0000
0000
0000
0400
0400
1dc0
0620
0c10
1410
2410
0420
0c40
0400
ENDCHAR
STARTCHAR (for_rename)
ENCODING 12431
SWIDTH 1024 0
DWIDTH 16 0
BBX 16 16 0 -2
BITMAP
0000
0800
0400
0400
0600
18f0
6b08
0c04
1804
1804
2804
4808
4810
18e0
0800
0000
ENDCHAR
STARTCHAR (for_rename)
ENCODING 12432
SWIDTH 1024 0
DWIDTH 16 0
BBX 16 16 0 -2
BITMAP
0000
0380
0cc0
0080
0100
0100
01f0
0e08
1204
2404
2404
4984
4a48
3210
01e0
0000
ENDCHAR
STARTCHAR (for_rename)
ENCODING 12433
SWIDTH 1024 0
DWIDTH 16 0
BBX 16 16 0 -2
BITMAP
0000
0380
0c80
0100
0200
07e0
0810
1010
1710
05e0
0700
0830
3448
6284
0100
0000
ENDCHAR
STARTCHAR (for_rename)
ENCODING 12434
SWIDTH 1024 0
DWIDTH 16 0
BBX 16 16 0 -2
BITMAP
0200
0100
0260
3f80
0400
0800
1304
1c8c
20f0
4180
0280
0480
0800
0800
07f0
0000
ENDCHAR
STARTCHAR (for_rename)
ENCODING 12435
SWIDTH 1024 0
DWIDTH 16 0
BBX 16 16 0 -2
BITMAP
0000
0300
0100
0200
0200
0400
0400
0800
0b00
1c84
1084
2084
6088
4070
0000
0000
ENDCHAR
STARTCHAR (for_rename)
ENCODING 12443
SWIDTH 1024 0
DWIDTH 16 0
BBX 16 16 0 -2
BITMAP
2000
9000
4800
2400
1000
0000
0000
0000
0000
0000
0000
0000
0000
0000
0000
0000
ENDCHAR
STARTCHAR (for_rename)
ENCODING 12444
SWIDTH 1024 0
DWIDTH 16 0
BBX 16 16 0 -2
BITMAP
7000
8800
8800
8800
7000
0000
0000
0000
0000
0000
0000
0000
0000
0000
0000
0000
ENDCHAR
STARTCHAR (for_rename)
ENCODING 12445
SWIDTH 1024 0
DWIDTH 16 0
BBX 16 16 0 -2
BITMAP
0000
0000
0000
0800
0800
0400
0400
0200
0100
0080
0040
01c0
0620
0000
0000
0000
ENDCHAR
STARTCHAR (for_rename)
ENCODING 12446
SWIDTH 1024 0
DWIDTH 16 0
BBX 16 16 0 -2
BITMAP
0000
0000
0010
0808
0840
0420
0400
0200
0100
0080
0040
01c0
0620
0000
0000
0000
ENDCHAR
STARTCHAR (for_rename)
ENCODING 12449
SWIDTH 1024 0
DWIDTH 16 0
BBX 16 16 0 -2
BITMAP
0000
0000
0000
0000
0000
0000
0000
1ff0
0020
0140
0180
0100
0100
0200
0c00
0000
ENDCHAR
STARTCHAR (for_rename)
ENCODING 12450
SWIDTH 1024 0
DWIDTH 16 0
BBX 16 16 0 -2
BITMAP
0000
0000
0000
03f8
3c10
0020
02c0
0100
0100
0100
0100
0200
0200
0400
0800
0000
ENDCHAR
STARTCHAR (for_rename)
ENCODING 12451
SWIDTH 1024 0
DWIDTH 16 0
BBX 16 16 0 -2
BITMAP
0000
0000
0000
0000
0000
0000
0040
0080
0100
0300
0500
0900
1100
0100
0100
0100
ENDCHAR
STARTCHAR (for_rename)
ENCODING 12452
SWIDTH 1024 0
DWIDTH 16 0
BBX 16 16 0 -2
BITMAP
0000
0040
0060
0040
0080
0100
0300
0500
0900
3100
0100
0100
0100
0100
0100
0000
ENDCHAR
STARTCHAR (for_rename)
ENCODING 12453
SWIDTH 1024 0
DWIDTH 16 0
BBX 16 16 0 -2
BITMAP
0000
0000
0000
0000
0000
0000
0100
0100
0ff0
0810
0810
0020
0020
0040
0080
0300
ENDCHAR
STARTCHAR (for_rename)
ENCODING 12454
SWIDTH 1024 0
DWIDTH 16 0
BBX 16 16 0 -2
BITMAP
0000
0000
0300
0100
01f0
3e10
1010
1010
1020
1020
0040
0040
0080
0100
0e00
0000
ENDCHAR
STARTCHAR (for_rename)
ENCODING 12455
SWIDTH 1024 0
DWIDTH 16 0
BBX 16 16 0 -2
BITMAP
0000
0000
0000
0000
0000
0000
0000
0000
0fe0
0100
0100
0100
0100
0100
1ff0
0000
ENDCHAR
STARTCHAR (for_rename)
ENCODING 12456
SWIDTH 1024 0
DWIDTH 16 0
BBX 16 16 0 -2
BITMAP
0000
0000
0000
0000
00f0
1f00
0100
0100
0100
0100
0100
43f8
3c04
0000
0000
0000
ENDCHAR
STARTCHAR (for_rename)
ENCODING 12457
SWIDTH 1024 0
DWIDTH 16 0
BBX 16 16 0 -2
BITMAP
0000
0000
0000
0000
0000
0000
0080
0080
1ff0
0180
0280
0480
0880
1080
0180
0080
ENDCHAR
STARTCHAR (for_rename)
ENCODING 12458
SWIDTH 1024 0
DWIDTH 16 0
BBX 16 16 0 -2
BITMAP
0000
0180
0080
0080
0080
43f8
3d80
0180
0280
0480
0880
1080
2280
4180
0080
0000
ENDCHAR
STARTCHAR (for_rename)
ENCODING 12459
SWIDTH 1024 0
DWIDTH 16 0
BBX 16 16 0 -2
BITMAP
0000
0300
0100
0100
03f0
3e10
0210
0410
0410
0420
0820
0820
1120
60c0
0000
0000
ENDCHAR
STARTCHAR (for_rename)
ENCODING 12460
SWIDTH 1024 0
DWIDTH 16 0
BBX 16 16 0 -2
BITMAP
0004
0312
010a
0108
03f0
3e10
0210
0410
0410
0420
0820
0820
1120
60c0
0000
0000
ENDCHAR
STARTCHAR (for_rename)
ENCODING 12461
SWIDTH 1024 0
DWIDTH 16 0
BBX 16 16 0 -2
BITMAP
0000
0600
0200
0200
02e0
1f00
0200
0200
0178
4f80
3100
0100
0100
0100
0100
0000
ENDCHAR
STARTCHAR (for_rename)
ENCODING 12462
SWIDTH 1024 0
DWIDTH 16 0
BBX 16 16 0 -2
BITMAP
0004
0612
020a
0208
02e0
1f00
0200
0200
0178
4f80
3100
0100
0100
0100
0100
0000
ENDCHAR
STARTCHAR (for_rename)
ENCODING 12463
SWIDTH 1024 0
DWIDTH 16 0
BBX 16 16 0 -2
BITMAP
0000
0200
0100
0220
03f0
0420
0820
1040
2040
0080
0100
0200
0400
0800
3000
0000
ENDCHAR
STARTCHAR (for_rename)
ENCODING 12464
SWIDTH 1024 0
DWIDTH 16 0
BBX 16 16 0 -2
BITMAP
0004
0202
0108
0224
03f4
0420
0820
1040
2040
0080
0100
0200
0400
0800
3000
0000
ENDCHAR
STARTCHAR (for_rename)
ENCODING 12465
SWIDTH 1024 0
DWIDTH 16 0
BBX 16 16 0 -2
BITMAP
0000
0800
0400
0400
0800
08f8
1f00
1080
2080
4080
0100
0100
0200
0200
0c00
0000
ENDCHAR
STARTCHAR (for_rename)
ENCODING 12466
SWIDTH 1024 0
DWIDTH 16 0
BBX 16 16 0 -2
BITMAP
0004
0812
040a
0408
0800
08f8
1f00
1080
2080
4080
0100
0100
0200
0200
0c00
0000
ENDCHAR
STARTCHAR (for_rename)
ENCODING 12467
SWIDTH 1024 0
DWIDTH 16 0
BBX 16 16 0 -2
BITMAP
0000
0000
0000
0000
11f0
0e10
0010
0010
0010
0010
0010
11f0
0e00
0000
0000
0000
ENDCHAR
STARTCHAR (for_rename)
ENCODING 12468
SWIDTH 1024 0
DWIDTH 16 0
BBX 16 16 0 -2
BITMAP
0004
0012
000a
0008
11f0
0e10
0010
0010
0010
0010
0010
11f0
0e00
0000
0000
0000
ENDCHAR
STARTCHAR (for_rename)
ENCODING 12469
SWIDTH 1024 0
DWIDTH 16 0
BBX 16 16 0 -2
BITMAP
0000
0000
00c0
0c40
0440
0440
47fc
3c40
0440
0440
0040
0080
0080
0100
0600
0000
ENDCHAR
STARTCHAR (for_rename)
ENCODING 12470
SWIDTH 1024 0
DWIDTH 16 0
BBX 16 16 0 -2
BITMAP
0004
0012
00ca
0c48
0440
0440
47fc
3c40
0440
0440
0040
0080
0080
0100
0600
0000
ENDCHAR
STARTCHAR (for_rename)
ENCODING 12471
SWIDTH 1024 0
DWIDTH 16 0
BBX 16 16 0 -2
BITMAP
0000
0000
0600
0100
0000
0004
1804
0408
0010
0020
0040
0080
1300
1c00
0000
0000
ENDCHAR
STARTCHAR (for_rename)
ENCODING 12472
SWIDTH 1024 0
DWIDTH 16 0
BBX 16 16 0 -2
BITMAP
0018
0004
0620
0110
0000
0004
1804
0408
0010
0020
0040
0080
1300
1c00
0000
0000
ENDCHAR
STARTCHAR (for_rename)
ENCODING 12473
SWIDTH 1024 0
DWIDTH 16 0
BBX 16 16 0 -2
BITMAP
0000
0000
0000
01e0
1e20
0040
0040
0080
0080
0140
0220
0410
0808
3000
0000
0000
ENDCHAR
STARTCHAR (for_rename)
ENCODING 12474
SWIDTH 1024 0
DWIDTH 16 0
BBX 16 16 0 -2
BITMAP
0004
0012
000a
01e8
1e20
0040
0040
0080
0080
0140
0220
0410
0808
3000
0000
0000
ENDCHAR
STARTCHAR (for_rename)
ENCODING 12475
SWIDTH 1024 0
DWIDTH 16 0
BBX 16 16 0 -2
BITMAP
0000
0000
0600
0200
0200
0238
03c8
4e10
3220
0240
0200
0200
0200
01f8
0000
0000
ENDCHAR
STARTCHAR (for_rename)
ENCODING 12476
SWIDTH 1024 0
DWIDTH 16 0
BBX 16 16 0 -2
BITMAP
0008
0004
0624
0210
0200
0238
03c8
4e10
3220
0240
0200
0200
0200
01f8
0000
0000
ENDCHAR
STARTCHAR (for_rename)
ENCODING 12477
SWIDTH 1024 0
DWIDTH 16 0
BBX 16 16 0 -2
BITMAP
0000
0000
0030
0010
1010
0c10
0420
0020
0020
0040
0040
0080
0100
0600
0000
0000
ENDCHAR
STARTCHAR (for_rename)
ENCODING 12478
SWIDTH 1024 0
DWIDTH 16 0
BBX 16 16 0 -2
BITMAP
0004
0012
0008
0060
4020
3020
1020
0040
0040
0080
0080
0100
0200
0c00
0000
0000
ENDCHAR
STARTCHAR (for_rename)
ENCODING 12479
SWIDTH 1024 0
DWIDTH 16 0
BBX 16 16 0 -2
BITMAP
0000
0000
0400
0200
03f0
0420
0420
0840
1240
2180
0080
0100
0200
0c00
3000
0000
ENDCHAR
STARTCHAR (for_rename)
ENCODING 12480
SWIDTH 1024 0
DWIDTH 16 0
BBX 16 16 0 -2
BITMAP
0004
0012
080a
0408
07e0
0840
0840
1080
2480
4300
0100
0200
0400
1800
6000
0000
ENDCHAR
STARTCHAR (for_rename)
ENCODING 12481
SWIDTH 1024 0
DWIDTH 16 0
BBX 16 16 0 -2
BITMAP
0000
0000
00e0
1f00
0100
0100
01f8
7f00
0100
0100
0100
0200
0200
0400
0800
0000
ENDCHAR
STARTCHAR (for_rename)
ENCODING 12482
SWIDTH 1024 0
DWIDTH 16 0
BBX 16 16 0 -2
BITMAP
0000
0004
01c2
3e10
0208
0200
03f0
fe00
0200
0200
0200
0400
0400
0800
1000
0000
ENDCHAR
STARTCHAR (for_rename)
ENCODING 12483
SWIDTH 1024 0
DWIDTH 16 0
BBX 16 16 0 -2
BITMAP
0000
0000
0000
0000
0000
0000
0000
0210
1110
0910
0810
0020
0020
0040
0180
0600
ENDCHAR
STARTCHAR (for_rename)
ENCODING 12484
SWIDTH 1024 0
DWIDTH 16 0
BBX 16 16 0 -2
BITMAP
0000
0000
0000
0210
2108
1118
1010
0020
0020
0040
0040
0080
0100
0600
0000
0000
ENDCHAR
STARTCHAR (for_rename)
ENCODING 12485
SWIDTH 1024 0
DWIDTH 16 0
BBX 16 16 0 -2
BITMAP
0004
0012
000a
0420
4210
2230
2020
0040
0040
0080
0080
0100
0200
0c00
0000
0000
ENDCHAR
STARTCHAR (for_rename)
ENCODING 12486
SWIDTH 1024 0
DWIDTH 16 0
BBX 16 16 0 -2
BITMAP
0000
0000
0860
0780
0000
0000
47f8
3900
0100
0100
0100
0200
0200
0400
1800
0000
ENDCHAR
STARTCHAR (for_rename)
ENCODING 12487
SWIDTH 1024 0
DWIDTH 16 0
BBX 16 16 0 -2
BITMAP
0000
0004
10c2
0f12
0008
0000
8ff0
7200
0200
0200
0200
0400
0400
0800
3000
0000
ENDCHAR
STARTCHAR (for_rename)
ENCODING 12488
SWIDTH 1024 0
DWIDTH 16 0
BBX 16 16 0 -2
BITMAP
0000
0400
0200
0200
0200
0200
0380
0240
0220
0200
0200
0200
0200
0200
0200
0000
ENDCHAR
STARTCHAR (for_rename)
ENCODING 12489
SWIDTH 1024 0
DWIDTH 16 0
BBX 16 16 0 -2
BITMAP
0000
0400
0218
0204
0230
0208
0380
0240
0220
0200
0200
0200
0200
0200
0200
0000
ENDCHAR
STARTCHAR (for_rename)
ENCODING 12490
SWIDTH 1024 0
DWIDTH 16 0
BBX 16 16 0 -2
BITMAP
0000
0200
0100
0100
0100
4178
3f80
0100
0100
0100
0100
0200
0200
0400
1800
0000
ENDCHAR
STARTCHAR (for_rename)
ENCODING 12491
SWIDTH 1024 0
DWIDTH 16 0
BBX 16 16 0 -2
BITMAP
0000
0000
0000
0000
0060
0f80
0000
0000
0000
0000
03fc
7c00
0000
0000
0000
0000
ENDCHAR
STARTCHAR (for_rename)
ENCODING 12492
SWIDTH 1024 0
DWIDTH 16 0
BBX 16 16 0 -2
BITMAP
0000
0000
0000
00e0
1f20
0020
0040
0680
0180
0340
0220
0c10
1000
6000
0000
0000
ENDCHAR
STARTCHAR (for_rename)
ENCODING 12493
SWIDTH 1024 0
DWIDTH 16 0
BBX 16 16 0 -2
BITMAP
0200
0100
0080
0000
01e0
1e40
0080
0100
0340
0530
0908
1108
6100
0100
0100
0000
ENDCHAR
STARTCHAR (for_rename)
ENCODING 12494
SWIDTH 1024 0
DWIDTH 16 0
BBX 16 16 0 -2
BITMAP
0000
0000
0080
0040
0040
00c0
0080
0080
0100
0100
0200
0400
0800
3000
0000
0000
ENDCHAR
STARTCHAR (for_rename)
ENCODING 12495
SWIDTH 1024 0
DWIDTH 16 0
BBX 16 16 0 -2
BITMAP
0000
0000
0000
0000
0840
0420
0410
0808
0808
100c
1004
2004
4000
0000
0000
0000
ENDCHAR
STARTCHAR (for_rename)
ENCODING 12496
SWIDTH 1024 0
DWIDTH 16 0
BBX 16 16 0 -2
BITMAP
0000
0000
0004
0002
0848
0424
0410
0808
0808
100c
1004
2004
4000
0000
0000
0000
ENDCHAR
STARTCHAR (for_rename)
ENCODING 12497
SWIDTH 1024 0
DWIDTH 16 0
BBX 16 16 0 -2
BITMAP
0000
000c
0012
0012
084c
0420
0410
0808
0808
100c
1004
2004
4000
0000
0000
0000
ENDCHAR
STARTCHAR (for_rename)
ENCODING 12498
SWIDTH 1024 0
DWIDTH 16 0
BBX 16 16 0 -2
BITMAP
0000
0000
0000
1800
0800
0800
08e0
0f00
0800
0800
0800
0800
07f0
0000
0000
0000
ENDCHAR
STARTCHAR (for_rename)
ENCODING 12499
SWIDTH 1024 0
DWIDTH 16 0
BBX 16 16 0 -2
BITMAP
0000
0008
0024
1814
0810
0800
08e0
0f00
0800
0800
0800
0800
07f0
0000
0000
0000
ENDCHAR
STARTCHAR (for_rename)
ENCODING 12500
SWIDTH 1024 0
DWIDTH 16 0
BBX 16 16 0 -2
BITMAP
0000
000c
0012
1812
080c
0800
08e0
0f00
0800
0800
0800
0800
07f0
0000
0000
0000
ENDCHAR
STARTCHAR (for_rename)
ENCODING 12501
SWIDTH 1024 0
DWIDTH 16 0
BBX 16 16 0 -2
BITMAP
0000
0000
0000
20f0
1f10
0010
0020
0020
0040
0040
0080
0100
0200
0c00
0000
0000
ENDCHAR
STARTCHAR (for_rename)
ENCODING 12502
SWIDTH 1024 0
DWIDTH 16 0
BBX 16 16 0 -2
BITMAP
0004
0012
0008
41e0
3e20
0020
0040
0040
0080
0080
0100
0200
0400
1800
0000
0000
ENDCHAR
STARTCHAR (for_rename)
ENCODING 12503
SWIDTH 1024 0
DWIDTH 16 0
BBX 16 16 0 -2
BITMAP
000c
0012
0012
41ec
3e20
0020
0040
0040
0080
0080
0100
0200
0400
1800
0000
0000
ENDCHAR
STARTCHAR (for_rename)
ENCODING 12504
SWIDTH 1024 0
DWIDTH 16 0
BBX 16 16 0 -2
BITMAP
0000
0000
0000
0000
0300
0480
0840
5020
2010
0008
0004
0000
0000
0000
0000
0000
ENDCHAR
STARTCHAR (for_rename)
ENCODING 12505
SWIDTH 1024 0
DWIDTH 16 0
BBX 16 16 0 -2
BITMAP
0000
0000
0008
0024
0010
0300
0480
0840
5020
2010
0008
0004
0000
0000
0000
0000
ENDCHAR
STARTCHAR (for_rename)
ENCODING 12506
SWIDTH 1024 0
DWIDTH 16 0
BBX 16 16 0 -2
BITMAP
0000
0000
0018
0024
0024
0318
0480
0840
5020
2010
0008
0004
0000
0000
0000
0000
ENDCHAR
STARTCHAR (for_rename)
ENCODING 12507
SWIDTH 1024 0
DWIDTH 16 0
BBX 16 16 0 -2
BITMAP
0000
0200
0100
0100
0100
21f8
1f00
0100
0120
1110
1110
1108
2108
0300
0100
0000
ENDCHAR
STARTCHAR (for_rename)
ENCODING 12508
SWIDTH 1024 0
DWIDTH 16 0
BBX 16 16 0 -2
BITMAP
0000
0208
0124
0110
0100
21f8
1f00
0100
0120
1110
1110
1108
2108
0300
0100
0000
ENDCHAR
STARTCHAR (for_rename)
ENCODING 12509
SWIDTH 1024 0
DWIDTH 16 0
BBX 16 16 0 -2
BITMAP
0018
0224
0124
0118
0100
21f8
1f00
0100
0120
1110
1110
1108
2108
0300
0100
0000
ENDCHAR
STARTCHAR (for_rename)
ENCODING 12510
SWIDTH 1024 0
DWIDTH 16 0
BBX 16 16 0 -2
BITMAP
0000
0000
0000
0000
41f0
3e18
0010
0020
0040
0680
0100
0080
0040
0000
0000
0000
ENDCHAR
STARTCHAR (for_rename)
ENCODING 12511
SWIDTH 1024 0
DWIDTH 16 0
BBX 16 16 0 -2
BITMAP
0000
0000
0700
00c0
0000
0000
0700
0080
0000
0000
0e00
0180
0040
0020
0000
0000
ENDCHAR
STARTCHAR (for_rename)
ENCODING 12512
SWIDTH 1024 0
DWIDTH 16 0
BBX 16 16 0 -2
BITMAP
0000
0000
0200
0100
0100
0200
0200
0400
0400
0820
0810
48f8
7f08
0004
0000
0000
ENDCHAR
STARTCHAR (for_rename)
ENCODING 12513
SWIDTH 1024 0
DWIDTH 16 0
BBX 16 16 0 -2
BITMAP
0000
0000
0040
0040
0040
0c80
0280
0100
0280
0240
0440
0800
1000
2000
0000
0000
ENDCHAR
STARTCHAR (for_rename)
ENCODING 12514
SWIDTH 1024 0
DWIDTH 16 0
BBX 16 16 0 -2
BITMAP
0000
0000
0000
01e0
1e00
0200
0200
43f8
3e00
0200
0200
0200
01f0
0000
0000
0000
ENDCHAR
STARTCHAR (for_rename)
ENCODING 12515
SWIDTH 1024 0
DWIDTH 16 0
BBX 16 16 0 -2
BITMAP
0000
0000
0000
0000
0000
0000
0200
0200
02f0
1f10
0220
0240
0200
0100
0100
0100
ENDCHAR
STARTCHAR (for_rename)
ENCODING 12516
SWIDTH 1024 0
DWIDTH 16 0
BBX 16 16 0 -2
BITMAP
0000
0c00
0400
0400
0470
0398
1e10
6220
0240
0200
0100
0100
0100
0100
0100
0000
ENDCHAR
STARTCHAR (for_rename)
ENCODING 12517
SWIDTH 1024 0
DWIDTH 16 0
BBX 16 16 0 -2
BITMAP
0000
0000
0000
0000
0000
0000
0000
0000
0fc0
0040
0040
0040
0040
1ff0
0000
0000
ENDCHAR
STARTCHAR (for_rename)
ENCODING 12518
SWIDTH 1024 0
DWIDTH 16 0
BBX 16 16 0 -2
BITMAP
0000
0000
0000
0000
03c0
1c40
0040
0040
0080
0080
0080
47fc
3800
0000
0000
0000
ENDCHAR
STARTCHAR (for_rename)
ENCODING 12519
SWIDTH 1024 0
DWIDTH 16 0
BBX 16 16 0 -2
BITMAP
0000
0000
0000
0000
0000
0000
0000
0fe0
0020
0020
0fe0
0020
0020
0020
0fe0
0000
ENDCHAR
STARTCHAR (for_rename)
ENCODING 12520
SWIDTH 1024 0
DWIDTH 16 0
BBX 16 16 0 -2
BITMAP
0000
0000
0000
01e0
1e30
0020
0020
01e0
0e20
0020
0020
01e0
1e20
0000
0000
0000
ENDCHAR
STARTCHAR (for_rename)
ENCODING 12521
SWIDTH 1024 0
DWIDTH 16 0
BBX 16 16 0 -2
BITMAP
0000
0000
0060
0f80
0000
0000
11f8
0e10
0010
0020
0020
0040
0080
0100
0600
0000
ENDCHAR
STARTCHAR (for_rename)
ENCODING 12522
SWIDTH 1024 0
DWIDTH 16 0
BBX 16 16 0 -2
BITMAP
0000
0060
0c20
0420
0420
0420
0420
0420
0420
0420
0020
0040
0040
0080
0100
0000
ENDCHAR
STARTCHAR (for_rename)
ENCODING 12523
SWIDTH 1024 0
DWIDTH 16 0
BBX 16 16 0 -2
BITMAP
0000
0000
0000
0180
0880
0480
0480
0482
0482
0884
0888
10b0
20c0
4000
0000
0000
ENDCHAR
STARTCHAR (for_rename)
ENCODING 12524
SWIDTH 1024 0
DWIDTH 16 0
BBX 16 16 0 -2
BITMAP
0000
0000
1800
0800
0800
0800
0800
0804
0808
0810
0820
08c0
0b00
0c00
0000
0000
ENDCHAR
STARTCHAR (for_rename)
ENCODING 12525
SWIDTH 1024 0
DWIDTH 16 0
BBX 16 16 0 -2
BITMAP
0000
0000
0000
0000
01f0
1e18
0810
0810
0810
0810
0820
0820
0ff0
0800
0000
0000
ENDCHAR
STARTCHAR (for_rename)
ENCODING 12526
SWIDTH 1024 0
DWIDTH 16 0
BBX 16 16 0 -2
BITMAP
0000
0000
0000
0000
0000
0000
0000
1fe0
1020
1020
1020
0020
0040
0040
0080
0300
ENDCHAR
STARTCHAR (for_rename)
ENCODING 12527
SWIDTH 1024 0
DWIDTH 16 0
BBX 16 16 0 -2
BITMAP
0000
0000
0000
21f0
1e10
1010
1010
1020
1020
0020
0040
0040
0080
0100
0600
0000
ENDCHAR
STARTCHAR (for_rename)
ENCODING 12528
SWIDTH 1024 0
DWIDTH 16 0
BBX 16 16 0 -2
BITMAP
0000
0300
0100
0100
0100
3fe0
1100
1100
1100
7ff8
0100
0100
0100
0100
0100
0000
ENDCHAR
STARTCHAR (for_rename)
ENCODING 12529
SWIDTH 1024 0
DWIDTH 16 0
BBX 16 16 0 -2
BITMAP
0000
0000
0000
0000
13f0
0c20
0040
0080
0300
0100
0100
01f8
7e04
0000
0000
0000
ENDCHAR
STARTCHAR (for_rename)
ENCODING 12530
SWIDTH 1024 0
DWIDTH 16 0
BBX 16 16 0 -2
BITMAP
0000
0000
0000
23f0
1c20
0020
0020
13e0
1c40
0040
0080
0080
0100
0200
0c00
0000
ENDCHAR
STARTCHAR (for_rename)
ENCODING 12531
SWIDTH 1024 0
DWIDTH 16 0
BBX 16 16 0 -2
BITMAP
0000
0000
0000
1800
0404
0608
0008
0010
0010
0020
0040
0080
1300
0e00
0000
0000
ENDCHAR
STARTCHAR (for_rename)
ENCODING 12532
SWIDTH 1024 0
DWIDTH 16 0
BBX 16 16 0 -2
BITMAP
0004
0012
060a
0208
4200
3ff0
2020
2020
2020
2040
0040
0080
0100
0200
0c00
0000
ENDCHAR
STARTCHAR (for_rename)
ENCODING 12533
SWIDTH 1024 0
DWIDTH 16 0
BBX 16 16 0 -2
BITMAP
0000
0000
0000
0000
0000
0000
0100
0100
0ff0
0110
0110
0210
0210
0420
0820
10c0
ENDCHAR
STARTCHAR (for_rename)
ENCODING 12534
SWIDTH 1024 0
DWIDTH 16 0
BBX 16 16 0 -2
BITMAP
0000
0000
0000
0000
0000
0400
0400
0800
0ff0
1080
2080
0080
0100
0100
0200
0400
ENDCHAR
STARTCHAR (for_rename)
ENCODING 12539
SWIDTH 1024 0
DWIDTH 16 0
BBX 16 16 0 -2
BITMAP
0000
0000
0000
0000
0000
0000
0180
03c0
03c0
0180
0000
0000
0000
0000
0000
0000
ENDCHAR
STARTCHAR (for_rename)
ENCODING 12540
SWIDTH 1024 0
DWIDTH 16 0
BBX 16 16 0 -2
BITMAP
0000
0000
0000
0000
0000
0000
4000
3ffc
0000
0000
0000
0000
0000
0000
0000
0000
ENDCHAR
STARTCHAR (for_rename)
ENCODING 12541
SWIDTH 1024 0
DWIDTH 16 0
BBX 16 16 0 -2
BITMAP
0000
0000
0000
0000
0000
0400
0200
0100
0080
00c0
0040
0040
0000
0000
0000
0000
ENDCHAR
STARTCHAR (for_rename)
ENCODING 12542
SWIDTH 1024 0
DWIDTH 16 0
BBX 16 16 0 -2
BITMAP
0000
0000
0020
0010
0080
0840
0400
0200
0100
0180
0080
0080
0000
0000
0000
0000
ENDCHAR
STARTCHAR (for_rename)
ENCODING 19968
SWIDTH 1024 0
DWIDTH 16 0
BBX 16 16 0 -2
BITMAP
0000
0000
0000
0000
0000
0000
0000
fffe
0000
0000
0000
0000
0000
0000
0000
0000
ENDCHAR
STARTCHAR (for_rename)
ENCODING 19969
SWIDTH 1024 0
DWIDTH 16 0
BBX 16 16 0 -2
BITMAP
0000
fffe
0080
0080
0080
0080
0080
0080
0080
0080
0080
0080
0080
0080
0080
0700
ENDCHAR
STARTCHAR (for_rename)
ENCODING 19971
SWIDTH 1024 0
DWIDTH 16 0
BBX 16 16 0 -2
BITMAP
0800
0800
0800
0800
0800
fffe
0800
0800
0800
0800
0800
0800
0804
0804
07fc
0000
ENDCHAR
STARTCHAR (for_rename)
ENCODING 19975
SWIDTH 1024 0
DWIDTH 16 0
BBX 16 16 0 -2
BITMAP
0000
0000
fffe
0200
0200
0200
03f8
0208
0208
0408
0408
0808
0808
1008
2010
4060
ENDCHAR
STARTCHAR (for_rename)
ENCODING 19976
SWIDTH 1024 0
DWIDTH 16 0
BBX 16 16 0 -2
BITMAP
0080
0080
0080
fffe
0080
0080
1080
1080
0880
0900
0500
0200
0500
08c0
3030
c00e
ENDCHAR
STARTCHAR (for_rename)
ENCODING 19977
SWIDTH 1024 0
DWIDTH 16 0
BBX 16 16 0 -2
BITMAP
0000
0000
3ff8
0000
0000
0000
0000
1ff0
0000
0000
0000
0000
0000
fffe
0000
0000
ENDCHAR
STARTCHAR (for_rename)
ENCODING 19978
SWIDTH 1024 0
DWIDTH 16 0
BBX 16 16 0 -2
BITMAP
0200
0200
0200
0200
0200
0200
03f8
0200
0200
0200
0200
0200
0200
0200
fffe
0000
ENDCHAR
STARTCHAR (for_rename)
ENCODING 19979
SWIDTH 1024 0
DWIDTH 16 0
BBX 16 16 0 -2
BITMAP
0000
fffe
0100
0100
0100
0100
01c0
0120
0110
0108
0100
0100
0100
0100
0100
0100
ENDCHAR
STARTCHAR (for_rename)
ENCODING 19981
SWIDTH 1024 0
DWIDTH 16 0
BBX 16 16 0 -2
BITMAP
0000
fffe
0080
0100
0300
0300
0520
0910
1108
6104
8104
0100
0100
0100
0100
0100
ENDCHAR
STARTCHAR (for_rename)
ENCODING 19982
SWIDTH 1024 0
DWIDTH 16 0
BBX 16 16 0 -2
BITMAP
0800
0800
0ff8
1000
1000
1000
1ff0
2010
0010
0010
fffe
0020
0020
0020
0040
0380
ENDCHAR
STARTCHAR (for_rename)
ENCODING 19984
SWIDTH 1024 0
DWIDTH 16 0
BBX 16 16 0 -2
BITMAP
0000
fffe
0100
0100
2100
21f8
2100
2100
2100
3ffc
2004
2004
0004
0004
0008
0030
ENDCHAR
STARTCHAR (for_rename)
ENCODING 19985
SWIDTH 1024 0
DWIDTH 16 0
BBX 16 16 0 -2
BITMAP
0000
7ff0
0210
0210
0410
0410
0410
fffe
0410
0410
0420
0820
0820
0820
fffc
0000
ENDCHAR
STARTCHAR (for_rename)
ENCODING 19988
SWIDTH 1024 0
DWIDTH 16 0
BBX 16 16 0 -2
BITMAP
0000
1ff0
1010
1010
1010
1ff0
1010
1010
1010
1ff0
1010
1010
1010
1010
fffe
0000
ENDCHAR
STARTCHAR (for_rename)
ENCODING 19989
SWIDTH 1024 0
DWIDTH 16 0
BBX 16 16 0 -2
BITMAP
0000
fffe
0040
0080
0100
0240
0320
0510
0908
1104
6104
0100
0100
0100
0000
fffe
ENDCHAR
STARTCHAR (for_rename)
ENCODING 19990
SWIDTH 1024 0
DWIDTH 16 0
BBX 16 16 0 -2
BITMAP
2108
2108
2108
2108
fffe
2108
2108
2108
2108
2108
21f8
2000
2000
2000
3ffe
2000
ENDCHAR
STARTCHAR (for_rename)
ENCODING 19991
SWIDTH 1024 0
DWIDTH 16 0
BBX 16 16 0 -2
BITMAP
0100
2108
2108
2108
2108
fffe
2108
2108
2108
2108
2108
2108
2108
2108
3ff8
2008
ENDCHAR
STARTCHAR (for_rename)
ENCODING 19992
SWIDTH 1024 0
DWIDTH 16 0
BBX 16 16 0 -2
BITMAP
0070
1f80
1000
1000
1000
1000
1ff8
1020
1020
1020
1020
1020
1040
1040
1040
fffe
ENDCHAR
STARTCHAR (for_rename)
ENCODING 19993
SWIDTH 1024 0
DWIDTH 16 0
BBX 16 16 0 -2
BITMAP
0000
fffe
0100
0100
7ffc
4104
4104
4284
4444
4424
4814
5014
6004
4004
4004
401c
ENDCHAR
STARTCHAR (for_rename)
ENCODING 19998
SWIDTH 1024 0
DWIDTH 16 0
BBX 16 16 0 -2
BITMAP
0000
3ff8
0010
0020
0140
fd84
0548
0950
0920
1110
2108
c106
0700
0000
0000
7ffc
ENDCHAR
STARTCHAR (for_rename)
ENCODING 20001
SWIDTH 1024 0
DWIDTH 16 0
BBX 16 16 0 -2
BITMAP
0000
fffe
0100
0100
7ffc
4104
4104
4924
4924
4924
4924
4924
4fe4
4824
4004
400c
ENDCHAR
STARTCHAR (for_rename)
ENCODING 20006
SWIDTH 1024 0
DWIDTH 16 0
BBX 16 16 0 -2
BITMAP
2008
1010
0820
7ffc
0440
0440
0440
0444
4444
2448
2448
1450
1450
0440
0440
fffe
ENDCHAR
STARTCHAR (for_rename)
ENCODING 20010
SWIDTH 1024 0
DWIDTH 16 0
BBX 16 16 0 -2
BITMAP
0100
0100
0280
0440
0820
1110
2108
4106
8100
0100
0100
0100
0100
0100
0100
0100
ENDCHAR
STARTCHAR (for_rename)
ENCODING 20013
SWIDTH 1024 0
DWIDTH 16 0
BBX 16 16 0 -2
BITMAP
0100
0100
0100
7ffc
4104
4104
4104
4104
4104
4104
7ffc
4104
0100
0100
0100
0100
ENDCHAR
STARTCHAR (for_rename)
ENCODING 20017
SWIDTH 1024 0
DWIDTH 16 0
BBX 16 16 0 -2
BITMAP
0440
0440
0440
4444
4444
4444
4444
4444
4444
7c7c
4444
0444
0840
0840
1040
6040
ENDCHAR
STARTCHAR (for_rename)
ENCODING 20018
SWIDTH 1024 0
DWIDTH 16 0
BBX 16 16 0 -2
BITMAP
0100
0100
7ffc
4104
4104
7ffc
0100
0100
fffe
8102
8102
8102
fffe
0100
0100
0100
ENDCHAR
STARTCHAR (for_rename)
ENCODING 20022
SWIDTH 1024 0
DWIDTH 16 0
BBX 16 16 0 -2
BITMAP
0000
0000
0000
0000
0000
0000
0600
0300
0180
01c0
0080
0000
0000
0000
0000
0000
ENDCHAR
STARTCHAR (for_rename)
ENCODING 20024
SWIDTH 1024 0
DWIDTH 16 0
BBX 16 16 0 -2
BITMAP
0400
0400
0400
ffe0
0420
0420
2420
1420
0820
0820
0c20
1222
1122
2022
4022
801e
ENDCHAR
STARTCHAR (for_rename)
ENCODING 20025
SWIDTH 1024 0
DWIDTH 16 0
BBX 16 16 0 -2
BITMAP
0000
1ff0
1010
1210
1110
1090
1090
1010
fffe
1010
1010
1010
2010
2010
4010
8070
ENDCHAR
STARTCHAR (for_rename)
ENCODING 20027
SWIDTH 1024 0
DWIDTH 16 0
BBX 16 16 0 -2
BITMAP
0200
0100
0080
0080
7ffc
0100
0100
0100
0100
3ff8
0100
0100
0100
0100
fffe
0000
ENDCHAR
STARTCHAR (for_rename)
ENCODING 20028
SWIDTH 1024 0
DWIDTH 16 0
BBX 16 16 0 -2
BITMAP
0820
0820
0820
7ffc
0820
0a20
0920
08a0
08a0
0820
fffe
1020
1020
2020
4020
8020
ENDCHAR
STARTCHAR (for_rename)
ENCODING 20031
SWIDTH 1024 0
DWIDTH 16 0
BBX 16 16 0 -2
BITMAP
0000
0080
0080
0080
0080
0080
0080
0080
0100
0100
0100
0200
0200
0400
0800
1000
ENDCHAR
STARTCHAR (for_rename)
ENCODING 20034
SWIDTH 1024 0
DWIDTH 16 0
BBX 16 16 0 -2
BITMAP
0000
1008
1010
1010
0820
0820
0440
0440
0280
0280
0100
0280
0440
0820
3018
c006
ENDCHAR
STARTCHAR (for_rename)
ENCODING 20035
SWIDTH 1024 0
DWIDTH 16 0
BBX 16 16 0 -2
BITMAP
0000
7ff0
0420
0420
0440
0440
047c
0484
0804
0804
0804
1004
1008
2008
4010
80e0
ENDCHAR
STARTCHAR (for_rename)
ENCODING 20037
SWIDTH 1024 0
DWIDTH 16 0
BBX 16 16 0 -2
BITMAP
0200
0200
0200
07f0
0410
0810
1020
2020
4040
0040
00c0
0120
0210
0c08
3004
c002
ENDCHAR
STARTCHAR (for_rename)
ENCODING 20043
SWIDTH 1024 0
DWIDTH 16 0
BBX 16 16 0 -2
BITMAP
0100
0100
0100
7ff8
0010
0010
0020
0040
0080
0100
0200
1400
1800
2400
4300
80fe
ENDCHAR
STARTCHAR (for_rename)
ENCODING 20045
SWIDTH 1024 0
DWIDTH 16 0
BBX 16 16 0 -2
BITMAP
0800
0800
1000
1ffe
2100
4100
8100
01f8
0100
0100
0100
01fc
0100
0100
0100
0100
ENDCHAR
STARTCHAR (for_rename)
ENCODING 20046
SWIDTH 1024 0
DWIDTH 16 0
BBX 16 16 0 -2
BITMAP
0038
7fc0
0100
0100
2108
1110
0920
0100
fffe
0100
0100
0100
0100
0100
0100
0e00
ENDCHAR
STARTCHAR (for_rename)
ENCODING 20047
SWIDTH 1024 0
DWIDTH 16 0
BBX 16 16 0 -2
BITMAP
0018
7fe0
0100
0100
0100
3ff8
0010
0020
0040
0080
0100
2200
3400
2800
4400
83fe
ENDCHAR
STARTCHAR (for_rename)
ENCODING 20053
SWIDTH 1024 0
DWIDTH 16 0
BBX 16 16 0 -2
BITMAP
0018
3fe0
2080
2080
3ffc
2080
2080
3ffe
2080
2080
2ff8
2888
4888
4888
88b8
0080
ENDCHAR
STARTCHAR (for_rename)
ENCODING 20054
SWIDTH 1024 0
DWIDTH 16 0
BBX 16 16 0 -2
BITMAP
00f8
ff00
0100
0100
fffe
0100
0920
0924
7938
0920
0920
0922
3922
c93e
0100
0100
ENDCHAR
STARTCHAR (for_rename)
ENCODING 20055
SWIDTH 1024 0
DWIDTH 16 0
BBX 16 16 0 -2
BITMAP
0038
3fc0
0100
0100
7ffc
1110
1110
fffe
1110
1110
7ffc
0380
0540
0920
3118
c106
ENDCHAR
STARTCHAR (for_rename)
ENCODING 20056
SWIDTH 1024 0
DWIDTH 16 0
BBX 16 16 0 -2
BITMAP
00f8
7f00
0100
fffe
0100
0920
792c
0930
1922
6b3e
0380
0540
0920
3118
c106
0100
ENDCHAR
STARTCHAR (for_rename)
ENCODING 20057
SWIDTH 1024 0
DWIDTH 16 0
BBX 16 16 0 -2
BITMAP
0000
7ff8
0010
0010
0020
00c0
0100
0600
0800
1000
2000
4000
4004
2004
1ffc
0000
ENDCHAR
STARTCHAR (for_rename)
ENCODING 20061
SWIDTH 1024 0
DWIDTH 16 0
BBX 16 16 0 -2
BITMAP
0400
0400
0400
0400
ffe0
0420
0420
0420
0420
0420
0820
0820
1020
1022
2022
c01e
ENDCHAR
STARTCHAR (for_rename)
ENCODING 20062
SWIDTH 1024 0
DWIDTH 16 0
BBX 16 16 0 -2
BITMAP
0800
0800
1000
3ffc
4000
8000
3fe0
0040
0180
0600
1800
2000
4002
2002
1ffc
0000
ENDCHAR
STARTCHAR (for_rename)
ENCODING 20063
SWIDTH 1024 0
DWIDTH 16 0
BBX 16 16 0 -2
BITMAP
0080
1080
1080
1080
1080
10bc
17c4
f884
1084
1084
1084
1098
1080
1000
1002
0ffe
ENDCHAR
STARTCHAR (for_rename)
ENCODING 20066
SWIDTH 1024 0
DWIDTH 16 0
BBX 16 16 0 -2
BITMAP
1040
1040
1040
9240
9240
9240
9240
9240
9240
9240
9240
9240
fe40
8242
0042
003e
ENDCHAR
STARTCHAR (for_rename)
ENCODING 20081
SWIDTH 1024 0
DWIDTH 16 0
BBX 16 16 0 -2
BITMAP
0320
7c20
0820
0820
0820
ffa0
0820
0820
0820
7f20
4120
4120
4122
4122
7f22
411e
ENDCHAR
STARTCHAR (for_rename)
ENCODING 20083
SWIDTH 1024 0
DWIDTH 16 0
BBX 16 16 0 -2
BITMAP
0340
7c40
0040
4940
2940
2a40
0040
7f40
0240
0440
0840
ff40
0842
0842
0842
183e
ENDCHAR
STARTCHAR (for_rename)
ENCODING 20094
SWIDTH 1024 0
DWIDTH 16 0
BBX 16 16 0 -2
BITMAP
1020
1020
fe40
107e
7e80
4200
427c
7e04
4208
4210
7e20
1040
fe80
1082
1082
107e
ENDCHAR
STARTCHAR (for_rename)
ENCODING 20096
SWIDTH 1024 0
DWIDTH 16 0
BBX 16 16 0 -2
BITMAP
0800
1fe0
2040
7ff8
a108
3ff8
2108
3ff8
0100
7ffc
4104
7ffc
4104
7ffc
0102
01fe
ENDCHAR
STARTCHAR (for_rename)
ENCODING 20098
SWIDTH 1024 0
DWIDTH 16 0
BBX 16 16 0 -2
BITMAP
07a0
7a20
5120
8820
bf20
0220
0420
7fa0
48a0
52a0
5ea0
40a0
7ea0
52a2
4ca2
52be
ENDCHAR
STARTCHAR (for_rename)
ENCODING 20101
SWIDTH 1024 0
DWIDTH 16 0
BBX 16 16 0 -2
BITMAP
0100
0100
0100
0100
0100
0100
0100
0100
0100
0100
0100
0100
0100
0100
0100
0700
ENDCHAR
STARTCHAR (for_rename)
ENCODING 20102
SWIDTH 1024 0
DWIDTH 16 0
BBX 16 16 0 -2
BITMAP
0000
7ffc
0008
0010
0020
0040
0180
0080
0080
0080
0080
0080
0080
0080
0080
0700
ENDCHAR
STARTCHAR (for_rename)
ENCODING 20104
SWIDTH 1024 0
DWIDTH 16 0
BBX 16 16 0 -2
BITMAP
0000
3ff8
0010
0c20
0240
0180
0040
fffe
0082
0084
0088
0080
0080
0080
0080
0380
ENDCHAR
STARTCHAR (for_rename)
ENCODING 20105
SWIDTH 1024 0
DWIDTH 16 0
BBX 16 16 0 -2
BITMAP
0400
0ff0
1020
2040
0080
7ff8
0108
0108
fffe
0108
0108
7ff8
0108
0100
0100
0700
ENDCHAR
STARTCHAR (for_rename)
ENCODING 20106
SWIDTH 1024 0
DWIDTH 16 0
BBX 16 16 0 -2
BITMAP
0100
0100
fffe
0110
1110
0920
3ff8
0108
0108
fffe
0108
0108
3ff8
0100
0100
0700
ENDCHAR
STARTCHAR (for_rename)
ENCODING 20107
SWIDTH 1024 0
DWIDTH 16 0
BBX 16 16 0 -2
BITMAP
0100
0100
fffe
0100
3ff8
2108
3ff8
0100
7ffc
0104
fffe
0104
7ffc
0100
0100
0700
ENDCHAR
STARTCHAR (for_rename)
ENCODING 20108
SWIDTH 1024 0
DWIDTH 16 0
BBX 16 16 0 -2
BITMAP
0000
0000
0000
3ff8
0000
0000
0000
0000
0000
0000
0000
0000
fffe
0000
0000
0000
ENDCHAR
STARTCHAR (for_rename)
ENCODING 20110
SWIDTH 1024 0
DWIDTH 16 0
BBX 16 16 0 -2
BITMAP
0000
7ffc
0100
0100
0100
0100
fffe
0100
0100
0100
0100
0100
0100
0100
0100
0700
ENDCHAR
STARTCHAR (for_rename)
ENCODING 20113
SWIDTH 1024 0
DWIDTH 16 0
BBX 16 16 0 -2
BITMAP
0000
3ff8
0000
0000
0000
0000
fffe
0200
0200
0420
0410
0808
08f8
7f04
0004
0000
ENDCHAR
STARTCHAR (for_rename)
ENCODING 20114
SWIDTH 1024 0
DWIDTH 16 0
BBX 16 16 0 -2
BITMAP
0000
7ffc
0400
0400
0400
07f0
0410
0810
0810
0810
0ff0
0820
0020
0020
0020
fffe
ENDCHAR
STARTCHAR (for_rename)
ENCODING 20116
SWIDTH 1024 0
DWIDTH 16 0
BBX 16 16 0 -2
BITMAP
0000
0000
7ffc
0100
0100
0100
0100
3ff8
0208
0208
0208
0208
0408
0408
fffe
0000
ENDCHAR
STARTCHAR (for_rename)
ENCODING 20117
SWIDTH 1024 0
DWIDTH 16 0
BBX 16 16 0 -2
BITMAP
0820
0820
0820
0820
7ffc
0820
0820
0820
0820
fffe
0820
0820
1020
1020
2020
4020
ENDCHAR
STARTCHAR (for_rename)
ENCODING 20120
SWIDTH 1024 0
DWIDTH 16 0
BBX 16 16 0 -2
BITMAP
0000
7ffc
0000
0000
1ff0
1010
1010
1ff0
1010
1010
1010
1ff0
0000
0000
fffe
0000
ENDCHAR
STARTCHAR (for_rename)
ENCODING 20121
SWIDTH 1024 0
DWIDTH 16 0
BBX 16 16 0 -2
BITMAP
0000
7ffc
0400
0400
07f0
0810
0810
0b10
0890
1010
1620
11a0
0020
0020
fffe
0000
ENDCHAR
STARTCHAR (for_rename)
ENCODING 20123
SWIDTH 1024 0
DWIDTH 16 0
BBX 16 16 0 -2
BITMAP
0840
0840
484c
4f70
4840
4840
4840
4f42
f03e
0000
0000
1ff0
0000
0000
0000
fffe
ENDCHAR
STARTCHAR (for_rename)
ENCODING 20124
SWIDTH 1024 0
DWIDTH 16 0
BBX 16 16 0 -2
BITMAP
0000
7ffc
0440
0440
0440
7ffc
4444
4444
4444
4444
7ffc
4444
0440
0440
0440
fffe
ENDCHAR
STARTCHAR (for_rename)
ENCODING 20126
SWIDTH 1024 0
DWIDTH 16 0
BBX 16 16 0 -2
BITMAP
0000
7ffc
0440
0440
0440
7c7c
4444
4004
4004
4004
7c7c
4444
0440
0440
0440
fffe
ENDCHAR
STARTCHAR (for_rename)
ENCODING 20127
SWIDTH 1024 0
DWIDTH 16 0
BBX 16 16 0 -2
BITMAP
0000
7ffc
0400
0400
0800
0f80
00be
7884
4894
4888
4888
7894
48a2
0380
0000
fffe
ENDCHAR
STARTCHAR (for_rename)
ENCODING 20128
SWIDTH 1024 0
DWIDTH 16 0
BBX 16 16 0 -2
BITMAP
0000
0000
0000
0000
0100
0100
0100
0100
fffe
0000
0000
0000
0000
0000
0000
0000
ENDCHAR
STARTCHAR (for_rename)
ENCODING 20129
SWIDTH 1024 0
DWIDTH 16 0
BBX 16 16 0 -2
BITMAP
0100
0100
0100
fffe
2000
2000
2000
2000
2000
2000
2000
2000
2000
2000
2000
1ffc
ENDCHAR
STARTCHAR (for_rename)
ENCODING 20130
SWIDTH 1024 0
DWIDTH 16 0
BBX 16 16 0 -2
BITMAP
0100
0100
fffe
0000
0000
0fc0
0840
0840
0840
0840
0840
1040
1040
2042
4042
803e
ENDCHAR
STARTCHAR (for_rename)
ENCODING 20132
SWIDTH 1024 0
DWIDTH 16 0
BBX 16 16 0 -2
BITMAP
0100
0100
fffe
0000
0820
1010
2008
4824
8444
0280
0100
0280
0440
0820
3018
c006
ENDCHAR
STARTCHAR (for_rename)
ENCODING 20133
SWIDTH 1024 0
DWIDTH 16 0
BBX 16 16 0 -2
BITMAP
0100
0100
fffe
0000
0200
2420
1840
0488
0310
0420
1840
6080
0140
0630
1808
e004
ENDCHAR
STARTCHAR (for_rename)
ENCODING 20134
SWIDTH 1024 0
DWIDTH 16 0
BBX 16 16 0 -2
BITMAP
0100
0100
0100
fffe
0440
0440
2450
2448
2448
4444
4444
8842
0842
1040
2040
c1c0
ENDCHAR
STARTCHAR (for_rename)
ENCODING 20136
SWIDTH 1024 0
DWIDTH 16 0
BBX 16 16 0 -2
BITMAP
0100
fffe
0000
3ff0
2010
2010
3ff0
0000
7ff8
0010
0260
0180
0100
0100
0100
0700
ENDCHAR
STARTCHAR (for_rename)
ENCODING 20139
SWIDTH 1024 0
DWIDTH 16 0
BBX 16 16 0 -2
BITMAP
0100
fffe
0000
3ff0
2010
2010
3ff0
0000
7ff8
0030
00c0
0100
fffe
0100
0100
0700
ENDCHAR
STARTCHAR (for_rename)
ENCODING 20140
SWIDTH 1024 0
DWIDTH 16 0
BBX 16 16 0 -2
BITMAP
0100
0100
fffe
0000
0000
1ff8
1008
1008
1008
1ff8
0100
0920
1110
2108
c104
0700
ENDCHAR
STARTCHAR (for_rename)
ENCODING 20141
SWIDTH 1024 0
DWIDTH 16 0
BBX 16 16 0 -2
BITMAP
0100
fffe
0000
3ff8
2008
2008
3ff8
0000
fffe
8002
bffa
8102
0100
0100
0100
0700
ENDCHAR
STARTCHAR (for_rename)
ENCODING 20142
SWIDTH 1024 0
DWIDTH 16 0
BBX 16 16 0 -2
BITMAP
0100
0100
fffe
0000
3ff8
2008
3ff8
0000
fffe
8002
8484
0480
0880
0880
1082
607e
ENDCHAR
STARTCHAR (for_rename)
ENCODING 20144
SWIDTH 1024 0
DWIDTH 16 0
BBX 16 16 0 -2
BITMAP
0100
0100
fffe
0000
1ff0
1010
1010
1ff0
1010
1010
1ff0
0100
0920
1110
2108
4304
ENDCHAR
STARTCHAR (for_rename)
ENCODING 20147
SWIDTH 1024 0
DWIDTH 16 0
BBX 16 16 0 -2
BITMAP
0100
fffe
0000
1ff0
1010
1ff0
0000
fffe
8002
9fe2
0200
0200
7ff8
0200
0202
01fe
ENDCHAR
STARTCHAR (for_rename)
ENCODING 20150
SWIDTH 1024 0
DWIDTH 16 0
BBX 16 16 0 -2
BITMAP
0100
fffe
0000
3ff8
2448
27c8
2008
3ff8
0000
1ff0
1010
1ff0
1010
1ff0
0000
fffe
ENDCHAR
STARTCHAR (for_rename)
ENCODING 20154
SWIDTH 1024 0
DWIDTH 16 0
BBX 16 16 0 -2
BITMAP
0080
0080
0080
0080
0100
0100
0100
0280
0280
0440
0440
0820
1010
2008
4004
8002
ENDCHAR
STARTCHAR (for_rename)
ENCODING 20160
SWIDTH 1024 0
DWIDTH 16 0
BBX 16 16 0 -2
BITMAP
1020
1020
1020
2020
2020
3020
57fe
5020
9020
9020
1020
1020
1020
1020
1020
1020
ENDCHAR
STARTCHAR (for_rename)
ENCODING 20161
SWIDTH 1024 0
DWIDTH 16 0
BBX 16 16 0 -2
BITMAP
0400
0800
0800
13fc
1000
3000
3000
5000
9000
1000
1000
1000
1000
17fe
1000
1000
ENDCHAR
STARTCHAR (for_rename)
ENCODING 20162
SWIDTH 1024 0
DWIDTH 16 0
BBX 16 16 0 -2
BITMAP
0840
0840
1040
1040
2040
37fc
5044
5044
9084
1084
1084
1104
1104
1204
1408
1030
ENDCHAR
STARTCHAR (for_rename)
ENCODING 20164
SWIDTH 1024 0
DWIDTH 16 0
BBX 16 16 0 -2
BITMAP
0000
7ffe
4000
4080
4080
4080
4080
4140
4140
4140
4220
4220
4410
4808
9004
a002
ENDCHAR
STARTCHAR (for_rename)
ENCODING 20166
SWIDTH 1024 0
DWIDTH 16 0
BBX 16 16 0 -2
BITMAP
0840
0840
1040
1040
2040
3060
5050
5048
9044
1042
1040
1040
1040
1040
1040
1040
ENDCHAR
STARTCHAR (for_rename)
ENCODING 20167
SWIDTH 1024 0
DWIDTH 16 0
BBX 16 16 0 -2
BITMAP
0480
0880
0880
1080
17f8
3088
3088
5088
5088
9088
1108
1108
1108
1208
120a
140e
ENDCHAR
STARTCHAR (for_rename)
ENCODING 20170
SWIDTH 1024 0
DWIDTH 16 0
BBX 16 16 0 -2
BITMAP
0100
0280
0440
0820
1010
2008
cfe6
0000
0000
7ff8
0008
0010
0010
0020
0040
0380
ENDCHAR
STARTCHAR (for_rename)
ENCODING 20171
SWIDTH 1024 0
DWIDTH 16 0
BBX 16 16 0 -2
BITMAP
0100
0280
0440
0820
1010
2008
4824
8822
0820
0820
0820
1020
1020
1020
2020
4020
ENDCHAR
STARTCHAR (for_rename)
ENCODING 20173
SWIDTH 1024 0
DWIDTH 16 0
BBX 16 16 0 -2
BITMAP
1000
17f0
1110
2110
2120
4120
613c
a124
a104
2204
2204
2208
2208
2408
2808
2030
ENDCHAR
STARTCHAR (for_rename)
ENCODING 20174
SWIDTH 1024 0
DWIDTH 16 0
BBX 16 16 0 -2
BITMAP
0020
1020
1020
1020
1020
1020
1020
1020
1850
1450
2250
2288
2088
4104
8204
0c02
ENDCHAR
STARTCHAR (for_rename)
ENCODING 20175
SWIDTH 1024 0
DWIDTH 16 0
BBX 16 16 0 -2
BITMAP
0400
0410
0810
0810
1010
1020
3020
3020
5040
9040
1080
1088
1104
111e
17e2
1002
ENDCHAR
STARTCHAR (for_rename)
ENCODING 20180
SWIDTH 1024 0
DWIDTH 16 0
BBX 16 16 0 -2
BITMAP
1000
13fc
1004
2008
2030
2020
4020
6020
a7fe
2020
2020
2020
2020
2020
2020
20e0
ENDCHAR
STARTCHAR (for_rename)
ENCODING 20181
SWIDTH 1024 0
DWIDTH 16 0
BBX 16 16 0 -2
BITMAP
0840
0840
1040
1040
2040
2ffe
6040
6040
a040
2040
2040
2040
2040
2040
27fc
2000
ENDCHAR
STARTCHAR (for_rename)
ENCODING 20182
SWIDTH 1024 0
DWIDTH 16 0
BBX 16 16 0 -2
BITMAP
0820
1120
1120
2120
212e
61f2
6f22
a122
2122
2122
2126
2120
2100
2102
2102
20fe
ENDCHAR
STARTCHAR (for_rename)
ENCODING 20183
SWIDTH 1024 0
DWIDTH 16 0
BBX 16 16 0 -2
BITMAP
1020
1020
1020
2020
2ffe
4020
6220
a220
a140
2140
2080
2080
2140
2220
2418
2806
ENDCHAR
STARTCHAR (for_rename)
ENCODING 20184
SWIDTH 1024 0
DWIDTH 16 0
BBX 16 16 0 -2
BITMAP
0808
1008
1008
2008
27fe
6008
6008
a208
a108
2088
2088
2008
2008
2008
2008
2038
ENDCHAR
STARTCHAR (for_rename)
ENCODING 20185
SWIDTH 1024 0
DWIDTH 16 0
BBX 16 16 0 -2
BITMAP
0820
1020
1020
2020
2020
6222
6222
a222
2222
2222
2222
2222
2222
2222
23fe
2202
ENDCHAR
STARTCHAR (for_rename)
ENCODING 20189
SWIDTH 1024 0
DWIDTH 16 0
BBX 16 16 0 -2
BITMAP
0100
0100
0280
0440
0820
1010
2008
4004
bffa
0100
0100
0100
0100
0100
fffe
0000
ENDCHAR
STARTCHAR (for_rename)
ENCODING 20190
SWIDTH 1024 0
DWIDTH 16 0
BBX 16 16 0 -2
BITMAP
1000
17fc
1044
2044
2044
4244
6244
a484
a484
2084
2088
2108
2108
2208
2408
2830
ENDCHAR
STARTCHAR (for_rename)
ENCODING 20191
SWIDTH 1024 0
DWIDTH 16 0
BBX 16 16 0 -2
BITMAP
0018
10e0
1740
1040
2040
2040
4040
6ffe
a040
a040
2040
2040
2040
2040
2040
2040
ENDCHAR
STARTCHAR (for_rename)
ENCODING 20195
SWIDTH 1024 0
DWIDTH 16 0
BBX 16 16 0 -2
BITMAP
0880
1098
1084
2080
2080
6ffe
6080
a080
2040
2040
2040
2020
2020
2012
200a
2006
ENDCHAR
STARTCHAR (for_rename)
ENCODING 20196
SWIDTH 1024 0
DWIDTH 16 0
BBX 16 16 0 -2
BITMAP
0100
0280
0440
0820
1010
2008
5ff4
8002
0000
3ff8
0208
0208
0208
0208
0230
0200
ENDCHAR
STARTCHAR (for_rename)
ENCODING 20197
SWIDTH 1024 0
DWIDTH 16 0
BBX 16 16 0 -2
BITMAP
2008
2408
2208
2108
2088
2088
2008
2008
2010
2010
2110
2230
2c28
3044
c082
0302
ENDCHAR
STARTCHAR (for_rename)
ENCODING 20205
SWIDTH 1024 0
DWIDTH 16 0
BBX 16 16 0 -2
BITMAP
1000
17fc
1084
2084
2484
4484
6284
a284
a284
2104
2188
2148
2238
220e
2408
2830
ENDCHAR
STARTCHAR (for_rename)
ENCODING 20206
SWIDTH 1024 0
DWIDTH 16 0
BBX 16 16 0 -2
BITMAP
0800
13fe
1200
2200
2200
63f8
6208
a208
2208
2290
2490
2450
2420
2850
2888
3306
ENDCHAR
STARTCHAR (for_rename)
ENCODING 20208
SWIDTH 1024 0
DWIDTH 16 0
BBX 16 16 0 -2
BITMAP
1000
11be
2622
2422
6422
6422
a422
2422
2422
2422
24a2
2722
2c2c
2020
2020
2020
ENDCHAR
STARTCHAR (for_rename)
ENCODING 20210
SWIDTH 1024 0
DWIDTH 16 0
BBX 16 16 0 -2
BITMAP
0840
1040
1040
2040
27fe
6442
6442
a442
2442
2442
27fe
2440
2040
2040
2040
2040
ENDCHAR
STARTCHAR (for_rename)
ENCODING 20214
SWIDTH 1024 0
DWIDTH 16 0
BBX 16 16 0 -2
BITMAP
0820
0920
1120
1220
23fc
2420
6820
6020
a020
affe
2020
2020
2020
2020
2020
2020
ENDCHAR
STARTCHAR (for_rename)
ENCODING 20215
SWIDTH 1024 0
DWIDTH 16 0
BBX 16 16 0 -2
BITMAP
1040
10a0
1120
2110
2208
4404
6512
a910
a110
2110
2110
2110
2210
2210
2410
2810
ENDCHAR
STARTCHAR (for_rename)
ENCODING 20219
SWIDTH 1024 0
DWIDTH 16 0
BBX 16 16 0 -2
BITMAP
0800
100c
17f0
2040
2040
6040
6040
a040
2ffe
2040
2040
2040
2040
2040
2040
27fc
ENDCHAR
STARTCHAR (for_rename)
ENCODING 20225
SWIDTH 1024 0
DWIDTH 16 0
BBX 16 16 0 -2
BITMAP
0100
0280
0440
0820
1010
2108
c106
0100
1100
11f8
1100
1100
1100
1100
fffe
0000
ENDCHAR
STARTCHAR (for_rename)
ENCODING 20233
SWIDTH 1024 0
DWIDTH 16 0
BBX 16 16 0 -2
BITMAP
1040
1040
2040
2ffe
2000
4000
61f0
a110
a110
2110
2110
2110
2210
2212
2412
281e
ENDCHAR
STARTCHAR (for_rename)
ENCODING 20234
SWIDTH 1024 0
DWIDTH 16 0
BBX 16 16 0 -2
BITMAP
0800
13fc
1044
2044
2044
67fe
6044
a044
a044
27fc
2044
2040
2080
2080
2100
2200
ENDCHAR
STARTCHAR (for_rename)
ENCODING 20237
SWIDTH 1024 0
DWIDTH 16 0
BBX 16 16 0 -2
BITMAP
1000
17fc
1080
2080
2080
4080
67f8
a108
a108
2108
2108
2108
2108
2108
2ffe
2000
ENDCHAR
STARTCHAR (for_rename)
ENCODING 20238
SWIDTH 1024 0
DWIDTH 16 0
BBX 16 16 0 -2
BITMAP
0420
0420
0820
0bfe
1020
3020
3020
53fc
9004
1104
1088
1050
1020
1050
1188
1606
ENDCHAR
STARTCHAR (for_rename)
ENCODING 20239
SWIDTH 1024 0
DWIDTH 16 0
BBX 16 16 0 -2
BITMAP
0840
1048
1044
2044
2040
6ffe
6040
a040
20a0
20a0
2110
2110
2208
2404
2802
2000
ENDCHAR
STARTCHAR (for_rename)
ENCODING 20240
SWIDTH 1024 0
DWIDTH 16 0
BBX 16 16 0 -2
BITMAP
0840
1048
1044
2040
207e
6fc0
6040
a044
2044
2028
2030
2020
2050
2090
210a
2606
ENDCHAR
STARTCHAR (for_rename)
ENCODING 20241
SWIDTH 1024 0
DWIDTH 16 0
BBX 16 16 0 -2
BITMAP
0840
1040
1040
2040
2ffe
6040
60c0
a0e0
2160
2150
2248
2444
2842
2040
2040
2040
ENDCHAR
STARTCHAR (for_rename)
ENCODING 20250
SWIDTH 1024 0
DWIDTH 16 0
BBX 16 16 0 -2
BITMAP
0300
0480
0840
1020
2010
4008
9fe6
0000
0000
0000
7ff8
0400
0800
0820
10f0
7f08
ENDCHAR
STARTCHAR (for_rename)
ENCODING 20252
SWIDTH 1024 0
DWIDTH 16 0
BBX 16 16 0 -2
BITMAP
1080
1080
17f0
2090
2110
4112
621e
ac40
a040
2040
2ffe
2040
2040
2040
2040
2040
ENDCHAR
STARTCHAR (for_rename)
ENCODING 20253
SWIDTH 1024 0
DWIDTH 16 0
BBX 16 16 0 -2
BITMAP
0800
13fc
1000
2000
2000
6000
67fe
a040
a040
2080
2080
2100
2108
223c
2fc2
2002
ENDCHAR
STARTCHAR (for_rename)
ENCODING 20271
SWIDTH 1024 0
DWIDTH 16 0
BBX 16 16 0 -2
BITMAP
0840
1080
13fe
2202
2202
6202
6202
a202
23fe
2202
2202
2202
2202
2202
23fe
2202
ENDCHAR
STARTCHAR (for_rename)
ENCODING 20272
SWIDTH 1024 0
DWIDTH 16 0
BBX 16 16 0 -2
BITMAP
1040
1040
1040
2040
2ffe
4040
6040
a040
a040
27fc
2404
2404
2404
2404
27fc
2404
ENDCHAR
STARTCHAR (for_rename)
ENCODING 20276
SWIDTH 1024 0
DWIDTH 16 0
BBX 16 16 0 -2
BITMAP
0840
1248
1248
2150
2150
6040
67fc
a040
a040
2040
2ffe
2040
2040
2040
2040
2040
ENDCHAR
STARTCHAR (for_rename)
ENCODING 20278
SWIDTH 1024 0
DWIDTH 16 0
BBX 16 16 0 -2
BITMAP
0880
0880
1140
1220
2210
25e8
6806
a000
aff8
2108
2108
2108
2108
2130
2100
2100
ENDCHAR
STARTCHAR (for_rename)
ENCODING 20280
SWIDTH 1024 0
DWIDTH 16 0
BBX 16 16 0 -2
BITMAP
0420
0820
0820
13fe
1222
3222
3222
53fe
9222
1222
1222
13fe
1020
1020
1020
1020
ENDCHAR
STARTCHAR (for_rename)
ENCODING 20282
SWIDTH 1024 0
DWIDTH 16 0
BBX 16 16 0 -2
BITMAP
1000
17fe
1002
2002
27f2
6002
6002
a3e2
2222
2222
2222
2222
23e2
2222
2002
2006
ENDCHAR
STARTCHAR (for_rename)
ENCODING 20284
SWIDTH 1024 0
DWIDTH 16 0
BBX 16 16 0 -2
BITMAP
0800
1204
1204
2244
2244
6224
6224
a224
a204
2204
2248
2288
2314
2624
2842
2082
ENDCHAR
STARTCHAR (for_rename)
ENCODING 20285
SWIDTH 1024 0
DWIDTH 16 0
BBX 16 16 0 -2
BITMAP
1100
1100
1100
2100
2fde
6252
6252
a252
a252
2252
2252
2452
2452
2452
245e
2992
ENDCHAR
STARTCHAR (for_rename)
ENCODING 20291
SWIDTH 1024 0
DWIDTH 16 0
BBX 16 16 0 -2
BITMAP
1000
17fc
1444
2444
2444
4444
6444
a7fc
a444
a444
2444
2444
2444
27fc
2404
2404
ENDCHAR
STARTCHAR (for_rename)
ENCODING 20294
SWIDTH 1024 0
DWIDTH 16 0
BBX 16 16 0 -2
BITMAP
0800
13f8
1208
2208
2208
6208
63f8
a208
2208
2208
2208
23f8
2000
2000
2ffe
2000
ENDCHAR
STARTCHAR (for_rename)
ENCODING 20295
SWIDTH 1024 0
DWIDTH 16 0
BBX 16 16 0 -2
BITMAP
1040
1040
1040
27fe
2402
4402
6000
a7fe
a020
2020
2020
2020
2020
2020
2020
20e0
ENDCHAR
STARTCHAR (for_rename)
ENCODING 20301
SWIDTH 1024 0
DWIDTH 16 0
BBX 16 16 0 -2
BITMAP
0840
1040
1040
2040
27fc
6008
6208
a208
a208
2108
2108
2110
2110
2110
2ffe
2000
ENDCHAR
STARTCHAR (for_rename)
ENCODING 20302
SWIDTH 1024 0
DWIDTH 16 0
BBX 16 16 0 -2
BITMAP
080c
13f0
1220
2220
2220
63fe
6220
a220
a210
2210
2210
22c8
230a
2c06
2000
27fc
ENDCHAR
STARTCHAR (for_rename)
ENCODING 20303
SWIDTH 1024 0
DWIDTH 16 0
BBX 16 16 0 -2
BITMAP
0880
1040
1020
2000
2ffe
6040
6040
a040
2040
27fc
2040
2040
2040
2040
2040
2ffe
ENDCHAR
STARTCHAR (for_rename)
ENCODING 20304
SWIDTH 1024 0
DWIDTH 16 0
BBX 16 16 0 -2
BITMAP
0840
1040
1040
2080
2ffe
6080
6100
a100
a200
25fc
2820
2020
2020
2020
2020
27fe
ENDCHAR
STARTCHAR (for_rename)
ENCODING 20305
SWIDTH 1024 0
DWIDTH 16 0
BBX 16 16 0 -2
BITMAP
1040
1040
1080
2080
2ffe
4100
6100
a200
a200
a5fc
2504
2904
2104
2104
21fc
2104
ENDCHAR
STARTCHAR (for_rename)
ENCODING 20307
SWIDTH 1024 0
DWIDTH 16 0
BBX 16 16 0 -2
BITMAP
0840
1040
1040
2040
2ffe
6040
60c0
a0e0
2150
2248
2444
2842
23f8
2040
2040
2040
ENDCHAR
STARTCHAR (for_rename)
ENCODING 20309
SWIDTH 1024 0
DWIDTH 16 0
BBX 16 16 0 -2
BITMAP
0800
1000
17fe
2008
2008
6008
67c8
a448
a448
2448
2448
27c8
2448
2008
2008
2038
ENDCHAR
STARTCHAR (for_rename)
ENCODING 20311
SWIDTH 1024 0
DWIDTH 16 0
BBX 16 16 0 -2
BITMAP
1040
1040
1040
27fe
2402
4502
6100
a108
a130
21c0
2100
2100
2100
2100
2102
20fe
ENDCHAR
STARTCHAR (for_rename)
ENCODING 20313
SWIDTH 1024 0
DWIDTH 16 0
BBX 16 16 0 -2
BITMAP
0100
0280
0440
0820
1010
2008
5ff4
8102
0100
0100
3ff8
0100
0920
1110
2108
c706
ENDCHAR
STARTCHAR (for_rename)
ENCODING 20314
SWIDTH 1024 0
DWIDTH 16 0
BBX 16 16 0 -2
BITMAP
1040
1240
1240
27fc
2440
4840
6040
affe
a040
20a0
20a0
2110
2110
2208
2404
2802
ENDCHAR
STARTCHAR (for_rename)
ENCODING 20315
SWIDTH 1024 0
DWIDTH 16 0
BBX 16 16 0 -2
BITMAP
1120
1120
17fc
2124
2124
4ffc
6924
a920
affe
2922
2122
2122
222c
2220
2420
2820
ENDCHAR
STARTCHAR (for_rename)
ENCODING 20316
SWIDTH 1024 0
DWIDTH 16 0
BBX 16 16 0 -2
BITMAP
0880
1080
1080
2100
21fe
6240
6440
a840
207e
2040
2040
2040
207e
2040
2040
2040
ENDCHAR
STARTCHAR (for_rename)
ENCODING 20317
SWIDTH 1024 0
DWIDTH 16 0
BBX 16 16 0 -2
BITMAP
1100
1100
1200
23fc
2404
4804
63e4
a224
a224
2224
23e4
2224
2004
2004
2008
2030
ENDCHAR
STARTCHAR (for_rename)
ENCODING 20318
SWIDTH 1024 0
DWIDTH 16 0
BBX 16 16 0 -2
BITMAP
0800
17f8
1000
2000
2ffe
4000
6080
a080
affe
2108
2110
22d0
2020
2058
2184
2e02
ENDCHAR
STARTCHAR (for_rename)
ENCODING 20329
SWIDTH 1024 0
DWIDTH 16 0
BBX 16 16 0 -2
BITMAP
1000
17fc
1404
2404
25f4
4444
6444
a5f4
a554
2554
2554
2554
2954
2952
2842
3042
ENDCHAR
STARTCHAR (for_rename)
ENCODING 20335
SWIDTH 1024 0
DWIDTH 16 0
BBX 16 16 0 -2
BITMAP
1208
1110
1020
27fc
2040
4040
63f8
a040
a040
2040
2ffe
2040
2040
2040
2040
2040
ENDCHAR
STARTCHAR (for_rename)
ENCODING 20336
SWIDTH 1024 0
DWIDTH 16 0
BBX 16 16 0 -2
BITMAP
1000
17fe
1020
2020
2040
43fc
6204
a204
a204
23fc
2204
2204
2204
2204
23fc
2204
ENDCHAR
STARTCHAR (for_rename)
ENCODING 20339
SWIDTH 1024 0
DWIDTH 16 0
BBX 16 16 0 -2
BITMAP
0840
1040
17fc
2040
2040
6040
6ffe
a000
2040
2040
27fc
2040
2040
2040
2040
2ffe
ENDCHAR
STARTCHAR (for_rename)
ENCODING 20341
SWIDTH 1024 0
DWIDTH 16 0
BBX 16 16 0 -2
BITMAP
0908
1090
1020
27fc
2110
6110
6110
a110
2ffe
2110
2110
2110
2210
2210
2410
2810
ENDCHAR
STARTCHAR (for_rename)
ENCODING 20342
SWIDTH 1024 0
DWIDTH 16 0
BBX 16 16 0 -2
BITMAP
1040
1040
2040
2ffe
2040
4040
6040
a7fc
a000
2000
23f8
2208
2208
2208
23f8
2208
ENDCHAR
STARTCHAR (for_rename)
ENCODING 20347
SWIDTH 1024 0
DWIDTH 16 0
BBX 16 16 0 -2
BITMAP
1120
1120
1120
2124
2928
4530
6520
a520
a1b0
2328
2d24
2120
2220
2220
2422
283e
ENDCHAR
STARTCHAR (for_rename)
ENCODING 20348
SWIDTH 1024 0
DWIDTH 16 0
BBX 16 16 0 -2
BITMAP
1040
1040
1040
27fe
2000
4110
6208
a404
a910
2110
20a0
2040
20a0
2110
2208
2c06
ENDCHAR
STARTCHAR (for_rename)
ENCODING 20351
SWIDTH 1024 0
DWIDTH 16 0
BBX 16 16 0 -2
BITMAP
1040
1040
2ffe
2040
6040
67fc
a444
2444
2444
27fc
2040
2380
20c0
2120
2218
2c06
ENDCHAR
STARTCHAR (for_rename)
ENCODING 20355
SWIDTH 1024 0
DWIDTH 16 0
BBX 16 16 0 -2
BITMAP
1000
17fc
1404
2404
2404
6404
67fc
a000
a248
2248
2248
2248
2248
2448
244a
280e
ENDCHAR
STARTCHAR (for_rename)
ENCODING 20358
SWIDTH 1024 0
DWIDTH 16 0
BBX 16 16 0 -2
BITMAP
0100
0100
fffe
0100
1110
1110
2928
2928
4544
0380
0540
0920
1110
2108
c106
0100
ENDCHAR
STARTCHAR (for_rename)
ENCODING 20360
SWIDTH 1024 0
DWIDTH 16 0
BBX 16 16 0 -2
BITMAP
1080
11f8
1208
2510
28a0
4040
6080
a340
acfc
2104
2288
2450
2020
2040
2180
2e00
ENDCHAR
STARTCHAR (for_rename)
ENCODING 20363
SWIDTH 1024 0
DWIDTH 16 0
BBX 16 16 0 -2
BITMAP
1002
17e2
2202
2212
63d2
6252
a452
a652
2552
2952
2092
2092
2092
2102
2202
2c06
ENDCHAR
STARTCHAR (for_rename)
ENCODING 20365
SWIDTH 1024 0
DWIDTH 16 0
BBX 16 16 0 -2
BITMAP
1040
1040
27fc
2040
2040
4040
6ffe
a008
a008
a7fe
2008
2108
2088
2008
2008
2038
ENDCHAR
STARTCHAR (for_rename)
ENCODING 20367
SWIDTH 1024 0
DWIDTH 16 0
BBX 16 16 0 -2
BITMAP
1040
1240
1240
27fc
2440
4840
6040
affe
a040
20e0
2150
2248
2444
2842
2040
2040
ENDCHAR
STARTCHAR (for_rename)
ENCODING 20369
SWIDTH 1024 0
DWIDTH 16 0
BBX 16 16 0 -2
BITMAP
1040
1040
17fe
2080
2100
41fc
6304
a504
a9fc
2104
2104
21fc
2104
2104
2104
210c
ENDCHAR
STARTCHAR (for_rename)
ENCODING 20374
SWIDTH 1024 0
DWIDTH 16 0
BBX 16 16 0 -2
BITMAP
0100
0280
0440
0820
1010
2fe8
4006
8000
3ff8
2448
2448
3ff8
2448
2448
2448
2458
ENDCHAR
STARTCHAR (for_rename)
ENCODING 20376
SWIDTH 1024 0
DWIDTH 16 0
BBX 16 16 0 -2
BITMAP
1040
1040
2040
2ffe
2802
4070
6780
a080
a080
20be
2fc0
2080
2080
2080
2082
207e
ENDCHAR
STARTCHAR (for_rename)
ENCODING 20379
SWIDTH 1024 0
DWIDTH 16 0
BBX 16 16 0 -2
BITMAP
0800
1110
1110
2110
2ffe
6110
6110
a110
2110
2110
2ffe
2000
2110
2208
2404
2802
ENDCHAR
STARTCHAR (for_rename)
ENCODING 20381
SWIDTH 1024 0
DWIDTH 16 0
BBX 16 16 0 -2
BITMAP
1040
1040
2040
2ffe
6080
6100
a144
a248
2650
2a20
2220
2210
2210
22c8
2308
2c06
ENDCHAR
STARTCHAR (for_rename)
ENCODING 20384
SWIDTH 1024 0
DWIDTH 16 0
BBX 16 16 0 -2
BITMAP
0440
0440
07fe
0840
0a48
1148
1148
3150
5040
1fff
1060
10a0
1090
1108
1204
1c02
ENDCHAR
STARTCHAR (for_rename)
ENCODING 20385
SWIDTH 1024 0
DWIDTH 16 0
BBX 16 16 0 -2
BITMAP
1000
17fe
1090
2090
2090
6090
67fe
a492
a492
2492
2492
2492
2492
2492
27fe
2402
ENDCHAR
STARTCHAR (for_rename)
ENCODING 20395
SWIDTH 1024 0
DWIDTH 16 0
BBX 16 16 0 -2
BITMAP
0040
1040
13fe
2200
2200
4200
61fc
a000
a080
2ffe
2108
2110
22d0
2020
20d8
2704
ENDCHAR
STARTCHAR (for_rename)
ENCODING 20397
SWIDTH 1024 0
DWIDTH 16 0
BBX 16 16 0 -2
BITMAP
1080
17f8
1088
2ffe
2088
47f8
6080
affe
a000
2524
2802
27f8
2528
2528
2528
2ffe
ENDCHAR
STARTCHAR (for_rename)
ENCODING 20398
SWIDTH 1024 0
DWIDTH 16 0
BBX 16 16 0 -2
BITMAP
0a00
1200
13fe
2400
2800
63f8
6248
a248
2248
2ffe
2488
2488
2488
27fe
2010
2070
ENDCHAR
STARTCHAR (for_rename)
ENCODING 20399
SWIDTH 1024 0
DWIDTH 16 0
BBX 16 16 0 -2
BITMAP
1000
13f8
2008
2008
6ffe
6100
a200
a3fc
2440
2040
2ffe
2040
20a0
2110
2208
2c06
ENDCHAR
STARTCHAR (for_rename)
ENCODING 20405
SWIDTH 1024 0
DWIDTH 16 0
BBX 16 16 0 -2
BITMAP
1000
17fc
2004
27fc
6004
67fc
a000
affe
2802
2bfa
280a
2110
20a0
2040
21b0
2e0e
ENDCHAR
STARTCHAR (for_rename)
ENCODING 20406
SWIDTH 1024 0
DWIDTH 16 0
BBX 16 16 0 -2
BITMAP
0800
09fc
0904
1104
1104
31fc
5020
5040
9040
93fe
1202
1202
1202
1202
13fe
1202
ENDCHAR
STARTCHAR (for_rename)
ENCODING 20415
SWIDTH 1024 0
DWIDTH 16 0
BBX 16 16 0 -2
BITMAP
1000
17fe
2040
27fc
6444
6444
a7fc
2444
2444
27fc
2040
2140
2080
2140
2230
2c0e
ENDCHAR
STARTCHAR (for_rename)
ENCODING 20418
SWIDTH 1024 0
DWIDTH 16 0
BBX 16 16 0 -2
BITMAP
101c
17e0
1080
2110
2220
6148
6084
a11c
2fe2
2042
2040
2250
2248
2444
2844
2040
ENDCHAR
STARTCHAR (for_rename)
ENCODING 20419
SWIDTH 1024 0
DWIDTH 16 0
BBX 16 16 0 -2
BITMAP
0800
13fc
1204
2204
2204
63fc
6040
a040
2040
2240
227c
2240
2240
2240
2540
28fe
ENDCHAR
STARTCHAR (for_rename)
ENCODING 20420
SWIDTH 1024 0
DWIDTH 16 0
BBX 16 16 0 -2
BITMAP
1020
13a0
2e28
2224
6220
6ffe
a220
a224
2224
23a8
2e30
2220
2250
2292
220a
2604
ENDCHAR
STARTCHAR (for_rename)
ENCODING 20426
SWIDTH 1024 0
DWIDTH 16 0
BBX 16 16 0 -2
BITMAP
0900
1108
123c
2fc4
2120
6120
6222
ac3e
2080
21f8
2208
2510
20a0
2040
21b0
2e0e
ENDCHAR
STARTCHAR (for_rename)
ENCODING 20430
SWIDTH 1024 0
DWIDTH 16 0
BBX 16 16 0 -2
BITMAP
0800
08fc
1084
1084
2884
24fc
4284
8884
0884
1084
10fc
2884
2484
4284
8084
07fe
ENDCHAR
STARTCHAR (for_rename)
ENCODING 20432
SWIDTH 1024 0
DWIDTH 16 0
BBX 16 16 0 -2
BITMAP
10c2
1702
2102
2112
2fd2
4112
6312
a392
a552
2552
2912
2912
2102
2102
2102
2106
ENDCHAR
STARTCHAR (for_rename)
ENCODING 20433
SWIDTH 1024 0
DWIDTH 16 0
BBX 16 16 0 -2
BITMAP
1000
17fc
1008
2110
20a0
27fc
4444
6444
a7fc
a444
2444
27fc
2444
2444
2444
244c
ENDCHAR
STARTCHAR (for_rename)
ENCODING 20436
SWIDTH 1024 0
DWIDTH 16 0
BBX 16 16 0 -2
BITMAP
1000
13f8
1208
2208
23f8
4208
6208
a3f8
a208
2208
23f8
20a0
20a0
2120
2222
2c3e
ENDCHAR
STARTCHAR (for_rename)
ENCODING 20439
SWIDTH 1024 0
DWIDTH 16 0
BBX 16 16 0 -2
BITMAP
0800
1110
1208
2404
2842
60a0
6110
a208
2404
2802
23f8
2208
2208
2208
2208
23f8
ENDCHAR
STARTCHAR (for_rename)
ENCODING 20440
SWIDTH 1024 0
DWIDTH 16 0
BBX 16 16 0 -2
BITMAP
1078
1380
1448
2424
2802
4bf8
6010
a020
a040
2040
2ffe
2040
2040
2040
2040
20c0
ENDCHAR
STARTCHAR (for_rename)
ENCODING 20442
SWIDTH 1024 0
DWIDTH 16 0
BBX 16 16 0 -2
BITMAP
1000
17fc
2444
2444
27fc
4444
6444
a7fc
a444
2040
2040
27fc
2040
2040
2040
2ffe
ENDCHAR
STARTCHAR (for_rename)
ENCODING 20443
SWIDTH 1024 0
DWIDTH 16 0
BBX 16 16 0 -2
BITMAP
1080
1100
13f0
2420
2840
47fc
6444
a444
a444
27fc
24a4
20a0
2120
2120
2222
2c3e
ENDCHAR
STARTCHAR (for_rename)
ENCODING 20445
SWIDTH 1024 0
DWIDTH 16 0
BBX 16 16 0 -2
BITMAP
0800
13fc
1204
2204
2204
6204
63fc
a040
2040
27fe
2040
20e0
2150
2248
2c46
2040
ENDCHAR
STARTCHAR (for_rename)
ENCODING 20447
SWIDTH 1024 0
DWIDTH 16 0
BBX 16 16 0 -2
BITMAP
1080
1080
1110
2278
2f84
4200
6200
a7f8
a880
2080
2ffc
2140
2120
2210
2408
2806
ENDCHAR
STARTCHAR (for_rename)
ENCODING 20448
SWIDTH 1024 0
DWIDTH 16 0
BBX 16 16 0 -2
BITMAP
1040
1040
2040
27fc
6040
6248
a248
a554
2862
2040
20a0
2090
2108
2204
2c02
2000
ENDCHAR
STARTCHAR (for_rename)
ENCODING 20449
SWIDTH 1024 0
DWIDTH 16 0
BBX 16 16 0 -2
BITMAP
0800
09f8
1000
1000
27fe
2000
6000
63fc
a000
23fc
2000
2000
23fc
2204
2204
23fc
ENDCHAR
STARTCHAR (for_rename)
ENCODING 20451
SWIDTH 1024 0
DWIDTH 16 0
BBX 16 16 0 -2
BITMAP
0800
13f8
1208
2208
2208
63f8
6000
a000
a7fc
2040
2040
2ffe
2040
20a0
2110
260c
ENDCHAR
STARTCHAR (for_rename)
ENCODING 20452
SWIDTH 1024 0
DWIDTH 16 0
BBX 16 16 0 -2
BITMAP
1208
1110
10a0
27fc
2044
4044
67fc
a440
a840
2ffe
2942
2242
2442
284c
2040
2040
ENDCHAR
STARTCHAR (for_rename)
ENCODING 20453
SWIDTH 1024 0
DWIDTH 16 0
BBX 16 16 0 -2
BITMAP
1040
1040
17fc
2040
2040
47fc
6444
a7fc
2444
27fc
2040
2040
2ffe
2040
2040
2040
ENDCHAR
STARTCHAR (for_rename)
ENCODING 20462
SWIDTH 1024 0
DWIDTH 16 0
BBX 16 16 0 -2
BITMAP
0880
1080
10fe
2108
2a88
6850
a820
28d8
2f06
2820
28c8
2b12
2864
2188
2030
21c0
ENDCHAR
STARTCHAR (for_rename)
ENCODING 20463
SWIDTH 1024 0
DWIDTH 16 0
BBX 16 16 0 -2
BITMAP
1040
1040
27fe
2400
2488
4488
6508
a57e
a908
2b48
2d28
2928
2908
2908
2908
2118
ENDCHAR
STARTCHAR (for_rename)
ENCODING 20467
SWIDTH 1024 0
DWIDTH 16 0
BBX 16 16 0 -2
BITMAP
0890
1090
179e
2090
2090
6090
639c
a090
a090
20d0
239e
2c90
2110
2110
2210
2c10
ENDCHAR
STARTCHAR (for_rename)
ENCODING 20469
SWIDTH 1024 0
DWIDTH 16 0
BBX 16 16 0 -2
BITMAP
0840
1040
17fc
2040
2040
67fc
6040
a040
2ffe
2100
2344
2528
2910
2108
21c4
2702
ENDCHAR
STARTCHAR (for_rename)
ENCODING 20470
SWIDTH 1024 0
DWIDTH 16 0
BBX 16 16 0 -2
BITMAP
1200
1200
123e
2392
2212
4212
6fd4
a214
a214
2a88
2a48
2a48
2214
2224
2642
2080
ENDCHAR
STARTCHAR (for_rename)
ENCODING 20472
SWIDTH 1024 0
DWIDTH 16 0
BBX 16 16 0 -2
BITMAP
0840
1040
17fc
2040
27fc
60a0
affe
2110
2248
2444
2bfa
2040
2040
27fc
2040
2040
ENDCHAR
STARTCHAR (for_rename)
ENCODING 20474
SWIDTH 1024 0
DWIDTH 16 0
BBX 16 16 0 -2
BITMAP
0840
1040
17fc
20a0
2110
6248
6444
abfe
a244
23fc
2244
23fc
2244
2040
2042
203e
ENDCHAR
STARTCHAR (for_rename)
ENCODING 20478
SWIDTH 1024 0
DWIDTH 16 0
BBX 16 16 0 -2
BITMAP
1040
1080
17fc
2444
2444
27fc
4444
6444
a7fc
a080
2120
2220
2ffe
2020
2020
2020
ENDCHAR
STARTCHAR (for_rename)
ENCODING 20485
SWIDTH 1024 0
DWIDTH 16 0
BBX 16 16 0 -2
BITMAP
1040
1040
27fc
2000
2110
4110
62a8
a424
a840
2040
2ffe
2040
2040
2040
2040
2040
ENDCHAR
STARTCHAR (for_rename)
ENCODING 20486
SWIDTH 1024 0
DWIDTH 16 0
BBX 16 16 0 -2
BITMAP
1000
17fe
1040
2040
27fc
4444
6444
a774
a554
2554
2554
26ec
2444
2444
2444
244c
ENDCHAR
STARTCHAR (for_rename)
ENCODING 20489
SWIDTH 1024 0
DWIDTH 16 0
BBX 16 16 0 -2
BITMAP
0100
0280
0440
0820
17d0
2008
dff6
1010
1ff0
1010
1ff0
1000
1ff8
2808
4808
8ff8
ENDCHAR
STARTCHAR (for_rename)
ENCODING 20491
SWIDTH 1024 0
DWIDTH 16 0
BBX 16 16 0 -2
BITMAP
0800
13fe
1202
2222
2222
63fe
6222
a222
22fa
228a
228a
228a
22fa
2202
23fe
2202
ENDCHAR
STARTCHAR (for_rename)
ENCODING 20493
SWIDTH 1024 0
DWIDTH 16 0
BBX 16 16 0 -2
BITMAP
0840
1040
17fe
2108
2108
6090
6090
affe
2000
2000
23fc
2204
2204
2204
2204
23fc
ENDCHAR
STARTCHAR (for_rename)
ENCODING 20495
SWIDTH 1024 0
DWIDTH 16 0
BBX 16 16 0 -2
BITMAP
1040
1080
11fc
2a88
2850
2820
68d8
6b06
a850
a848
2bfc
2840
28a0
2910
2208
2406
ENDCHAR
STARTCHAR (for_rename)
ENCODING 20497
SWIDTH 1024 0
DWIDTH 16 0
BBX 16 16 0 -2
BITMAP
1000
17be
14a2
24a2
27be
44a2
64a2
a7be
a402
2402
2402
2402
2402
2402
2402
240e
ENDCHAR
STARTCHAR (for_rename)
ENCODING 20498
SWIDTH 1024 0
DWIDTH 16 0
BBX 16 16 0 -2
BITMAP
1002
2fc2
2212
4412
4492
c9d2
de52
4212
4212
4212
4f92
4212
4202
43c2
5e02
4006
ENDCHAR
STARTCHAR (for_rename)
ENCODING 20500
SWIDTH 1024 0
DWIDTH 16 0
BBX 16 16 0 -2
BITMAP
1000
17fc
1404
2404
27fc
2400
4420
6524
a524
a5fc
2820
2a22
2a22
2a22
2bfe
2202
ENDCHAR
STARTCHAR (for_rename)
ENCODING 20502
SWIDTH 1024 0
DWIDTH 16 0
BBX 16 16 0 -2
BITMAP
1040
1040
27fc
2040
2040
4ffe
6110
a110
a0a0
27fc
2040
2040
2ffe
2040
2040
2040
ENDCHAR
STARTCHAR (for_rename)
ENCODING 20505
SWIDTH 1024 0
DWIDTH 16 0
BBX 16 16 0 -2
BITMAP
1000
11fc
2004
2804
6bfe
6800
a880
a9fc
2a20
2820
2bfe
2820
2850
2888
2104
2602
ENDCHAR
STARTCHAR (for_rename)
ENCODING 20506
SWIDTH 1024 0
DWIDTH 16 0
BBX 16 16 0 -2
BITMAP
1080
1080
17fc
2140
2220
4410
6ffe
a008
a008
27c8
2448
2448
27c8
2448
2008
2038
ENDCHAR
STARTCHAR (for_rename)
ENCODING 20511
SWIDTH 1024 0
DWIDTH 16 0
BBX 16 16 0 -2
BITMAP
0890
1090
17fe
2090
2090
6090
67fe
a000
2000
23fc
2204
2204
23fc
2204
2204
23fc
ENDCHAR
STARTCHAR (for_rename)
ENCODING 20513
SWIDTH 1024 0
DWIDTH 16 0
BBX 16 16 0 -2
BITMAP
1000
13f8
1208
23f8
2208
23f8
4208
6000
a7fc
a404
2404
27fc
2404
2404
27fc
2404
ENDCHAR
STARTCHAR (for_rename)
ENCODING 20515
SWIDTH 1024 0
DWIDTH 16 0
BBX 16 16 0 -2
BITMAP
2210
2210
2220
4fa0
643e
a464
a7a4
24a4
24a4
24a8
24a8
2890
2890
3328
2044
2082
ENDCHAR
STARTCHAR (for_rename)
ENCODING 20516
SWIDTH 1024 0
DWIDTH 16 0
BBX 16 16 0 -2
BITMAP
1020
13fe
2020
2020
61fc
6104
a504
a5fc
2504
2504
25fc
2504
2504
25fc
2400
27fe
ENDCHAR
STARTCHAR (for_rename)
ENCODING 20517
SWIDTH 1024 0
DWIDTH 16 0
BBX 16 16 0 -2
BITMAP
1040
1040
2040
2ffe
2802
4802
6130
a208
a404
2802
23f8
2040
2040
2040
2040
2ffe
ENDCHAR
STARTCHAR (for_rename)
ENCODING 20518
SWIDTH 1024 0
DWIDTH 16 0
BBX 16 16 0 -2
BITMAP
1040
1250
2488
2bf4
40a0
6110
affe
a110
2208
25f4
2912
2110
2130
2102
2102
20fe
ENDCHAR
STARTCHAR (for_rename)
ENCODING 20520
SWIDTH 1024 0
DWIDTH 16 0
BBX 16 16 0 -2
BITMAP
1000
17fe
1402
2402
27fe
4400
6420
a7fe
a420
2420
25fc
2504
2504
2904
29fc
2104
ENDCHAR
STARTCHAR (for_rename)
ENCODING 20521
SWIDTH 1024 0
DWIDTH 16 0
BBX 16 16 0 -2
BITMAP
1040
1040
17fc
2040
23f8
2040
4ffe
6000
a3f8
a248
2248
23f8
2208
2208
2208
2218
ENDCHAR
STARTCHAR (for_rename)
ENCODING 20522
SWIDTH 1024 0
DWIDTH 16 0
BBX 16 16 0 -2
BITMAP
1000
1180
163c
2404
2404
27bc
4404
6404
a7fc
a4a4
20a0
2120
2120
2220
2422
283e
ENDCHAR
STARTCHAR (for_rename)
ENCODING 20523
SWIDTH 1024 0
DWIDTH 16 0
BBX 16 16 0 -2
BITMAP
0840
10a0
1110
2208
2404
6bfa
6000
a000
27fe
2492
2492
27fe
2492
2492
2492
2496
ENDCHAR
STARTCHAR (for_rename)
ENCODING 20524
SWIDTH 1024 0
DWIDTH 16 0
BBX 16 16 0 -2
BITMAP
1040
1040
107c
2040
2040
27fc
4404
67fc
a404
a7fc
2444
2040
2ffe
2040
2040
2040
ENDCHAR
STARTCHAR (for_rename)
ENCODING 20525
SWIDTH 1024 0
DWIDTH 16 0
BBX 16 16 0 -2
BITMAP
1018
17e0
2040
2040
4ffe
60e0
a150
a64c
2802
2080
2ffe
2110
2310
20e0
2198
2606
ENDCHAR
STARTCHAR (for_rename)
ENCODING 20534
SWIDTH 1024 0
DWIDTH 16 0
BBX 16 16 0 -2
BITMAP
0800
13fc
1204
2204
23fc
6204
6204
a3fc
2204
2204
23fc
2000
2ffe
2108
2204
2c02
ENDCHAR
STARTCHAR (for_rename)
ENCODING 20537
SWIDTH 1024 0
DWIDTH 16 0
BBX 16 16 0 -2
BITMAP
0840
10a0
1110
2208
25f4
6842
6040
a7fc
2444
2444
27fc
2040
20a0
20a0
2110
260c
ENDCHAR
STARTCHAR (for_rename)
ENCODING 20547
SWIDTH 1024 0
DWIDTH 16 0
BBX 16 16 0 -2
BITMAP
1000
17fe
1400
25fc
2504
25fc
4504
65fc
a440
a7fe
2488
2550
2430
25cc
2400
27fe
ENDCHAR
STARTCHAR (for_rename)
ENCODING 20551
SWIDTH 1024 0
DWIDTH 16 0
BBX 16 16 0 -2
BITMAP
1000
17be
1482
2482
2482
47be
6400
a400
a77e
2422
2414
2794
2408
2414
2422
24c0
ENDCHAR
STARTCHAR (for_rename)
ENCODING 20552
SWIDTH 1024 0
DWIDTH 16 0
BBX 16 16 0 -2
BITMAP
1000
17f8
1408
27f8
2408
47f8
6100
a200
a7fe
2842
3442
24a2
2512
27fa
2402
200c
ENDCHAR
STARTCHAR (for_rename)
ENCODING 20553
SWIDTH 1024 0
DWIDTH 16 0
BBX 16 16 0 -2
BITMAP
1040
13f8
2048
2088
6ffe
6000
a3fc
a204
23fc
2020
27fc
2220
2220
2ffe
2020
2020
ENDCHAR
STARTCHAR (for_rename)
ENCODING 20559
SWIDTH 1024 0
DWIDTH 16 0
BBX 16 16 0 -2
BITMAP
1000
17fe
2000
27fc
6404
6404
a7fc
a400
2400
27fe
2652
2652
2bfe
2a52
3252
2256
ENDCHAR
STARTCHAR (for_rename)
ENCODING 20560
SWIDTH 1024 0
DWIDTH 16 0
BBX 16 16 0 -2
BITMAP
1040
1040
27fc
2110
40e0
6110
a208
a7fe
2400
2418
25e0
2408
2870
2986
3038
23c0
ENDCHAR
STARTCHAR (for_rename)
ENCODING 20565
SWIDTH 1024 0
DWIDTH 16 0
BBX 16 16 0 -2
BITMAP
1420
1420
2424
27b8
4420
6420
a5a2
ae3e
2040
23fc
2204
2204
23fc
2204
2204
23fc
ENDCHAR
STARTCHAR (for_rename)
ENCODING 20566
SWIDTH 1024 0
DWIDTH 16 0
BBX 16 16 0 -2
BITMAP
1080
1080
2082
27f4
2088
4090
6ffe
a040
a090
21fc
2304
2504
29fc
2104
2104
21fc
ENDCHAR
STARTCHAR (for_rename)
ENCODING 20570
SWIDTH 1024 0
DWIDTH 16 0
BBX 16 16 0 -2
BITMAP
1220
1220
1240
2240
2ffe
4264
62a4
a224
afa4
28a8
28a8
2890
2f90
28a8
2044
2182
ENDCHAR
STARTCHAR (for_rename)
ENCODING 20572
SWIDTH 1024 0
DWIDTH 16 0
BBX 16 16 0 -2
BITMAP
1040
1040
2ffe
2000
63f8
6208
a3f8
2000
2ffe
2802
2bfa
2842
2040
2040
2040
21c0
ENDCHAR
STARTCHAR (for_rename)
ENCODING 20581
SWIDTH 1024 0
DWIDTH 16 0
BBX 16 16 0 -2
BITMAP
0820
1020
1dfc
2424
25fe
6424
69fc
a820
2efc
2220
3220
2bfe
2420
2420
2b00
30fe
ENDCHAR
STARTCHAR (for_rename)
ENCODING 20588
SWIDTH 1024 0
DWIDTH 16 0
BBX 16 16 0 -2
BITMAP
1100
1100
2200
23fc
2494
4924
62a4
a444
a0a4
2304
2c18
2040
2524
2502
290a
21f8
ENDCHAR
STARTCHAR (for_rename)
ENCODING 20594
SWIDTH 1024 0
DWIDTH 16 0
BBX 16 16 0 -2
BITMAP
1000
17fc
2444
2444
47fc
6444
6444
a7fc
a000
a040
2528
2524
2502
290a
2908
20f8
ENDCHAR
STARTCHAR (for_rename)
ENCODING 20596
SWIDTH 1024 0
DWIDTH 16 0
BBX 16 16 0 -2
BITMAP
1002
2f92
2892
2892
4892
4f92
c892
c892
4f92
4892
4892
4892
4f92
4502
4882
5046
ENDCHAR
STARTCHAR (for_rename)
ENCODING 20597
SWIDTH 1024 0
DWIDTH 16 0
BBX 16 16 0 -2
BITMAP
0840
107e
1040
2040
23fc
6204
6204
a3fc
2204
2204
23fc
2204
2204
23fc
2090
270c
ENDCHAR
STARTCHAR (for_rename)
ENCODING 20598
SWIDTH 1024 0
DWIDTH 16 0
BBX 16 16 0 -2
BITMAP
1000
17fc
2444
2444
67fc
6444
a444
27fc
2040
2ffe
2842
2842
284a
287a
2bca
2806
ENDCHAR
STARTCHAR (for_rename)
ENCODING 20600
SWIDTH 1024 0
DWIDTH 16 0
BBX 16 16 0 -2
BITMAP
13c0
10a0
1110
2208
25f6
4800
6792
a492
a6a4
25a4
24c8
26a4
25a4
2492
2492
2592
ENDCHAR
STARTCHAR (for_rename)
ENCODING 20605
SWIDTH 1024 0
DWIDTH 16 0
BBX 16 16 0 -2
BITMAP
0a20
1120
1040
27f8
2088
6108
61fc
a204
2404
27fe
2802
3152
254a
254a
2802
200c
ENDCHAR
STARTCHAR (for_rename)
ENCODING 20608
SWIDTH 1024 0
DWIDTH 16 0
BBX 16 16 0 -2
BITMAP
1040
1080
27fc
2444
2444
47fc
6444
a444
a7fc
24a0
20a8
212a
212e
2220
2422
283e
ENDCHAR
STARTCHAR (for_rename)
ENCODING 20613
SWIDTH 1024 0
DWIDTH 16 0
BBX 16 16 0 -2
BITMAP
1058
1040
2ffe
2040
27fc
4444
67fc
a444
a7fc
2444
2010
2ffe
2010
2210
2110
2030
ENDCHAR
STARTCHAR (for_rename)
ENCODING 20621
SWIDTH 1024 0
DWIDTH 16 0
BBX 16 16 0 -2
BITMAP
0840
1040
17fc
2110
2110
6ffe
6842
a842
27fc
2100
2100
21f8
2108
2208
2208
2c30
ENDCHAR
STARTCHAR (for_rename)
ENCODING 20625
SWIDTH 1024 0
DWIDTH 16 0
BBX 16 16 0 -2
BITMAP
1204
1384
24be
2494
6a94
617e
a204
2444
2040
2ffe
2040
20e0
2150
2248
2444
2842
ENDCHAR
STARTCHAR (for_rename)
ENCODING 20632
SWIDTH 1024 0
DWIDTH 16 0
BBX 16 16 0 -2
BITMAP
0100
0280
0c60
3118
c906
1110
2928
4544
1110
2928
4544
0100
fffe
0100
0100
0100
ENDCHAR
STARTCHAR (for_rename)
ENCODING 20633
SWIDTH 1024 0
DWIDTH 16 0
BBX 16 16 0 -2
BITMAP
0910
17fc
1110
2110
2ffe
6400
65fc
a524
2524
25fc
2524
2524
25fc
2524
2924
292c
ENDCHAR
STARTCHAR (for_rename)
ENCODING 20634
SWIDTH 1024 0
DWIDTH 16 0
BBX 16 16 0 -2
BITMAP
1210
1210
2210
2fa0
203e
4554
6894
b054
a114
2514
2208
2208
2514
2894
3022
20c2
ENDCHAR
STARTCHAR (for_rename)
ENCODING 20652
SWIDTH 1024 0
DWIDTH 16 0
BBX 16 16 0 -2
BITMAP
0a22
1222
13fe
2000
2110
6220
67fe
aa20
2220
23fe
2220
2220
23fe
2220
2220
23fe
ENDCHAR
STARTCHAR (for_rename)
ENCODING 20653
SWIDTH 1024 0
DWIDTH 16 0
BBX 16 16 0 -2
BITMAP
1040
17fe
1420
25fc
2424
47fe
6424
a5fc
a420
25fc
2524
25fc
2524
25fc
2924
292c
ENDCHAR
STARTCHAR (for_rename)
ENCODING 20658
SWIDTH 1024 0
DWIDTH 16 0
BBX 16 16 0 -2
BITMAP
1210
1210
2f90
2220
2fbe
4254
6254
af94
a414
2794
2488
2488
2888
2894
3124
26c2
ENDCHAR
STARTCHAR (for_rename)
ENCODING 20659
SWIDTH 1024 0
DWIDTH 16 0
BBX 16 16 0 -2
BITMAP
1040
17fe
1040
27fc
2444
27fc
4444
67fc
a042
a7fe
2010
2ffe
2010
2110
2090
2030
ENDCHAR
STARTCHAR (for_rename)
ENCODING 20660
SWIDTH 1024 0
DWIDTH 16 0
BBX 16 16 0 -2
BITMAP
1000
17fe
1400
24f8
2488
2488
44f8
6488
a400
a5dc
2554
2554
25dc
2554
2400
27fe
ENDCHAR
STARTCHAR (for_rename)
ENCODING 20661
SWIDTH 1024 0
DWIDTH 16 0
BBX 16 16 0 -2
BITMAP
0840
17fc
1040
23f8
2040
6ffe
6000
a3f8
2208
23f8
2208
23f8
2208
23f8
2110
260c
ENDCHAR
STARTCHAR (for_rename)
ENCODING 20663
SWIDTH 1024 0
DWIDTH 16 0
BBX 16 16 0 -2
BITMAP
1200
13fc
2400
2bf8
6208
63f8
a208
23f8
2000
2ffe
2100
23fc
2494
2924
2244
2498
ENDCHAR
STARTCHAR (for_rename)
ENCODING 20670
SWIDTH 1024 0
DWIDTH 16 0
BBX 16 16 0 -2
BITMAP
0800
11fe
1020
2820
28fc
6b84
6c84
a8fc
2884
28fc
2884
2984
2efc
2048
2084
2302
ENDCHAR
STARTCHAR (for_rename)
ENCODING 20674
SWIDTH 1024 0
DWIDTH 16 0
BBX 16 16 0 -2
BITMAP
1040
13f8
2248
2ffe
2248
43f8
6040
a3f8
a248
23f8
2080
2ffe
2210
25e0
2090
2f08
ENDCHAR
STARTCHAR (for_rename)
ENCODING 20677
SWIDTH 1024 0
DWIDTH 16 0
BBX 16 16 0 -2
BITMAP
1110
1110
2ffe
2110
21f0
4040
67fc
a444
a7fc
a040
27fc
2040
23f8
2040
2040
2ffe
ENDCHAR
STARTCHAR (for_rename)
ENCODING 20681
SWIDTH 1024 0
DWIDTH 16 0
BBX 16 16 0 -2
BITMAP
0100
0280
0440
0820
1010
2fe8
c006
3ef8
2288
2288
3ef8
2aa8
0820
1450
2288
c104
ENDCHAR
STARTCHAR (for_rename)
ENCODING 20682
SWIDTH 1024 0
DWIDTH 16 0
BBX 16 16 0 -2
BITMAP
2000
2ffe
2120
2ffc
2924
4ffc
6080
a100
bffe
2408
2bf4
3212
2210
2270
2204
23fc
ENDCHAR
STARTCHAR (for_rename)
ENCODING 20685
SWIDTH 1024 0
DWIDTH 16 0
BBX 16 16 0 -2
BITMAP
2f88
2208
5fc8
4208
dfde
d24a
524a
5fca
524a
524a
5fca
420a
5fca
4212
43d2
5e26
ENDCHAR
STARTCHAR (for_rename)
ENCODING 20687
SWIDTH 1024 0
DWIDTH 16 0
BBX 16 16 0 -2
BITMAP
0900
11f8
1210
2420
2bfe
6222
6222
a3fe
20c0
2722
2054
2198
2630
2058
2194
2e22
ENDCHAR
STARTCHAR (for_rename)
ENCODING 20689
SWIDTH 1024 0
DWIDTH 16 0
BBX 16 16 0 -2
BITMAP
1038
17c0
2080
2ffe
4120
43f0
6618
abf6
a000
27fc
2404
25f4
2514
25f4
2504
240c
ENDCHAR
STARTCHAR (for_rename)
ENCODING 20693
SWIDTH 1024 0
DWIDTH 16 0
BBX 16 16 0 -2
BITMAP
14a4
12a8
20a0
2ffe
6208
6110
affe
2040
27fc
2040
2ffe
2040
20a0
2110
2208
2c06
ENDCHAR
STARTCHAR (for_rename)
ENCODING 20694
SWIDTH 1024 0
DWIDTH 16 0
BBX 16 16 0 -2
BITMAP
1040
1ffe
1040
27fc
2000
27fc
4404
67fc
a110
a0a0
2ffe
2000
27fc
2404
2404
27fc
ENDCHAR
STARTCHAR (for_rename)
ENCODING 20698
SWIDTH 1024 0
DWIDTH 16 0
BBX 16 16 0 -2
BITMAP
0840
1040
17fc
20a0
2912
660c
6404
abfa
2208
23f8
2208
23f8
2040
2248
2444
28c2
ENDCHAR
STARTCHAR (for_rename)
ENCODING 20702
SWIDTH 1024 0
DWIDTH 16 0
BBX 16 16 0 -2
BITMAP
1038
13c0
1488
2444
2800
27f8
4408
67fc
a404
a7fe
2402
282a
2aaa
2a82
3402
200c
ENDCHAR
STARTCHAR (for_rename)
ENCODING 20707
SWIDTH 1024 0
DWIDTH 16 0
BBX 16 16 0 -2
BITMAP
1208
1208
2fbe
2208
2208
4fbe
6208
a514
a462
2bfc
2204
2204
23fc
2204
2204
23fc
ENDCHAR
STARTCHAR (for_rename)
ENCODING 20709
SWIDTH 1024 0
DWIDTH 16 0
BBX 16 16 0 -2
BITMAP
1040
17fc
2040
2ffe
2208
4fbe
6208
a388
ac7e
2000
2ffe
20a0
2120
2120
2222
2c3e
ENDCHAR
STARTCHAR (for_rename)
ENCODING 20711
SWIDTH 1024 0
DWIDTH 16 0
BBX 16 16 0 -2
BITMAP
0904
0888
13fe
1222
2222
63fe
6222
a222
23fe
2000
21fc
2104
21fc
2104
2104
21fc
ENDCHAR
STARTCHAR (for_rename)
ENCODING 20717
SWIDTH 1024 0
DWIDTH 16 0
BBX 16 16 0 -2
BITMAP
2208
2fbe
2208
2a28
2fbe
4410
6aa8
b34e
a000
23fc
2204
2204
23fc
2204
2204
23fc
ENDCHAR
STARTCHAR (for_rename)
ENCODING 20718
SWIDTH 1024 0
DWIDTH 16 0
BBX 16 16 0 -2
BITMAP
1040
1040
17fc
2110
20a0
2ffe
4000
63f8
a248
a3f8
2248
23f8
2040
27fc
2040
2ffe
ENDCHAR
STARTCHAR (for_rename)
ENCODING 20725
SWIDTH 1024 0
DWIDTH 16 0
BBX 16 16 0 -2
BITMAP
1000
17fe
2000
27fc
2444
47fc
6444
affe
a000
27fc
2444
27fc
2444
27fc
2000
2ffe
ENDCHAR
STARTCHAR (for_rename)
ENCODING 20729
SWIDTH 1024 0
DWIDTH 16 0
BBX 16 16 0 -2
BITMAP
1000
17fc
2120
2ffc
2924
4ffc
6000
a7f8
a408
27f8
2408
27f8
2408
27f8
2120
2e1c
ENDCHAR
STARTCHAR (for_rename)
ENCODING 20731
SWIDTH 1024 0
DWIDTH 16 0
BBX 16 16 0 -2
BITMAP
1010
1790
2490
24fe
24a4
47a4
6424
a4fe
a410
2f90
2c90
34fe
3490
2790
2490
2010
ENDCHAR
STARTCHAR (for_rename)
ENCODING 20736
SWIDTH 1024 0
DWIDTH 16 0
BBX 16 16 0 -2
BITMAP
1208
1110
2ffe
2040
67fc
6040
affe
2000
27ac
2120
2ffe
2120
21a8
2f10
212a
2346
ENDCHAR
STARTCHAR (for_rename)
ENCODING 20737
SWIDTH 1024 0
DWIDTH 16 0
BBX 16 16 0 -2
BITMAP
1110
1220
27fe
2a20
23fc
4220
63fc
a220
a3fe
2000
279e
2492
2492
24f2
2402
2406
ENDCHAR
STARTCHAR (for_rename)
ENCODING 20738
SWIDTH 1024 0
DWIDTH 16 0
BBX 16 16 0 -2
BITMAP
10a0
17fc
24a4
27fc
24a4
47fc
6000
a7fc
a400
25f8
2400
27fe
2520
2514
29c8
2b06
ENDCHAR
STARTCHAR (for_rename)
ENCODING 20740
SWIDTH 1024 0
DWIDTH 16 0
BBX 16 16 0 -2
BITMAP
0840
17fc
1110
2110
2ffe
6000
67f8
a408
27f8
2408
27f8
2000
2144
2522
250a
29f8
ENDCHAR
STARTCHAR (for_rename)
ENCODING 20745
SWIDTH 1024 0
DWIDTH 16 0
BBX 16 16 0 -2
BITMAP
0840
08a0
1110
1208
25f4
2802
6000
67bc
a4a4
24a4
27bc
2108
2210
2510
2828
20c4
ENDCHAR
STARTCHAR (for_rename)
ENCODING 20754
SWIDTH 1024 0
DWIDTH 16 0
BBX 16 16 0 -2
BITMAP
1000
17fc
2040
2ffe
2842
4b5a
6842
a358
a000
2ffe
2040
27fe
2492
2492
2492
2496
ENDCHAR
STARTCHAR (for_rename)
ENCODING 20756
SWIDTH 1024 0
DWIDTH 16 0
BBX 16 16 0 -2
BITMAP
1040
17fc
2040
23f8
2000
4ffe
6002
a7f8
a040
2ffe
2008
2f7e
2908
2f28
2908
2018
ENDCHAR
STARTCHAR (for_rename)
ENCODING 20757
SWIDTH 1024 0
DWIDTH 16 0
BBX 16 16 0 -2
BITMAP
1040
17fe
2110
20a0
2f4e
4554
6952
a35a
a000
2208
23f8
2208
23f8
2208
2408
2808
ENDCHAR
STARTCHAR (for_rename)
ENCODING 20758
SWIDTH 1024 0
DWIDTH 16 0
BBX 16 16 0 -2
BITMAP
2010
2f90
2a1e
2fa0
28a0
48c0
6fbe
aa00
aa00
2fc0
2000
27fc
24a4
24a4
24a4
2ffe
ENDCHAR
STARTCHAR (for_rename)
ENCODING 20760
SWIDTH 1024 0
DWIDTH 16 0
BBX 16 16 0 -2
BITMAP
1000
13fc
1204
2204
2204
43fc
6224
a220
a210
2290
2448
2424
2402
2980
2860
2010
ENDCHAR
STARTCHAR (for_rename)
ENCODING 20762
SWIDTH 1024 0
DWIDTH 16 0
BBX 16 16 0 -2
BITMAP
1120
17fc
2120
2000
27fc
44a4
67fc
a000
affe
2882
29fa
2208
25d0
2820
20c0
2f00
ENDCHAR
STARTCHAR (for_rename)
ENCODING 20767
SWIDTH 1024 0
DWIDTH 16 0
BBX 16 16 0 -2
BITMAP
0924
10a8
17fe
2402
25fa
6108
61f8
a000
23fc
2204
23e4
227c
2204
23fc
2108
2606
ENDCHAR
STARTCHAR (for_rename)
ENCODING 20769
SWIDTH 1024 0
DWIDTH 16 0
BBX 16 16 0 -2
BITMAP
1000
17fc
2444
27fc
2444
47fc
6404
a000
afbe
2aaa
2aaa
2fbe
2aaa
2aaa
2fbe
28a2
ENDCHAR
STARTCHAR (for_rename)
ENCODING 20778
SWIDTH 1024 0
DWIDTH 16 0
BBX 16 16 0 -2
BITMAP
1000
17fe
2080
23fc
6204
63fc
a204
affe
28aa
2280
24fc
2100
23f8
2d10
20e0
2f1e
ENDCHAR
STARTCHAR (for_rename)
ENCODING 20786
SWIDTH 1024 0
DWIDTH 16 0
BBX 16 16 0 -2
BITMAP
2020
2c20
20fa
5f24
4028
4030
defe
c040
5e98
4100
407c
5e44
527c
5244
5e44
527c
ENDCHAR
STARTCHAR (for_rename)
ENCODING 20791
SWIDTH 1024 0
DWIDTH 16 0
BBX 16 16 0 -2
BITMAP
1000
17be
2000
2fbe
2aaa
4040
67fe
a490
a7fe
2492
27fe
2510
25de
2510
29d2
2b1e
ENDCHAR
STARTCHAR (for_rename)
ENCODING 20794
SWIDTH 1024 0
DWIDTH 16 0
BBX 16 16 0 -2
BITMAP
2512
2f92
2524
2724
427e
4fa8
6aa8
afbe
a228
2fa8
2228
2fbe
2228
2528
28a8
203e
ENDCHAR
STARTCHAR (for_rename)
ENCODING 20795
SWIDTH 1024 0
DWIDTH 16 0
BBX 16 16 0 -2
BITMAP
1248
1150
2ffe
2a0a
23f8
4000
67fc
a554
a554
27fc
2040
27fc
2040
2ffe
2524
2892
ENDCHAR
STARTCHAR (for_rename)
ENCODING 20796
SWIDTH 1024 0
DWIDTH 16 0
BBX 16 16 0 -2
BITMAP
1000
17bc
14a4
27bc
2000
2ffe
4808
6bd0
a93e
afd4
2a54
2bd4
2a48
2ac8
2f54
2862
ENDCHAR
STARTCHAR (for_rename)
ENCODING 20799
SWIDTH 1024 0
DWIDTH 16 0
BBX 16 16 0 -2
BITMAP
0040
0840
0840
0840
0840
0840
0840
0840
0840
0840
0840
1040
1040
2042
4042
803e
ENDCHAR
STARTCHAR (for_rename)
ENCODING 20800
SWIDTH 1024 0
DWIDTH 16 0
BBX 16 16 0 -2
BITMAP
0000
fffe
0480
0480
0480
0480
0480
0480
0480
0880
0880
1080
1080
2082
4082
807e
ENDCHAR
STARTCHAR (for_rename)
ENCODING 20801
SWIDTH 1024 0
DWIDTH 16 0
BBX 16 16 0 -2
BITMAP
0100
0100
0200
0210
0408
05f8
7e44
0444
0440
0440
0440
0840
0840
1042
2042
c03e
ENDCHAR
STARTCHAR (for_rename)
ENCODING 20803
SWIDTH 1024 0
DWIDTH 16 0
BBX 16 16 0 -2
BITMAP
0000
3ff8
0000
0000
0000
0000
fffe
0440
0440
0440
0440
0440
0840
0842
3042
c03e
ENDCHAR
STARTCHAR (for_rename)
ENCODING 20804
SWIDTH 1024 0
DWIDTH 16 0
BBX 16 16 0 -2
BITMAP
0000
3ff8
2008
2008
2008
2008
2008
2008
3ff8
0440
0440
0440
0840
1042
2042
c03e
ENDCHAR
STARTCHAR (for_rename)
ENCODING 20805
SWIDTH 1024 0
DWIDTH 16 0
BBX 16 16 0 -2
BITMAP
0100
0100
fffe
0400
0820
0810
10f8
7f44
0444
0440
0440
0840
0840
1042
2042
c03e
ENDCHAR
STARTCHAR (for_rename)
ENCODING 20806
SWIDTH 1024 0
DWIDTH 16 0
BBX 16 16 0 -2
BITMAP
0480
0488
4488
2490
14a0
0480
0480
0ce0
1490
2488
c484
0880
0880
1080
2082
c07e
ENDCHAR
STARTCHAR (for_rename)
ENCODING 20807
SWIDTH 1024 0
DWIDTH 16 0
BBX 16 16 0 -2
BITMAP
0020
2c48
2288
2108
2288
2448
2828
2008
3ff8
0480
0480
0480
0880
0880
3082
c07e
ENDCHAR
STARTCHAR (for_rename)
ENCODING 20808
SWIDTH 1024 0
DWIDTH 16 0
BBX 16 16 0 -2
BITMAP
1100
1100
1100
3ffc
2100
4100
0100
0100
fffe
0440
0440
0840
0840
1042
2042
c03e
ENDCHAR
STARTCHAR (for_rename)
ENCODING 20809
SWIDTH 1024 0
DWIDTH 16 0
BBX 16 16 0 -2
BITMAP
0100
2108
1108
0910
0920
0100
fffe
0440
0440
0440
0440
0840
0840
1040
2042
c03e
ENDCHAR
STARTCHAR (for_rename)
ENCODING 20811
SWIDTH 1024 0
DWIDTH 16 0
BBX 16 16 0 -2
BITMAP
0100
0100
fffe
0100
0100
3ff8
2008
2008
2008
2008
3ff8
0440
0440
0840
3042
c03e
ENDCHAR
STARTCHAR (for_rename)
ENCODING 20812
SWIDTH 1024 0
DWIDTH 16 0
BBX 16 16 0 -2
BITMAP
01e0
0820
0820
1010
2008
5ff6
9010
1010
1010
1ff0
0480
0480
0880
0882
1082
e07e
ENDCHAR
STARTCHAR (for_rename)
ENCODING 20813
SWIDTH 1024 0
DWIDTH 16 0
BBX 16 16 0 -2
BITMAP
0400
07f0
0820
1040
2080
5ffc
1084
1084
1084
1ffc
0240
0240
0440
0840
3042
c03e
ENDCHAR
STARTCHAR (for_rename)
ENCODING 20814
SWIDTH 1024 0
DWIDTH 16 0
BBX 16 16 0 -2
BITMAP
0078
7f80
0100
0100
3ff8
2108
2108
2108
3ff8
0280
02a0
0490
0490
0882
3082
c07e
ENDCHAR
STARTCHAR (for_rename)
ENCODING 20816
SWIDTH 1024 0
DWIDTH 16 0
BBX 16 16 0 -2
BITMAP
0000
27f8
2408
2408
2408
27f8
2408
2408
2408
27f8
2080
0880
0880
1082
2082
c07e
ENDCHAR
STARTCHAR (for_rename)
ENCODING 20818
SWIDTH 1024 0
DWIDTH 16 0
BBX 16 16 0 -2
BITMAP
0600
38f8
2008
2008
3ef8
2008
2008
3ff8
2488
0480
0480
0880
0880
1082
2082
c07e
ENDCHAR
STARTCHAR (for_rename)
ENCODING 20820
SWIDTH 1024 0
DWIDTH 16 0
BBX 16 16 0 -2
BITMAP
0100
01e0
0220
0440
1880
7ff8
1088
1088
1108
1ff8
0150
0248
0248
0441
1821
601f
ENDCHAR
STARTCHAR (for_rename)
ENCODING 20826
SWIDTH 1024 0
DWIDTH 16 0
BBX 16 16 0 -2
BITMAP
2108
1110
0920
fffe
8002
8002
9ff2
1010
1010
1010
1ff0
0440
0440
0840
3042
c03e
ENDCHAR
STARTCHAR (for_rename)
ENCODING 20828
SWIDTH 1024 0
DWIDTH 16 0
BBX 16 16 0 -2
BITMAP
0100
1200
67dc
4444
4444
47c4
4444
4444
77dc
4004
0480
0480
0480
0882
3082
c07e
ENDCHAR
STARTCHAR (for_rename)
ENCODING 20834
SWIDTH 1024 0
DWIDTH 16 0
BBX 16 16 0 -2
BITMAP
1020
1020
fefc
1020
1020
7cfc
4484
4484
4484
7cfc
2850
2950
2a50
4c90
5892
831e
ENDCHAR
STARTCHAR (for_rename)
ENCODING 20837
SWIDTH 1024 0
DWIDTH 16 0
BBX 16 16 0 -2
BITMAP
0600
0200
0200
0200
0100
0100
0100
0280
0280
0440
0440
0820
1020
2010
4008
8006
ENDCHAR
STARTCHAR (for_rename)
ENCODING 20840
SWIDTH 1024 0
DWIDTH 16 0
BBX 16 16 0 -2
BITMAP
0100
0280
0440
0820
1010
2008
4004
9ff2
0100
0100
0100
1ff0
0100
0100
0100
7ffc
ENDCHAR
STARTCHAR (for_rename)
ENCODING 20841
SWIDTH 1024 0
DWIDTH 16 0
BBX 16 16 0 -2
BITMAP
0000
fffe
0100
0100
7ffc
4104
4104
5964
4924
4924
5554
5554
638c
4104
4104
410c
ENDCHAR
STARTCHAR (for_rename)
ENCODING 20842
SWIDTH 1024 0
DWIDTH 16 0
BBX 16 16 0 -2
BITMAP
3f00
0280
0440
0820
37d8
c006
3e20
2224
3248
2a48
2290
3248
2a48
2224
2224
2624
ENDCHAR
STARTCHAR (for_rename)
ENCODING 20843
SWIDTH 1024 0
DWIDTH 16 0
BBX 16 16 0 -2
BITMAP
0000
03c0
0040
0040
0040
0840
0820
0820
0820
1020
1010
1010
2008
2008
4004
8002
ENDCHAR
STARTCHAR (for_rename)
ENCODING 20844
SWIDTH 1024 0
DWIDTH 16 0
BBX 16 16 0 -2
BITMAP
00e0
0420
0410
0810
1008
2008
4104
8102
0200
0200
0410
0408
087c
7f84
0004
0000
ENDCHAR
STARTCHAR (for_rename)
ENCODING 20845
SWIDTH 1024 0
DWIDTH 16 0
BBX 16 16 0 -2
BITMAP
0100
0100
0100
0100
fffe
0000
0000
0820
0810
0808
1008
1004
2004
4004
8000
0000
ENDCHAR
STARTCHAR (for_rename)
ENCODING 20846
SWIDTH 1024 0
DWIDTH 16 0
BBX 16 16 0 -2
BITMAP
03c0
0840
0820
1020
1010
2fec
4402
8400
0ff0
0810
1010
0010
0010
0010
0020
00c0
ENDCHAR
STARTCHAR (for_rename)
ENCODING 20849
SWIDTH 1024 0
DWIDTH 16 0
BBX 16 16 0 -2
BITMAP
0820
0820
0820
0820
fffe
0820
0820
0820
0820
fffe
0000
0820
1010
2008
4004
8002
ENDCHAR
STARTCHAR (for_rename)
ENCODING 20853
SWIDTH 1024 0
DWIDTH 16 0
BBX 16 16 0 -2
BITMAP
0060
1f80
1000
1000
1000
1ffc
1010
1010
1020
1020
fffe
0000
0820
1010
2008
c006
ENDCHAR
STARTCHAR (for_rename)
ENCODING 20854
SWIDTH 1024 0
DWIDTH 16 0
BBX 16 16 0 -2
BITMAP
0820
0820
7ffc
0820
0820
0fe0
0820
0820
0fe0
0820
0820
fffe
0000
0c60
3018
c006
ENDCHAR
STARTCHAR (for_rename)
ENCODING 20855
SWIDTH 1024 0
DWIDTH 16 0
BBX 16 16 0 -2
BITMAP
0000
1ff0
1010
1010
1ff0
1010
1010
1ff0
1010
1010
1ff0
0000
fffe
0440
0820
3018
ENDCHAR
STARTCHAR (for_rename)
ENCODING 20856
SWIDTH 1024 0
DWIDTH 16 0
BBX 16 16 0 -2
BITMAP
0440
0440
0440
7ffc
4444
4444
4444
7ffc
4444
4444
4444
fffe
0000
1010
2008
c006
ENDCHAR
STARTCHAR (for_rename)
ENCODING 20860
SWIDTH 1024 0
DWIDTH 16 0
BBX 16 16 0 -2
BITMAP
0840
0480
fffe
0480
7ff8
0488
0488
fffe
0488
0488
7ff8
0480
0cc0
14a0
2490
c48c
ENDCHAR
STARTCHAR (for_rename)
ENCODING 20864
SWIDTH 1024 0
DWIDTH 16 0
BBX 16 16 0 -2
BITMAP
0498
fce0
0482
3cfe
c000
3ff8
2108
3ff8
2108
3ff8
0440
7ffc
0440
fffe
0820
701c
ENDCHAR
STARTCHAR (for_rename)
ENCODING 20866
SWIDTH 1024 0
DWIDTH 16 0
BBX 16 16 0 -2
BITMAP
0000
7ffc
4004
4004
4004
4004
4004
4004
4004
4004
4004
4004
4004
4004
4004
401c
ENDCHAR
STARTCHAR (for_rename)
ENCODING 20869
SWIDTH 1024 0
DWIDTH 16 0
BBX 16 16 0 -2
BITMAP
0080
0080
0080
7ffe
4102
4102
4102
4282
4242
4422
4812
500a
6002
4002
4002
400e
ENDCHAR
STARTCHAR (for_rename)
ENCODING 20870
SWIDTH 1024 0
DWIDTH 16 0
BBX 16 16 0 -2
BITMAP
0000
7ffc
4104
4104
4104
4104
4104
4104
7ffc
4004
4004
4004
4004
4004
4004
403c
ENDCHAR
STARTCHAR (for_rename)
ENCODING 20873
SWIDTH 1024 0
DWIDTH 16 0
BBX 16 16 0 -2
BITMAP
0100
0100
3ff8
2108
2108
2108
3ff8
2108
2108
2108
fffe
2008
2008
2008
2008
2038
ENDCHAR
STARTCHAR (for_rename)
ENCODING 20874
SWIDTH 1024 0
DWIDTH 16 0
BBX 16 16 0 -2
BITMAP
0000
7ffc
4444
4444
4444
4444
4444
4444
fffe
4444
4444
4444
4444
4444
4444
444c
ENDCHAR
STARTCHAR (for_rename)
ENCODING 20876
SWIDTH 1024 0
DWIDTH 16 0
BBX 16 16 0 -2
BITMAP
0000
3cf8
2488
2488
2488
2488
2488
fffe
2488
2488
2488
2488
4488
4488
8508
8d18
ENDCHAR
STARTCHAR (for_rename)
ENCODING 20877
SWIDTH 1024 0
DWIDTH 16 0
BBX 16 16 0 -2
BITMAP
0000
fffe
0100
0100
3ff8
2108
2108
3ff8
2108
2108
2108
fffe
2008
2008
2008
2038
ENDCHAR
STARTCHAR (for_rename)
ENCODING 20879
SWIDTH 1024 0
DWIDTH 16 0
BBX 16 16 0 -2
BITMAP
0000
7ffc
4484
4484
4484
4894
48f4
5004
4fe4
4824
4824
4824
4fe4
4824
4004
400c
ENDCHAR
STARTCHAR (for_rename)
ENCODING 20880
SWIDTH 1024 0
DWIDTH 16 0
BBX 16 16 0 -2
BITMAP
0000
7ffc
4004
5ff4
4004
5ff4
4004
0000
1ff0
1010
1ff0
1010
1ff0
1010
1010
1070
ENDCHAR
STARTCHAR (for_rename)
ENCODING 20881
SWIDTH 1024 0
DWIDTH 16 0
BBX 16 16 0 -2
BITMAP
0100
7ffc
4104
7ffc
4104
7ffc
4004
0000
1ff0
1010
17d0
1010
17d0
1010
1010
1070
ENDCHAR
STARTCHAR (for_rename)
ENCODING 20882
SWIDTH 1024 0
DWIDTH 16 0
BBX 16 16 0 -2
BITMAP
0000
7ffc
4004
7ffc
4004
7ffc
0000
1ff0
1010
1010
1ff0
1010
1ff0
1010
1010
1ff0
ENDCHAR
STARTCHAR (for_rename)
ENCODING 20883
SWIDTH 1024 0
DWIDTH 16 0
BBX 16 16 0 -2
BITMAP
0440
7ffc
0440
3ff8
0440
fffe
0100
1ff0
1110
1ff0
1110
fffe
1010
1010
1010
1070
ENDCHAR
STARTCHAR (for_rename)
ENCODING 20885
SWIDTH 1024 0
DWIDTH 16 0
BBX 16 16 0 -2
BITMAP
0000
7ffc
4004
5ff4
4004
5ff4
0800
1fc0
2080
fff8
2108
2108
3ff8
0480
0882
f0fe
ENDCHAR
STARTCHAR (for_rename)
ENCODING 20886
SWIDTH 1024 0
DWIDTH 16 0
BBX 16 16 0 -2
BITMAP
0000
0000
0000
0000
0000
fffe
8002
8002
8002
0000
0000
0000
0000
0000
0000
0000
ENDCHAR
STARTCHAR (for_rename)
ENCODING 20887
SWIDTH 1024 0
DWIDTH 16 0
BBX 16 16 0 -2
BITMAP
0000
fffe
8002
8002
8002
0fe0
0820
0820
0820
0820
0820
0820
1020
1020
2022
c01e
ENDCHAR
STARTCHAR (for_rename)
ENCODING 20889
SWIDTH 1024 0
DWIDTH 16 0
BBX 16 16 0 -2
BITMAP
0000
fffe
8802
8802
8ffa
0800
1000
1ff0
1010
2010
0010
fffe
0010
0010
0020
03c0
ENDCHAR
STARTCHAR (for_rename)
ENCODING 20896
SWIDTH 1024 0
DWIDTH 16 0
BBX 16 16 0 -2
BITMAP
0000
fffe
8002
800a
7e08
0008
00fe
ff08
2408
2448
2448
2448
2408
241a
4402
83fe
ENDCHAR
STARTCHAR (for_rename)
ENCODING 20898
SWIDTH 1024 0
DWIDTH 16 0
BBX 16 16 0 -2
BITMAP
0000
fffe
8002
8002
3ff0
0200
0c00
3218
1560
0880
75c0
02a0
0490
1888
6086
0300
ENDCHAR
STARTCHAR (for_rename)
ENCODING 20900
SWIDTH 1024 0
DWIDTH 16 0
BBX 16 16 0 -2
BITMAP
0000
fffe
8002
bff2
0410
0410
0860
1000
7ff8
2108
2108
3ff8
04a0
0890
1082
e07e
ENDCHAR
STARTCHAR (for_rename)
ENCODING 20901
SWIDTH 1024 0
DWIDTH 16 0
BBX 16 16 0 -2
BITMAP
0000
7ffc
4004
4004
5ff4
1010
1ff0
1010
1ff0
1110
0100
fffe
0000
0440
1830
600c
ENDCHAR
STARTCHAR (for_rename)
ENCODING 20902
SWIDTH 1024 0
DWIDTH 16 0
BBX 16 16 0 -2
BITMAP
0000
fffe
8002
8042
7e40
007c
0040
ff40
147c
1404
1468
1410
2468
2584
4402
83fe
ENDCHAR
STARTCHAR (for_rename)
ENCODING 20904
SWIDTH 1024 0
DWIDTH 16 0
BBX 16 16 0 -2
BITMAP
0000
fffe
8002
bffa
0000
1ff0
1010
1ff0
0000
3ff8
2108
2108
3ff8
2108
2108
3ff8
ENDCHAR
STARTCHAR (for_rename)
ENCODING 20905
SWIDTH 1024 0
DWIDTH 16 0
BBX 16 16 0 -2
BITMAP
0000
fffe
8002
8602
38f8
2008
3ef8
2008
3ff8
1000
3ffc
4004
8924
24a4
4484
4018
ENDCHAR
STARTCHAR (for_rename)
ENCODING 20906
SWIDTH 1024 0
DWIDTH 16 0
BBX 16 16 0 -2
BITMAP
0000
fffe
8442
bffa
0440
1ff0
1010
1ff0
1010
fffe
0920
1ff0
3118
d116
1110
1130
ENDCHAR
STARTCHAR (for_rename)
ENCODING 20907
SWIDTH 1024 0
DWIDTH 16 0
BBX 16 16 0 -2
BITMAP
0000
0400
0200
0200
0000
0000
0080
0080
0080
0100
0100
0100
0200
0200
0200
0000
ENDCHAR
STARTCHAR (for_rename)
ENCODING 20908
SWIDTH 1024 0
DWIDTH 16 0
BBX 16 16 0 -2
BITMAP
0400
0400
0ff0
1010
2020
c840
0480
0300
0280
0440
0b20
1098
2006
ce00
01c0
0020
ENDCHAR
STARTCHAR (for_rename)
ENCODING 20912
SWIDTH 1024 0
DWIDTH 16 0
BBX 16 16 0 -2
BITMAP
0040
4040
2040
0042
0f44
0168
0150
2250
2250
2248
4448
4448
4844
9042
a040
01c0
ENDCHAR
STARTCHAR (for_rename)
ENCODING 20913
SWIDTH 1024 0
DWIDTH 16 0
BBX 16 16 0 -2
BITMAP
0000
4ffc
2100
0100
0100
01f8
0208
1208
1208
1208
23f0
2210
2010
4010
4010
1ffe
ENDCHAR
STARTCHAR (for_rename)
ENCODING 20914
SWIDTH 1024 0
DWIDTH 16 0
BBX 16 16 0 -2
BITMAP
0040
4040
2040
0040
0ffe
0842
2842
2842
2842
4842
4ffe
4040
8040
8040
0040
0040
ENDCHAR
STARTCHAR (for_rename)
ENCODING 20915
SWIDTH 1024 0
DWIDTH 16 0
BBX 16 16 0 -2
BITMAP
0080
4080
2080
07f8
0088
0088
2088
2ffe
2080
4140
4140
4120
8220
8410
0808
1006
ENDCHAR
STARTCHAR (for_rename)
ENCODING 20916
SWIDTH 1024 0
DWIDTH 16 0
BBX 16 16 0 -2
BITMAP
0000
47fc
2210
2210
0210
0210
2ffe
2010
2030
4050
4090
4110
8610
9810
0010
0070
ENDCHAR
STARTCHAR (for_rename)
ENCODING 20917
SWIDTH 1024 0
DWIDTH 16 0
BBX 16 16 0 -2
BITMAP
0000
47fc
2404
0404
0404
0404
1404
17fc
14a4
20a0
2120
2120
4220
4422
0822
303e
ENDCHAR
STARTCHAR (for_rename)
ENCODING 20918
SWIDTH 1024 0
DWIDTH 16 0
BBX 16 16 0 -2
BITMAP
0080
4080
2110
2108
0204
0ffe
0002
2000
2000
27fc
4404
4404
4404
8404
87fc
0404
ENDCHAR
STARTCHAR (for_rename)
ENCODING 20919
SWIDTH 1024 0
DWIDTH 16 0
BBX 16 16 0 -2
BITMAP
0040
00a0
4110
2208
2404
0bfa
0000
1000
17fc
1084
2084
2084
2084
4098
4080
0080
ENDCHAR
STARTCHAR (for_rename)
ENCODING 20925
SWIDTH 1024 0
DWIDTH 16 0
BBX 16 16 0 -2
BITMAP
0002
9fe2
4202
0212
07d2
0492
2892
2c92
2a92
5112
5112
4212
8212
8402
0802
100e
ENDCHAR
STARTCHAR (for_rename)
ENCODING 20932
SWIDTH 1024 0
DWIDTH 16 0
BBX 16 16 0 -2
BITMAP
0080
0080
9ffe
4080
47f8
0088
1ffe
0088
27f8
2100
2100
5ffe
4210
4710
80e0
8f18
ENDCHAR
STARTCHAR (for_rename)
ENCODING 20933
SWIDTH 1024 0
DWIDTH 16 0
BBX 16 16 0 -2
BITMAP
0000
4ffe
2802
0842
0842
0bfa
0842
2842
29f2
2912
4912
49f2
4912
8802
8ffe
0802
ENDCHAR
STARTCHAR (for_rename)
ENCODING 20934
SWIDTH 1024 0
DWIDTH 16 0
BBX 16 16 0 -2
BITMAP
0108
0108
0210
87fe
4a20
2220
0220
03fc
1220
1220
1220
23fc
2220
2220
4220
43fe
ENDCHAR
STARTCHAR (for_rename)
ENCODING 20937
SWIDTH 1024 0
DWIDTH 16 0
BBX 16 16 0 -2
BITMAP
0080
8080
4080
5ffc
0000
0000
27f0
2410
2410
4410
47f0
4080
8888
9084
2082
0380
ENDCHAR
STARTCHAR (for_rename)
ENCODING 20939
SWIDTH 1024 0
DWIDTH 16 0
BBX 16 16 0 -2
BITMAP
0000
4ffc
2804
2884
0bf4
0884
0884
2bf4
2884
2804
4bf4
4a14
4a14
93f4
9004
200c
ENDCHAR
STARTCHAR (for_rename)
ENCODING 20940
SWIDTH 1024 0
DWIDTH 16 0
BBX 16 16 0 -2
BITMAP
0040
47fc
2040
0040
0ffe
2120
2222
243e
4880
4100
43f8
8510
98a0
0040
01b0
1e0e
ENDCHAR
STARTCHAR (for_rename)
ENCODING 20941
SWIDTH 1024 0
DWIDTH 16 0
BBX 16 16 0 -2
BITMAP
0040
0ffe
8040
4040
27fc
0444
0444
07fc
2444
2444
27fc
40e0
4150
4248
8444
8842
ENDCHAR
STARTCHAR (for_rename)
ENCODING 20950
SWIDTH 1024 0
DWIDTH 16 0
BBX 16 16 0 -2
BITMAP
0110
4220
27fc
0c40
07fc
2440
27fc
2440
47fc
4400
0100
0100
fffe
0100
0100
0100
ENDCHAR
STARTCHAR (for_rename)
ENCODING 20955
SWIDTH 1024 0
DWIDTH 16 0
BBX 16 16 0 -2
BITMAP
0040
0ffe
4000
27fc
0514
05f4
0404
17fc
1000
13f8
2000
2ffe
2040
4448
4844
10c2
ENDCHAR
STARTCHAR (for_rename)
ENCODING 20956
SWIDTH 1024 0
DWIDTH 16 0
BBX 16 16 0 -2
BITMAP
0020
0020
27ff
2174
1154
1174
0104
01fc
080c
11f0
1020
27ff
2070
41ac
4623
0020
ENDCHAR
STARTCHAR (for_rename)
ENCODING 20957
SWIDTH 1024 0
DWIDTH 16 0
BBX 16 16 0 -2
BITMAP
0800
897e
4e04
48a8
0f90
0408
047e
2f92
2a10
2250
425c
4fd0
4250
8570
8950
308e
ENDCHAR
STARTCHAR (for_rename)
ENCODING 20960
SWIDTH 1024 0
DWIDTH 16 0
BBX 16 16 0 -2
BITMAP
0000
1fe0
1020
1020
1020
1020
1020
1020
1020
1020
1020
1020
2020
2022
4022
803e
ENDCHAR
STARTCHAR (for_rename)
ENCODING 20961
SWIDTH 1024 0
DWIDTH 16 0
BBX 16 16 0 -2
BITMAP
0000
1fe0
1020
1020
1020
1420
1220
1220
1120
1120
1120
2020
2022
2022
4022
801e
ENDCHAR
STARTCHAR (for_rename)
ENCODING 20966
SWIDTH 1024 0
DWIDTH 16 0
BBX 16 16 0 -2
BITMAP
2000
20f8
3c88
2488
4488
4488
8488
0488
4888
290a
110e
1200
2800
4400
8300
00fe
ENDCHAR
STARTCHAR (for_rename)
ENCODING 20967
SWIDTH 1024 0
DWIDTH 16 0
BBX 16 16 0 -2
BITMAP
0000
3ff8
2008
2108
2108
2fe8
2928
2928
2928
2928
4928
4928
496a
810a
8104
0100
ENDCHAR
STARTCHAR (for_rename)
ENCODING 20969
SWIDTH 1024 0
DWIDTH 16 0
BBX 16 16 0 -2
BITMAP
0000
3ff8
2008
2108
2108
2108
2fe8
2108
2308
2388
2548
2548
4928
5124
4104
8002
ENDCHAR
STARTCHAR (for_rename)
ENCODING 20970
SWIDTH 1024 0
DWIDTH 16 0
BBX 16 16 0 -2
BITMAP
0000
7ff0
4010
4110
4110
4910
4910
4910
49d0
4910
4908
4908
4908
490a
9fea
8004
ENDCHAR
STARTCHAR (for_rename)
ENCODING 20973
SWIDTH 1024 0
DWIDTH 16 0
BBX 16 16 0 -2
BITMAP
1038
17c0
2040
6ffe
a040
2040
27fc
2000
0fc0
0840
0840
0840
0840
1042
2042
c03e
ENDCHAR
STARTCHAR (for_rename)
ENCODING 20976
SWIDTH 1024 0
DWIDTH 16 0
BBX 16 16 0 -2
BITMAP
0000
3ff8
2208
2fe8
2828
2fe8
2828
2fe8
2008
2fe8
2108
47c8
4104
4104
bffa
8002
ENDCHAR
STARTCHAR (for_rename)
ENCODING 20977
SWIDTH 1024 0
DWIDTH 16 0
BBX 16 16 0 -2
BITMAP
0800
4978
4948
7f48
0048
ff48
0048
7f48
4148
4148
7f48
0448
2448
2f4a
f08a
010e
ENDCHAR
STARTCHAR (for_rename)
ENCODING 20981
SWIDTH 1024 0
DWIDTH 16 0
BBX 16 16 0 -2
BITMAP
0000
0000
4004
4004
4004
4004
4004
4004
4004
4004
4004
4004
4004
7ffc
4004
0000
ENDCHAR
STARTCHAR (for_rename)
ENCODING 20982
SWIDTH 1024 0
DWIDTH 16 0
BBX 16 16 0 -2
BITMAP
4002
400a
400a
5812
4412
4222
4122
40c2
4082
4142
4222
4412
5812
4002
7ffe
4002
ENDCHAR
STARTCHAR (for_rename)
ENCODING 20984
SWIDTH 1024 0
DWIDTH 16 0
BBX 16 16 0 -2
BITMAP
0000
07c0
0440
0440
0440
0440
7c7c
4444
4004
4004
4004
4004
4004
4004
7ffc
4004
ENDCHAR
STARTCHAR (for_rename)
ENCODING 20985
SWIDTH 1024 0
DWIDTH 16 0
BBX 16 16 0 -2
BITMAP
0000
0000
7c7c
4444
4444
4444
4444
4444
47c4
4444
4004
4004
4004
7ffc
4004
4004
ENDCHAR
STARTCHAR (for_rename)
ENCODING 20986
SWIDTH 1024 0
DWIDTH 16 0
BBX 16 16 0 -2
BITMAP
0100
2108
2108
2108
2108
2108
3ff8
0100
0100
4104
4104
4104
4104
4104
7ffc
4004
ENDCHAR
STARTCHAR (for_rename)
ENCODING 20989
SWIDTH 1024 0
DWIDTH 16 0
BBX 16 16 0 -2
BITMAP
0000
fffe
0200
0400
4f94
40a4
48c4
4484
40c4
42a4
4c94
5084
4384
4004
7ffc
4004
ENDCHAR
STARTCHAR (for_rename)
ENCODING 20990
SWIDTH 1024 0
DWIDTH 16 0
BBX 16 16 0 -2
BITMAP
0000
7ff0
0040
0180
4104
5d74
5514
5514
5554
5524
5554
5d54
5184
4304
7ffc
4004
ENDCHAR
STARTCHAR (for_rename)
ENCODING 20992
SWIDTH 1024 0
DWIDTH 16 0
BBX 16 16 0 -2
BITMAP
0000
7ffc
0204
0204
0204
0204
0204
0204
0204
0204
0404
0404
0804
0804
3008
c070
ENDCHAR
STARTCHAR (for_rename)
ENCODING 20995
SWIDTH 1024 0
DWIDTH 16 0
BBX 16 16 0 -2
BITMAP
0000
fffc
0104
0104
0104
3104
0904
0604
0204
0304
0484
0444
0844
1004
2008
c070
ENDCHAR
STARTCHAR (for_rename)
ENCODING 20996
SWIDTH 1024 0
DWIDTH 16 0
BBX 16 16 0 -2
BITMAP
0000
7ff8
0108
1108
1108
0908
0a08
0608
0208
0510
0490
0450
0838
1016
2020
c0c0
ENDCHAR
STARTCHAR (for_rename)
ENCODING 20998
SWIDTH 1024 0
DWIDTH 16 0
BBX 16 16 0 -2
BITMAP
01c0
0040
0420
0820
1010
2008
4004
bffa
0208
0208
0208
0408
0408
0808
3010
c060
ENDCHAR
STARTCHAR (for_rename)
ENCODING 20999
SWIDTH 1024 0
DWIDTH 16 0
BBX 16 16 0 -2
BITMAP
2000
23fe
2022
2022
2e22
f022
2022
2022
2042
2042
2042
2482
3c84
0104
0204
0c18
ENDCHAR
STARTCHAR (for_rename)
ENCODING 21000
SWIDTH 1024 0
DWIDTH 16 0
BBX 16 16 0 -2
BITMAP
0004
0404
0444
0444
0444
4444
2444
1844
0844
0c44
1244
1244
2004
4004
8004
001c
ENDCHAR
STARTCHAR (for_rename)
ENCODING 21002
SWIDTH 1024 0
DWIDTH 16 0
BBX 16 16 0 -2
BITMAP
0002
ff02
0822
0822
0822
0822
0822
ffa2
0822
0822
0822
0822
0822
0802
0802
0806
ENDCHAR
STARTCHAR (for_rename)
ENCODING 21003
SWIDTH 1024 0
DWIDTH 16 0
BBX 16 16 0 -2
BITMAP
0704
f804
0824
0824
0824
0824
ffa4
0824
0824
0824
1024
1024
1004
2004
4004
800c
ENDCHAR
STARTCHAR (for_rename)
ENCODING 21006
SWIDTH 1024 0
DWIDTH 16 0
BBX 16 16 0 -2
BITMAP
1002
1002
2012
3f92
4a92
5292
9492
2492
2492
4892
4912
9112
1102
2102
4602
8006
ENDCHAR
STARTCHAR (for_rename)
ENCODING 21009
SWIDTH 1024 0
DWIDTH 16 0
BBX 16 16 0 -2
BITMAP
0002
ff82
2222
2222
2222
2222
ffa2
2222
2222
2222
2222
2222
2222
2222
4202
8206
ENDCHAR
STARTCHAR (for_rename)
ENCODING 21012
SWIDTH 1024 0
DWIDTH 16 0
BBX 16 16 0 -2
BITMAP
0402
0402
0412
7f92
0492
0492
0492
ffd2
0812
0c12
0a12
1112
1082
2082
4002
800e
ENDCHAR
STARTCHAR (for_rename)
ENCODING 21015
SWIDTH 1024 0
DWIDTH 16 0
BBX 16 16 0 -2
BITMAP
0002
ffc2
1002
1022
1f22
1122
2122
2122
3a22
4622
0222
0422
0422
0802
3002
c006
ENDCHAR
STARTCHAR (for_rename)
ENCODING 21021
SWIDTH 1024 0
DWIDTH 16 0
BBX 16 16 0 -2
BITMAP
1000
11fe
fc42
0442
0442
0842
1042
3442
5842
9442
1082
1082
1084
1104
1204
1418
ENDCHAR
STARTCHAR (for_rename)
ENCODING 21028
SWIDTH 1024 0
DWIDTH 16 0
BBX 16 16 0 -2
BITMAP
0802
4902
4922
2a22
2a22
0822
ffa2
0822
0822
0822
ffa2
0822
0822
0802
0802
0806
ENDCHAR
STARTCHAR (for_rename)
ENCODING 21029
SWIDTH 1024 0
DWIDTH 16 0
BBX 16 16 0 -2
BITMAP
0002
ff02
8122
8122
8122
ff22
2022
2022
3f22
2122
2122
2122
2102
4102
4102
860e
ENDCHAR
STARTCHAR (for_rename)
ENCODING 21031
SWIDTH 1024 0
DWIDTH 16 0
BBX 16 16 0 -2
BITMAP
0800
0800
08fe
7e22
0822
0822
0822
ff22
1042
1042
1044
2444
2e44
f284
0084
0118
ENDCHAR
STARTCHAR (for_rename)
ENCODING 21033
SWIDTH 1024 0
DWIDTH 16 0
BBX 16 16 0 -2
BITMAP
0604
f804
1044
1044
1044
fe44
1044
3044
3844
5444
5244
9044
1044
1004
1004
101c
ENDCHAR
STARTCHAR (for_rename)
ENCODING 21034
SWIDTH 1024 0
DWIDTH 16 0
BBX 16 16 0 -2
BITMAP
0002
7f82
5492
5492
5492
5492
5492
ffd2
5492
5492
5492
5492
5482
5482
5482
4186
ENDCHAR
STARTCHAR (for_rename)
ENCODING 21038
SWIDTH 1024 0
DWIDTH 16 0
BBX 16 16 0 -2
BITMAP
0002
0702
f822
0822
0822
0822
ffa2
0822
0822
0822
7f22
4122
4102
4102
7f02
4106
ENDCHAR
STARTCHAR (for_rename)
ENCODING 21040
SWIDTH 1024 0
DWIDTH 16 0
BBX 16 16 0 -2
BITMAP
0002
ffa2
1022
2022
2222
4722
f8a2
08a2
0822
0822
7f22
0822
0802
0802
0f82
f806
ENDCHAR
STARTCHAR (for_rename)
ENCODING 21043
SWIDTH 1024 0
DWIDTH 16 0
BBX 16 16 0 -2
BITMAP
0802
0802
ff92
1412
2212
4112
be92
0012
7f92
1012
1f12
2112
0102
0102
0202
0c06
ENDCHAR
STARTCHAR (for_rename)
ENCODING 21046
SWIDTH 1024 0
DWIDTH 16 0
BBX 16 16 0 -2
BITMAP
4802
4802
7f02
8822
0822
ffa2
0822
0822
7f22
4922
4922
4922
4922
4902
4b02
0806
ENDCHAR
STARTCHAR (for_rename)
ENCODING 21047
SWIDTH 1024 0
DWIDTH 16 0
BBX 16 16 0 -2
BITMAP
0002
7fd2
4052
4052
7fd2
4212
4212
5fd2
5252
5252
5252
5252
5242
52c2
8202
820e
ENDCHAR
STARTCHAR (for_rename)
ENCODING 21048
SWIDTH 1024 0
DWIDTH 16 0
BBX 16 16 0 -2
BITMAP
0100
2108
1110
0920
7ffc
0280
0440
fffe
0820
1010
2fe8
c226
0220
0420
0820
30c0
ENDCHAR
STARTCHAR (for_rename)
ENCODING 21049
SWIDTH 1024 0
DWIDTH 16 0
BBX 16 16 0 -2
BITMAP
0102
6202
1422
0822
3622
c122
0822
0822
ffa2
0822
1c22
2a22
4902
8802
0802
0806
ENDCHAR
STARTCHAR (for_rename)
ENCODING 21050
SWIDTH 1024 0
DWIDTH 16 0
BBX 16 16 0 -2
BITMAP
0802
0802
ffa2
0822
0822
7f22
4922
4922
4922
4b22
1822
2c22
4a22
8902
0802
0806
ENDCHAR
STARTCHAR (for_rename)
ENCODING 21051
SWIDTH 1024 0
DWIDTH 16 0
BBX 16 16 0 -2
BITMAP
0802
0822
0822
ffa2
0822
5022
2222
1422
0822
1122
2222
c422
0822
1402
2202
c186
ENDCHAR
STARTCHAR (for_rename)
ENCODING 21059
SWIDTH 1024 0
DWIDTH 16 0
BBX 16 16 0 -2
BITMAP
2102
1202
0422
7f22
0922
0922
7f22
4822
4822
7fa2
08a2
18a2
2882
cb02
0802
0806
ENDCHAR
STARTCHAR (for_rename)
ENCODING 21060
SWIDTH 1024 0
DWIDTH 16 0
BBX 16 16 0 -2
BITMAP
0002
7fc2
0012
1252
2492
4912
2492
1252
0012
7f92
0412
0412
0402
07c2
7802
0006
ENDCHAR
STARTCHAR (for_rename)
ENCODING 21063
SWIDTH 1024 0
DWIDTH 16 0
BBX 16 16 0 -2
BITMAP
0002
3f02
2122
2122
3f22
2122
2122
2122
3f22
2122
2122
2122
3f22
1202
2102
408e
ENDCHAR
STARTCHAR (for_rename)
ENCODING 21066
SWIDTH 1024 0
DWIDTH 16 0
BBX 16 16 0 -2
BITMAP
8882
4922
2a22
0822
7f22
4122
4122
7f22
4122
4122
7f22
4122
4122
4102
4102
430e
ENDCHAR
STARTCHAR (for_rename)
ENCODING 21067
SWIDTH 1024 0
DWIDTH 16 0
BBX 16 16 0 -2
BITMAP
1008
1008
ff48
1048
1048
fe48
8248
8248
8248
fe48
2808
2808
2818
4800
4802
87fe
ENDCHAR
STARTCHAR (for_rename)
ENCODING 21068
SWIDTH 1024 0
DWIDTH 16 0
BBX 16 16 0 -2
BITMAP
0804
0804
ff84
0824
0824
7f24
4924
4924
7f24
0824
1c24
2b24
4884
8804
0804
080c
ENDCHAR
STARTCHAR (for_rename)
ENCODING 21069
SWIDTH 1024 0
DWIDTH 16 0
BBX 16 16 0 -2
BITMAP
0820
0440
fffe
0000
0004
7e44
4244
4244
7e44
4244
4244
7e44
4244
4204
4204
460c
ENDCHAR
STARTCHAR (for_rename)
ENCODING 21071
SWIDTH 1024 0
DWIDTH 16 0
BBX 16 16 0 -2
BITMAP
4400
24fc
0824
fea4
24a4
24a4
24a4
fe64
2424
2424
2454
2454
2488
448c
410a
8230
ENDCHAR
STARTCHAR (for_rename)
ENCODING 21076
SWIDTH 1024 0
DWIDTH 16 0
BBX 16 16 0 -2
BITMAP
0000
3f04
2124
3f24
2124
3f24
0824
1024
3fa4
4aa4
92a4
24a4
4884
1084
e104
060c
ENDCHAR
STARTCHAR (for_rename)
ENCODING 21078
SWIDTH 1024 0
DWIDTH 16 0
BBX 16 16 0 -2
BITMAP
0802
0802
ffa2
2222
2222
2222
2222
ffa2
0022
0022
7f22
4122
4122
4102
7f02
4106
ENDCHAR
STARTCHAR (for_rename)
ENCODING 21083
SWIDTH 1024 0
DWIDTH 16 0
BBX 16 16 0 -2
BITMAP
0002
ff82
8092
a292
a292
9492
ff92
8892
8892
aa92
aa92
aa92
aa92
be82
8082
8186
ENDCHAR
STARTCHAR (for_rename)
ENCODING 21085
SWIDTH 1024 0
DWIDTH 16 0
BBX 16 16 0 -2
BITMAP
1004
1e04
2224
2224
3c24
4424
0424
ffa4
0824
4924
2a24
0824
2a04
4904
8884
180c
ENDCHAR
STARTCHAR (for_rename)
ENCODING 21086
SWIDTH 1024 0
DWIDTH 16 0
BBX 16 16 0 -2
BITMAP
0802
0802
ff92
0812
1612
6112
0012
ffd2
0112
7912
4912
4912
7902
4902
0102
0306
ENDCHAR
STARTCHAR (for_rename)
ENCODING 21091
SWIDTH 1024 0
DWIDTH 16 0
BBX 16 16 0 -2
BITMAP
0802
1422
2222
4122
bea2
0822
0822
7f22
4922
4922
7f22
0822
0802
1402
2202
c186
ENDCHAR
STARTCHAR (for_rename)
ENCODING 21092
SWIDTH 1024 0
DWIDTH 16 0
BBX 16 16 0 -2
BITMAP
0802
0802
ffa2
2222
1422
0822
3622
c1a2
4122
7f22
4122
4122
7f02
4102
8102
810e
ENDCHAR
STARTCHAR (for_rename)
ENCODING 21093
SWIDTH 1024 0
DWIDTH 16 0
BBX 16 16 0 -2
BITMAP
0002
3f12
0112
3f12
0112
0112
7fd2
0412
4492
2712
2612
0d02
1482
6442
0402
0c06
ENDCHAR
STARTCHAR (for_rename)
ENCODING 21097
SWIDTH 1024 0
DWIDTH 16 0
BBX 16 16 0 -2
BITMAP
0704
7804
0824
ffa4
0824
2a24
eba4
2a24
6a24
aba4
1c24
2a24
4904
8804
0804
080c
ENDCHAR
STARTCHAR (for_rename)
ENCODING 21098
SWIDTH 1024 0
DWIDTH 16 0
BBX 16 16 0 -2
BITMAP
1020
0840
fffe
0000
7e48
4248
5a48
4248
5a08
4218
0000
fffc
0204
0404
1804
e018
ENDCHAR
STARTCHAR (for_rename)
ENCODING 21103
SWIDTH 1024 0
DWIDTH 16 0
BBX 16 16 0 -2
BITMAP
0002
ff92
0012
0012
7f12
4112
4112
7f12
0012
ff92
8892
8892
ff82
8882
8882
ff86
ENDCHAR
STARTCHAR (for_rename)
ENCODING 21104
SWIDTH 1024 0
DWIDTH 16 0
BBX 16 16 0 -2
BITMAP
0302
7c02
0822
0822
ffa2
4922
4922
ffa2
4922
4922
ffa2
0822
1c02
2a02
4902
888e
ENDCHAR
STARTCHAR (for_rename)
ENCODING 21105
SWIDTH 1024 0
DWIDTH 16 0
BBX 16 16 0 -2
BITMAP
0800
14fe
1222
2122
7e22
88a2
08a2
7f62
4922
4922
7f54
084c
1446
2284
4084
8118
ENDCHAR
STARTCHAR (for_rename)
ENCODING 21106
SWIDTH 1024 0
DWIDTH 16 0
BBX 16 16 0 -2
BITMAP
0802
0802
ffa2
88a2
0822
7f22
0822
7f22
0822
ffa2
0022
0022
7f22
4102
4102
7f06
ENDCHAR
STARTCHAR (for_rename)
ENCODING 21107
SWIDTH 1024 0
DWIDTH 16 0
BBX 16 16 0 -2
BITMAP
1202
1202
ffd2
1212
1212
0c12
1212
2112
5e92
8052
0012
3f12
2102
2102
3f02
2106
ENDCHAR
STARTCHAR (for_rename)
ENCODING 21108
SWIDTH 1024 0
DWIDTH 16 0
BBX 16 16 0 -2
BITMAP
0804
4904
4924
7f24
4124
0024
ffa4
0024
7f24
4124
4124
7f24
2204
1404
0784
f81c
ENDCHAR
STARTCHAR (for_rename)
ENCODING 21109
SWIDTH 1024 0
DWIDTH 16 0
BBX 16 16 0 -2
BITMAP
0402
0a02
1102
20a2
5f22
8022
3fa2
20a2
3fa2
20a2
3fa2
4022
bf82
2082
2082
3f8e
ENDCHAR
STARTCHAR (for_rename)
ENCODING 21117
SWIDTH 1024 0
DWIDTH 16 0
BBX 16 16 0 -2
BITMAP
0002
ffc2
1212
7f92
5292
5292
7f92
0012
7f92
0012
ffd2
0412
2502
4482
8442
0c0e
ENDCHAR
STARTCHAR (for_rename)
ENCODING 21119
SWIDTH 1024 0
DWIDTH 16 0
BBX 16 16 0 -2
BITMAP
2484
4904
9224
4924
0024
7f24
4924
7f24
4924
7f24
0824
ffa4
1804
2e04
4904
881c
ENDCHAR
STARTCHAR (for_rename)
ENCODING 21123
SWIDTH 1024 0
DWIDTH 16 0
BBX 16 16 0 -2
BITMAP
0804
7f04
0924
ffa4
0924
7f24
0824
ffa4
0024
7f24
4924
7f24
4904
7f04
0004
ff8c
ENDCHAR
STARTCHAR (for_rename)
ENCODING 21127
SWIDTH 1024 0
DWIDTH 16 0
BBX 16 16 0 -2
BITMAP
0802
0f82
0812
7fd2
4852
5f92
4812
4f92
4012
5fd2
4212
4692
5b12
4692
5a42
8606
ENDCHAR
STARTCHAR (for_rename)
ENCODING 21128
SWIDTH 1024 0
DWIDTH 16 0
BBX 16 16 0 -2
BITMAP
0020
7dfc
4488
7c50
43fe
4020
bc20
a5fc
bc20
0020
7ffc
0104
0204
0404
1804
e018
ENDCHAR
STARTCHAR (for_rename)
ENCODING 21129
SWIDTH 1024 0
DWIDTH 16 0
BBX 16 16 0 -2
BITMAP
1004
6784
42a4
52a4
74a4
85a4
1824
2624
41a4
be24
0824
7f24
0804
4a04
2f84
f00c
ENDCHAR
STARTCHAR (for_rename)
ENCODING 21133
SWIDTH 1024 0
DWIDTH 16 0
BBX 16 16 0 -2
BITMAP
0402
0a02
1112
2092
c052
3f12
0012
7bd2
4a52
4a52
7bd2
1112
1102
2a82
4242
8406
ENDCHAR
STARTCHAR (for_rename)
ENCODING 21137
SWIDTH 1024 0
DWIDTH 16 0
BBX 16 16 0 -2
BITMAP
0402
ffe2
110a
0a4a
f58a
554a
552a
958a
000a
208a
3f8a
208a
3f8a
2082
4082
808e
ENDCHAR
STARTCHAR (for_rename)
ENCODING 21138
SWIDTH 1024 0
DWIDTH 16 0
BBX 16 16 0 -2
BITMAP
0800
1400
127e
2112
4012
be12
0052
7752
5552
5552
7712
2222
2222
5542
4484
8918
ENDCHAR
STARTCHAR (for_rename)
ENCODING 21140
SWIDTH 1024 0
DWIDTH 16 0
BBX 16 16 0 -2
BITMAP
0800
14fe
1212
2112
5e52
8052
7752
5552
5522
7722
2254
224c
5546
4484
8904
0218
ENDCHAR
STARTCHAR (for_rename)
ENCODING 21147
SWIDTH 1024 0
DWIDTH 16 0
BBX 16 16 0 -2
BITMAP
0200
0200
0200
0200
fffc
0204
0204
0204
0204
0404
0404
0804
0804
1004
2008
c030
ENDCHAR
STARTCHAR (for_rename)
ENCODING 21151
SWIDTH 1024 0
DWIDTH 16 0
BBX 16 16 0 -2
BITMAP
0040
0040
fc40
1040
13fe
1042
1042
1042
1042
1082
1082
1d02
e102
0202
0404
1818
ENDCHAR
STARTCHAR (for_rename)
ENCODING 21152
SWIDTH 1024 0
DWIDTH 16 0
BBX 16 16 0 -2
BITMAP
0800
0800
0800
ff3e
1122
1122
1122
1122
1122
1122
2122
2122
2222
423e
4222
8c00
ENDCHAR
STARTCHAR (for_rename)
ENCODING 21155
SWIDTH 1024 0
DWIDTH 16 0
BBX 16 16 0 -2
BITMAP
0100
1118
2104
4122
8340
0180
0e00
7080
0080
7ffc
0104
0104
0204
0404
1804
6038
ENDCHAR
STARTCHAR (for_rename)
ENCODING 21161
SWIDTH 1024 0
DWIDTH 16 0
BBX 16 16 0 -2
BITMAP
0020
7c20
4420
4420
45fe
7c22
4422
4422
4422
7c22
4422
4422
4642
5842
e082
030c
ENDCHAR
STARTCHAR (for_rename)
ENCODING 21162
SWIDTH 1024 0
DWIDTH 16 0
BBX 16 16 0 -2
BITMAP
2000
20fc
fe04
4444
c428
2810
1828
24c6
c100
3ff8
0108
0208
0208
0408
0808
3070
ENDCHAR
STARTCHAR (for_rename)
ENCODING 21163
SWIDTH 1024 0
DWIDTH 16 0
BBX 16 16 0 -2
BITMAP
1020
1020
1020
7e20
1020
10fe
1022
ff22
1022
2042
2042
2442
4e82
f282
0104
0218
ENDCHAR
STARTCHAR (for_rename)
ENCODING 21164
SWIDTH 1024 0
DWIDTH 16 0
BBX 16 16 0 -2
BITMAP
1010
1010
3f10
2110
417e
8112
7912
4912
4912
4912
7922
4a22
4242
0242
0c82
010c
ENDCHAR
STARTCHAR (for_rename)
ENCODING 21165
SWIDTH 1024 0
DWIDTH 16 0
BBX 16 16 0 -2
BITMAP
0020
0020
ff20
1120
11fe
2122
2122
c622
0022
fe42
8242
8242
8282
fe82
8102
060c
ENDCHAR
STARTCHAR (for_rename)
ENCODING 21169
SWIDTH 1024 0
DWIDTH 16 0
BBX 16 16 0 -2
BITMAP
0010
7f10
4010
4010
407e
7f92
4812
4812
4f12
4912
4912
4912
4912
5122
9122
a64c
ENDCHAR
STARTCHAR (for_rename)
ENCODING 21172
SWIDTH 1024 0
DWIDTH 16 0
BBX 16 16 0 -2
BITMAP
0008
2208
1110
1120
fffe
8002
8102
0100
7ffc
0104
0204
0204
0404
0804
3008
c070
ENDCHAR
STARTCHAR (for_rename)
ENCODING 21173
SWIDTH 1024 0
DWIDTH 16 0
BBX 16 16 0 -2
BITMAP
0100
1130
2208
5fe4
0480
0840
fffe
1020
1110
2108
5ff4
8210
0210
0410
1810
60e0
ENDCHAR
STARTCHAR (for_rename)
ENCODING 21177
SWIDTH 1024 0
DWIDTH 16 0
BBX 16 16 0 -2
BITMAP
1020
1020
ff20
0020
24fe
4222
8122
0422
4422
4422
2822
1042
2842
4482
8102
020c
ENDCHAR
STARTCHAR (for_rename)
ENCODING 21180
SWIDTH 1024 0
DWIDTH 16 0
BBX 16 16 0 -2
BITMAP
1020
1020
1020
ff20
1020
10fe
fe22
0022
0022
7c42
4442
4442
4482
7c82
4102
060c
ENDCHAR
STARTCHAR (for_rename)
ENCODING 21182
SWIDTH 1024 0
DWIDTH 16 0
BBX 16 16 0 -2
BITMAP
0820
0820
0820
ff20
10fc
1024
a424
4424
2824
1224
2224
4444
8844
1444
2284
c118
ENDCHAR
STARTCHAR (for_rename)
ENCODING 21185
SWIDTH 1024 0
DWIDTH 16 0
BBX 16 16 0 -2
BITMAP
0010
ff90
0010
2490
497e
9212
4912
2492
2492
0012
ff12
0812
0822
0f22
f042
018c
ENDCHAR
STARTCHAR (for_rename)
ENCODING 21187
SWIDTH 1024 0
DWIDTH 16 0
BBX 16 16 0 -2
BITMAP
1020
1020
fe20
1020
10fc
fe24
8224
8224
7824
0824
1024
1e44
f044
1084
1104
3218
ENDCHAR
STARTCHAR (for_rename)
ENCODING 21189
SWIDTH 1024 0
DWIDTH 16 0
BBX 16 16 0 -2
BITMAP
0810
0810
ff90
0810
087e
7f12
4912
4912
7f12
0822
1c22
2a22
4942
8842
0882
090c
ENDCHAR
STARTCHAR (for_rename)
ENCODING 21191
SWIDTH 1024 0
DWIDTH 16 0
BBX 16 16 0 -2
BITMAP
0000
3ff8
0010
0660
0180
3ff8
2108
3ff8
2108
3ff8
0100
7ffc
0204
0404
1804
6018
ENDCHAR
STARTCHAR (for_rename)
ENCODING 21193
SWIDTH 1024 0
DWIDTH 16 0
BBX 16 16 0 -2
BITMAP
2020
7c20
4420
8820
11fe
fe22
9222
9222
9222
fe42
2842
2882
290c
4800
4802
87fe
ENDCHAR
STARTCHAR (for_rename)
ENCODING 21197
SWIDTH 1024 0
DWIDTH 16 0
BBX 16 16 0 -2
BITMAP
0810
0810
ff90
0010
0010
7f7e
4112
4112
7f22
0822
0822
2a22
4942
8842
0882
190c
ENDCHAR
STARTCHAR (for_rename)
ENCODING 21202
SWIDTH 1024 0
DWIDTH 16 0
BBX 16 16 0 -2
BITMAP
2220
2220
ffa0
2220
3efe
0822
7f22
4922
4922
7f22
0822
0842
ffc2
0842
0882
090c
ENDCHAR
STARTCHAR (for_rename)
ENCODING 21205
SWIDTH 1024 0
DWIDTH 16 0
BBX 16 16 0 -2
BITMAP
0620
f820
1020
fe20
10fe
fe22
9222
9222
fe22
9222
9222
fe22
1022
fe42
1042
fe8c
ENDCHAR
STARTCHAR (for_rename)
ENCODING 21207
SWIDTH 1024 0
DWIDTH 16 0
BBX 16 16 0 -2
BITMAP
0000
1ff8
1008
1ff8
1008
1ff8
0010
3e10
22fe
3e22
2222
3e22
2242
2742
f882
011c
ENDCHAR
STARTCHAR (for_rename)
ENCODING 21208
SWIDTH 1024 0
DWIDTH 16 0
BBX 16 16 0 -2
BITMAP
2210
2210
ff90
2210
3efe
2212
3e12
2212
ff92
5412
5412
5512
6322
4022
7f42
408c
ENDCHAR
STARTCHAR (for_rename)
ENCODING 21209
SWIDTH 1024 0
DWIDTH 16 0
BBX 16 16 0 -2
BITMAP
0080
fe80
04fc
4508
2848
1050
0830
fece
1220
3220
35fc
5024
9044
1044
1084
3318
ENDCHAR
STARTCHAR (for_rename)
ENCODING 21213
SWIDTH 1024 0
DWIDTH 16 0
BBX 16 16 0 -2
BITMAP
0124
7924
48a8
49fc
4820
7820
4bfe
4850
48a8
7924
4afe
4824
4844
4844
8884
9b18
ENDCHAR
STARTCHAR (for_rename)
ENCODING 21214
SWIDTH 1024 0
DWIDTH 16 0
BBX 16 16 0 -2
BITMAP
0810
2a54
2c58
4890
1428
2244
fffe
8102
8102
3ff0
0210
0210
0410
0410
0810
3060
ENDCHAR
STARTCHAR (for_rename)
ENCODING 21215
SWIDTH 1024 0
DWIDTH 16 0
BBX 16 16 0 -2
BITMAP
0820
fffe
0820
3ff8
2008
3ff8
2008
3ff8
0800
fffe
1210
2fe8
c226
0420
0820
30c0
ENDCHAR
STARTCHAR (for_rename)
ENCODING 21216
SWIDTH 1024 0
DWIDTH 16 0
BBX 16 16 0 -2
BITMAP
0010
f790
5290
9490
31fe
d292
0892
1612
2112
4892
9212
6422
0922
7242
0482
f90c
ENDCHAR
STARTCHAR (for_rename)
ENCODING 21218
SWIDTH 1024 0
DWIDTH 16 0
BBX 16 16 0 -2
BITMAP
1040
7c40
11f8
fe48
2848
4e48
90ea
7c4a
118e
7c00
0100
3ffc
0104
0204
0c08
7070
ENDCHAR
STARTCHAR (for_rename)
ENCODING 21219
SWIDTH 1024 0
DWIDTH 16 0
BBX 16 16 0 -2
BITMAP
0810
7f10
0810
3e10
0810
ff7e
0012
7e22
4222
7e22
4222
7e42
4242
7e42
2482
c30c
ENDCHAR
STARTCHAR (for_rename)
ENCODING 21220
SWIDTH 1024 0
DWIDTH 16 0
BBX 16 16 0 -2
BITMAP
4820
ff20
4820
4820
fefe
9222
9222
fe22
1022
fe22
1022
fe22
1022
1e42
f042
018c
ENDCHAR
STARTCHAR (for_rename)
ENCODING 21222
SWIDTH 1024 0
DWIDTH 16 0
BBX 16 16 0 -2
BITMAP
4910
9210
4910
0010
7f7e
4912
7f12
4922
7f22
0822
ffa2
0822
1c42
2a42
4882
890c
ENDCHAR
STARTCHAR (for_rename)
ENCODING 21223
SWIDTH 1024 0
DWIDTH 16 0
BBX 16 16 0 -2
BITMAP
2020
4020
7e20
9020
10fe
ff22
2422
4822
ff22
4822
7f22
4822
7f22
4842
7f42
408c
ENDCHAR
STARTCHAR (for_rename)
ENCODING 21234
SWIDTH 1024 0
DWIDTH 16 0
BBX 16 16 0 -2
BITMAP
0010
7f10
0810
ff90
087e
7f12
4912
7f12
4912
7f12
0822
7f22
084c
ff00
4884
8442
ENDCHAR
STARTCHAR (for_rename)
ENCODING 21235
SWIDTH 1024 0
DWIDTH 16 0
BBX 16 16 0 -2
BITMAP
0010
7f10
0810
ff90
087e
7f12
6b12
4912
7f12
0822
7f22
0822
ffa2
0042
5542
948c
ENDCHAR
STARTCHAR (for_rename)
ENCODING 21237
SWIDTH 1024 0
DWIDTH 16 0
BBX 16 16 0 -2
BITMAP
0010
7fd0
4010
4a10
7f90
4a7e
5f12
5512
5f12
5512
5f12
4412
bfa2
a4a2
aec2
a08c
ENDCHAR
STARTCHAR (for_rename)
ENCODING 21240
SWIDTH 1024 0
DWIDTH 16 0
BBX 16 16 0 -2
BITMAP
2210
ff90
2210
0010
7f10
497e
7f12
2412
4822
7fa2
a422
3f22
2422
3f42
2442
3f8c
ENDCHAR
STARTCHAR (for_rename)
ENCODING 21241
SWIDTH 1024 0
DWIDTH 16 0
BBX 16 16 0 -2
BITMAP
0800
0800
1000
1ffc
2004
2004
4004
4004
8004
0004
0004
0004
0004
0008
0008
0070
ENDCHAR
STARTCHAR (for_rename)
ENCODING 21242
SWIDTH 1024 0
DWIDTH 16 0
BBX 16 16 0 -2
BITMAP
0800
1000
1000
3ffc
2004
4004
4004
8404
0204
0104
0104
0004
0004
0008
0008
0070
ENDCHAR
STARTCHAR (for_rename)
ENCODING 21246
SWIDTH 1024 0
DWIDTH 16 0
BBX 16 16 0 -2
BITMAP
0800
0800
1000
1ffc
2004
4404
8404
0404
0804
0884
1044
11e4
7e24
0004
0008
0030
ENDCHAR
STARTCHAR (for_rename)
ENCODING 21247
SWIDTH 1024 0
DWIDTH 16 0
BBX 16 16 0 -2
BITMAP
0800
0800
1000
1ffc
2244
4244
8444
0444
0844
1084
6084
0104
0204
0c08
7008
0030
ENDCHAR
STARTCHAR (for_rename)
ENCODING 21249
SWIDTH 1024 0
DWIDTH 16 0
BBX 16 16 0 -2
BITMAP
0800
0800
0ff8
1088
1088
2888
4888
4508
8508
0210
0590
0470
0818
3016
c060
0180
ENDCHAR
STARTCHAR (for_rename)
ENCODING 21250
SWIDTH 1024 0
DWIDTH 16 0
BBX 16 16 0 -2
BITMAP
1000
1000
1ffc
2004
2004
5004
90c4
1304
1c04
1004
1004
1024
0fe4
0004
0008
0030
ENDCHAR
STARTCHAR (for_rename)
ENCODING 21253
SWIDTH 1024 0
DWIDTH 16 0
BBX 16 16 0 -2
BITMAP
1000
1000
3ff8
2008
4008
9f88
0088
0088
0088
1f88
1008
1030
1000
1002
1002
0ffe
ENDCHAR
STARTCHAR (for_rename)
ENCODING 21254
SWIDTH 1024 0
DWIDTH 16 0
BBX 16 16 0 -2
BITMAP
0800
0800
0ffe
1112
2122
4222
9a22
0442
0b42
1082
2142
0122
0202
0404
1804
6038
ENDCHAR
STARTCHAR (for_rename)
ENCODING 21256
SWIDTH 1024 0
DWIDTH 16 0
BBX 16 16 0 -2
BITMAP
1000
1000
1ffe
2002
2002
4002
88a2
2522
2222
2522
28a2
2022
3fe2
2022
0004
0018
ENDCHAR
STARTCHAR (for_rename)
ENCODING 21261
SWIDTH 1024 0
DWIDTH 16 0
BBX 16 16 0 -2
BITMAP
1000
1000
1ffe
2042
4222
bff2
0202
3fe2
2222
3fe2
2222
3fe2
2222
2222
2222
226c
ENDCHAR
STARTCHAR (for_rename)
ENCODING 21263
SWIDTH 1024 0
DWIDTH 16 0
BBX 16 16 0 -2
BITMAP
1040
1040
fefe
1082
2d02
4202
b8f2
0092
fe92
2092
3cf2
4494
4480
0480
0882
307e
ENDCHAR
STARTCHAR (for_rename)
ENCODING 21264
SWIDTH 1024 0
DWIDTH 16 0
BBX 16 16 0 -2
BITMAP
1000
1000
1ffe
2002
5fe2
8002
1fc2
1042
1fc2
0002
3fe2
2222
3fe2
2222
3fe4
0018
ENDCHAR
STARTCHAR (for_rename)
ENCODING 21269
SWIDTH 1024 0
DWIDTH 16 0
BBX 16 16 0 -2
BITMAP
0000
1000
1000
1008
1010
1020
10c0
1300
1c00
1000
1000
1000
1000
1004
1004
0ffc
ENDCHAR
STARTCHAR (for_rename)
ENCODING 21270
SWIDTH 1024 0
DWIDTH 16 0
BBX 16 16 0 -2
BITMAP
0900
1100
1100
2100
2104
6118
61e0
a100
2100
2100
2100
2100
2100
2100
2102
20fe
ENDCHAR
STARTCHAR (for_rename)
ENCODING 21271
SWIDTH 1024 0
DWIDTH 16 0
BBX 16 16 0 -2
BITMAP
0040
0440
0440
0440
0440
0440
fc7e
0440
0440
0440
0440
0440
0c40
1442
2442
c43e
ENDCHAR
STARTCHAR (for_rename)
ENCODING 21273
SWIDTH 1024 0
DWIDTH 16 0
BBX 16 16 0 -2
BITMAP
0020
7f20
4120
7f20
4126
7f38
4120
0020
ffa0
0822
0822
4f22
483e
4800
a800
9ffe
ENDCHAR
STARTCHAR (for_rename)
ENCODING 21274
SWIDTH 1024 0
DWIDTH 16 0
BBX 16 16 0 -2
BITMAP
0000
7ffc
4000
4000
4000
4000
4000
4000
4000
4000
4000
4000
4000
4000
7ffe
4000
ENDCHAR
STARTCHAR (for_rename)
ENCODING 21277
SWIDTH 1024 0
DWIDTH 16 0
BBX 16 16 0 -2
BITMAP
0000
7ffc
4000
4080
4080
4ff8
4888
4888
4888
4888
4888
4898
4080
4000
7ffe
4000
ENDCHAR
STARTCHAR (for_rename)
ENCODING 21280
SWIDTH 1024 0
DWIDTH 16 0
BBX 16 16 0 -2
BITMAP
0000
7ffe
4000
4018
4fe0
4800
4800
4ffc
4840
4840
5040
5040
6040
4000
7ffe
4000
ENDCHAR
STARTCHAR (for_rename)
ENCODING 21281
SWIDTH 1024 0
DWIDTH 16 0
BBX 16 16 0 -2
BITMAP
0000
7ffe
4000
4000
4ffc
4080
4080
47f0
4080
4080
4080
5ffc
4000
4000
7ffe
4000
ENDCHAR
STARTCHAR (for_rename)
ENCODING 21283
SWIDTH 1024 0
DWIDTH 16 0
BBX 16 16 0 -2
BITMAP
0000
7ffc
4000
4000
4ff8
4888
4888
4ff8
4888
4888
4ff8
4888
4080
4080
7ffe
4000
ENDCHAR
STARTCHAR (for_rename)
ENCODING 21290
SWIDTH 1024 0
DWIDTH 16 0
BBX 16 16 0 -2
BITMAP
0000
7ffe
4000
4240
5e7c
4240
4240
4e78
4240
4740
5a7e
4240
4c40
4000
7ffe
4000
ENDCHAR
STARTCHAR (for_rename)
ENCODING 21295
SWIDTH 1024 0
DWIDTH 16 0
BBX 16 16 0 -2
BITMAP
0000
7ffc
5090
4920
43fc
4520
6120
51f8
4120
49f8
4920
4920
51fc
5100
7ffe
4000
ENDCHAR
STARTCHAR (for_rename)
ENCODING 21297
SWIDTH 1024 0
DWIDTH 16 0
BBX 16 16 0 -2
BITMAP
0000
7ffc
4080
4ff8
4888
4ff8
4080
7ffe
4808
4fc8
49f8
4808
4ff8
4410
4808
7ffe
ENDCHAR
STARTCHAR (for_rename)
ENCODING 21299
SWIDTH 1024 0
DWIDTH 16 0
BBX 16 16 0 -2
BITMAP
0000
7ffc
4080
4140
4220
4418
5be6
4000
4f78
4948
4f78
4410
4a28
5144
7ffe
4000
ENDCHAR
STARTCHAR (for_rename)
ENCODING 21304
SWIDTH 1024 0
DWIDTH 16 0
BBX 16 16 0 -2
BITMAP
0000
fffe
2000
2000
2000
2000
2000
2000
2000
2000
2000
2000
2000
2000
1ffc
0000
ENDCHAR
STARTCHAR (for_rename)
ENCODING 21305
SWIDTH 1024 0
DWIDTH 16 0
BBX 16 16 0 -2
BITMAP
0000
0000
7ffe
4440
4440
4440
4440
4440
4840
4844
503c
6000
4000
4000
7ffe
4000
ENDCHAR
STARTCHAR (for_rename)
ENCODING 21306
SWIDTH 1024 0
DWIDTH 16 0
BBX 16 16 0 -2
BITMAP
0000
7ffe
4000
4010
4010
4c20
4220
4140
4080
4140
4220
4420
5800
4000
7ffe
4000
ENDCHAR
STARTCHAR (for_rename)
ENCODING 21307
SWIDTH 1024 0
DWIDTH 16 0
BBX 16 16 0 -2
BITMAP
0000
7ffe
4800
4800
4ffc
5080
6080
4080
7ffe
4140
4220
4410
480c
7002
7ffe
4000
ENDCHAR
STARTCHAR (for_rename)
ENCODING 21311
SWIDTH 1024 0
DWIDTH 16 0
BBX 16 16 0 -2
BITMAP
0000
7ffe
4220
4220
7ffe
4220
4080
7ffe
4100
4200
4ffc
7404
4404
47fc
4000
7ffe
ENDCHAR
STARTCHAR (for_rename)
ENCODING 21312
SWIDTH 1024 0
DWIDTH 16 0
BBX 16 16 0 -2
BITMAP
0000
7ffc
4000
47f0
4410
4410
47f0
4000
5f7c
5144
5144
5f7c
5144
4000
7ffe
4000
ENDCHAR
STARTCHAR (for_rename)
ENCODING 21313
SWIDTH 1024 0
DWIDTH 16 0
BBX 16 16 0 -2
BITMAP
0100
0100
0100
0100
0100
0100
0100
fffe
0100
0100
0100
0100
0100
0100
0100
0100
ENDCHAR
STARTCHAR (for_rename)
ENCODING 21315
SWIDTH 1024 0
DWIDTH 16 0
BBX 16 16 0 -2
BITMAP
0000
00f0
3f00
0100
0100
0100
0100
0100
fffe
0100
0100
0100
0100
0100
0100
0100
ENDCHAR
STARTCHAR (for_rename)
ENCODING 21317
SWIDTH 1024 0
DWIDTH 16 0
BBX 16 16 0 -2
BITMAP
1110
1110
1110
1110
1110
1110
fffe
1110
1110
1110
1110
1110
2110
2110
4110
8110
ENDCHAR
STARTCHAR (for_rename)
ENCODING 21318
SWIDTH 1024 0
DWIDTH 16 0
BBX 16 16 0 -2
BITMAP
0200
0200
7fe0
0420
0420
0820
0822
1022
211e
c100
0100
fffe
0100
0100
0100
0100
ENDCHAR
STARTCHAR (for_rename)
ENCODING 21319
SWIDTH 1024 0
DWIDTH 16 0
BBX 16 16 0 -2
BITMAP
0320
3c20
0420
0420
0420
0420
0420
fffe
0420
0420
0420
0820
0820
1020
2020
c020
ENDCHAR
STARTCHAR (for_rename)
ENCODING 21320
SWIDTH 1024 0
DWIDTH 16 0
BBX 16 16 0 -2
BITMAP
0400
0400
0800
1ff8
2100
4100
0100
0100
fffe
0100
0100
0100
0100
0100
0100
0100
ENDCHAR
STARTCHAR (for_rename)
ENCODING 21321
SWIDTH 1024 0
DWIDTH 16 0
BBX 16 16 0 -2
BITMAP
0100
0100
7ffc
0100
1110
1110
1110
1010
fffe
1010
1010
1010
2010
2010
4010
8010
ENDCHAR
STARTCHAR (for_rename)
ENCODING 21322
SWIDTH 1024 0
DWIDTH 16 0
BBX 16 16 0 -2
BITMAP
0100
2108
1108
0910
0920
0100
7ffc
0100
0100
0100
fffe
0100
0100
0100
0100
0100
ENDCHAR
STARTCHAR (for_rename)
ENCODING 21325
SWIDTH 1024 0
DWIDTH 16 0
BBX 16 16 0 -2
BITMAP
0000
ff04
0104
0104
0104
0104
0104
7ffc
4104
4100
4100
4100
4100
4100
41fe
4100
ENDCHAR
STARTCHAR (for_rename)
ENCODING 21329
SWIDTH 1024 0
DWIDTH 16 0
BBX 16 16 0 -2
BITMAP
0400
0800
7ffc
4104
4104
7ffc
4104
4104
7ffc
0480
0880
1080
fffe
0080
0080
0080
ENDCHAR
STARTCHAR (for_rename)
ENCODING 21330
SWIDTH 1024 0
DWIDTH 16 0
BBX 16 16 0 -2
BITMAP
0100
0100
fffe
0000
0808
1010
2828
4444
8102
0100
0100
fffe
0100
0100
0100
0100
ENDCHAR
STARTCHAR (for_rename)
ENCODING 21331
SWIDTH 1024 0
DWIDTH 16 0
BBX 16 16 0 -2
BITMAP
0100
01fc
0100
0100
3ff8
2008
2008
3ff8
2008
2008
3ff8
0100
0100
fffe
0100
0100
ENDCHAR
STARTCHAR (for_rename)
ENCODING 21332
SWIDTH 1024 0
DWIDTH 16 0
BBX 16 16 0 -2
BITMAP
2040
23fc
2044
2084
f884
2104
2618
2000
2410
2fbe
2492
2492
2492
2492
28a2
2b2c
ENDCHAR
STARTCHAR (for_rename)
ENCODING 21335
SWIDTH 1024 0
DWIDTH 16 0
BBX 16 16 0 -2
BITMAP
0100
0100
fffe
0100
0100
7ffc
4824
4444
5ff4
4104
4104
5ff4
4104
4104
4104
411c
ENDCHAR
STARTCHAR (for_rename)
ENCODING 21336
SWIDTH 1024 0
DWIDTH 16 0
BBX 16 16 0 -2
BITMAP
1210
0920
0040
3ff8
2108
2108
3ff8
2108
2108
3ff8
0100
0100
fffe
0100
0100
0100
ENDCHAR
ENDFONT
